<svg id="calendar3" xmlns="http://www.w3.org/2000/svg" width="36" height="36" viewBox="0 0 36 36">
  <path id="Path_547" data-name="Path 547" d="M31.5,0H4.5A4.5,4.5,0,0,0,0,4.5v27A4.5,4.5,0,0,0,4.5,36h27A4.5,4.5,0,0,0,36,31.5V4.5A4.5,4.5,0,0,0,31.5,0ZM2.25,8.678A2.109,2.109,0,0,1,4.5,6.75h27a2.109,2.109,0,0,1,2.25,1.928V31.821a2.109,2.109,0,0,1-2.25,1.928H4.5a2.109,2.109,0,0,1-2.25-1.928Z" fill="#3a8f9a" fill-rule="evenodd"/>
  <path id="Path_548" data-name="Path 548" d="M14.625,15.75a2.25,2.25,0,1,0-2.25-2.25A2.25,2.25,0,0,0,14.625,15.75Zm6.75,0a2.25,2.25,0,1,0-2.25-2.25A2.25,2.25,0,0,0,21.375,15.75Zm6.75,0a2.25,2.25,0,1,0-2.25-2.25A2.25,2.25,0,0,0,28.125,15.75ZM7.875,22.5a2.25,2.25,0,1,0-2.25-2.25A2.25,2.25,0,0,0,7.875,22.5Zm6.75,0a2.25,2.25,0,1,0-2.25-2.25A2.25,2.25,0,0,0,14.625,22.5Zm6.75,0a2.25,2.25,0,1,0-2.25-2.25A2.25,2.25,0,0,0,21.375,22.5Zm6.75,0a2.25,2.25,0,1,0-2.25-2.25A2.25,2.25,0,0,0,28.125,22.5ZM7.875,29.25A2.25,2.25,0,1,0,5.625,27,2.25,2.25,0,0,0,7.875,29.25Zm6.75,0A2.25,2.25,0,1,0,12.375,27,2.25,2.25,0,0,0,14.625,29.25Zm6.75,0A2.25,2.25,0,1,0,19.125,27,2.25,2.25,0,0,0,21.375,29.25Z" fill="#3a8f9a" fill-rule="evenodd"/>
</svg>
