<svg xmlns="http://www.w3.org/2000/svg" width="27.8" height="30" viewBox="0 0 27.8 30">
  <path id="ic_timer_24px" d="M21.533,1H12.267V3.857h9.267ZM15.356,19.571h3.089V11H15.356Zm12.4-9.443L29.951,8.1a16.486,16.486,0,0,0-2.178-2.014L25.58,8.114A14.554,14.554,0,0,0,16.9,5.286C9.224,5.286,3,11.043,3,18.143S9.209,31,16.9,31s13.9-5.757,13.9-12.857a12.22,12.22,0,0,0-3.043-8.014ZM16.9,28.143c-5.977,0-10.811-4.471-10.811-10s4.834-10,10.811-10,10.811,4.471,10.811,10S22.877,28.143,16.9,28.143Z" transform="translate(-3 -1)" fill="#3a8f9a"/>
</svg>
