<svg width="60" height="60" viewBox="0 0 60 60" fill="none" xmlns="http://www.w3.org/2000/svg">
<rect width="60" height="60" rx="10" fill="#41D86B"/>
<path opacity="0.78" d="M50 40.9091C50 41.2884 49.7303 41.7553 49.4026 41.9471L30.5974 52.8562C30.2697 53.0479 29.7303 53.0479 29.4026 52.8562L10.5974 41.9471C10.2697 41.7553 10 41.2884 10 40.9091V19.0909C10 18.7116 10.2697 18.2405 10.5974 18.0529L29.4026 7.14382C29.7303 6.95206 30.2655 6.95206 30.5974 7.14382L49.4026 18.0529C49.7303 18.2447 50 18.7116 50 19.0909V40.9091Z" fill="white"/>
<path d="M49.509 40.6431C49.509 41.0141 49.2476 41.4727 48.9282 41.6561L30.5835 52.2984C30.264 52.486 29.7372 52.486 29.4177 52.2984L11.073 41.6561C10.7535 41.4685 10.4922 41.0141 10.4922 40.6431V19.3585C10.4922 18.9875 10.7535 18.5289 11.073 18.3455L29.4177 7.70319C29.7372 7.5156 30.2599 7.5156 30.5835 7.70319L48.9282 18.3455C49.2476 18.5331 49.509 18.9875 49.509 19.3585V40.6431Z" fill="#41D86B"/>
<mask id="mask0_1132_6104" style="mask-type:luminance" maskUnits="userSpaceOnUse" x="10" y="7" width="40" height="46">
<path d="M49.581 40.6255C49.581 40.9965 49.3197 41.4551 49.0002 41.6385L30.6555 52.2808C30.336 52.4684 29.8092 52.4684 29.4897 52.2808L11.1492 41.6385C10.8297 41.4509 10.5684 40.9965 10.5684 40.6255V19.3409C10.5684 18.9699 10.8297 18.5113 11.1492 18.3279L29.4939 7.68561C29.8133 7.49803 30.336 7.49803 30.6596 7.68561L49.0044 18.3279C49.3238 18.5155 49.5852 18.9699 49.5852 19.3409V40.6255H49.581Z" fill="white"/>
</mask>
<g mask="url(#mask0_1132_6104)">
<path opacity="0.5" d="M47.0258 31.9445L45.6734 33.9579L45.3954 35.8796L22.8482 51.2282L9.52734 42.0574L10.0874 21.1813L21.6286 14.2031L47.0258 31.9445Z" fill="url(#paint0_linear_1132_6104)"/>
</g>
<mask id="mask1_1132_6104" style="mask-type:luminance" maskUnits="userSpaceOnUse" x="10" y="7" width="40" height="46">
<path d="M49.581 40.6255C49.581 40.9965 49.3197 41.4551 49.0002 41.6385L30.6555 52.2808C30.336 52.4684 29.8092 52.4684 29.4897 52.2808L11.1492 41.6385C10.8297 41.4509 10.5684 40.9965 10.5684 40.6255V19.3409C10.5684 18.9699 10.8297 18.5113 11.1492 18.3279L29.4939 7.68561C29.8133 7.49803 30.336 7.49803 30.6596 7.68561L49.0044 18.3279C49.3238 18.5155 49.5852 18.9699 49.5852 19.3409V40.6255H49.581Z" fill="white"/>
</mask>
<g mask="url(#mask1_1132_6104)">
<path opacity="0.5" d="M26.2035 43.8332L19.3086 48.2352L9.98691 41.6698L9.10742 33.7704L18.2839 27.9219L26.2035 43.8332Z" fill="url(#paint1_linear_1132_6104)"/>
</g>
<path d="M46.6578 21.8443C46.6578 23.9439 44.9644 25.6455 42.8748 25.6455C40.7853 25.6455 39.0918 23.9439 39.0918 21.8443C39.0918 19.7446 40.7853 18.043 42.8748 18.043C44.9644 18.043 46.6578 19.7446 46.6578 21.8443Z" fill="#FF7C24"/>
<path d="M44.9621 20.9087H43.8081V19.7491C43.8081 19.6667 43.7432 19.6016 43.6613 19.6016H42.0941C42.0122 19.6016 41.9473 19.6667 41.9473 19.7491V20.9087H40.7933C40.7114 20.9087 40.6465 20.9739 40.6465 21.0562V22.6309C40.6465 22.7133 40.7114 22.7785 40.7933 22.7785H41.9473V23.9381C41.9473 24.0204 42.0122 24.0856 42.0941 24.0856H43.6613C43.7432 24.0856 43.8081 24.0204 43.8081 23.9381V22.7785H44.9621C45.0441 22.7785 45.1089 22.7133 45.1089 22.6309V21.0562C45.1089 20.9773 45.0406 20.9087 44.9621 20.9087Z" fill="white"/>
<path d="M40.9066 28.1954H24.1596C24.064 26.5006 22.6675 25.1523 20.957 25.1523C19.1816 25.1523 17.7441 26.5967 17.7441 28.3807C17.7441 30.1647 19.1816 31.609 20.957 31.609C22.2271 31.609 23.3196 30.868 23.842 29.7942V34.4875H42.0879V29.6707C42.0879 28.861 41.5587 28.1954 40.9066 28.1954Z" fill="#FF7C24"/>
<path d="M23.3301 34.4865H15.7777C15.467 34.4865 15.2109 34.2292 15.2109 33.917V31.7316C15.2109 31.4194 15.467 31.1621 15.7777 31.1621H23.3301C23.6408 31.1621 23.8969 31.4194 23.8969 31.7316V33.917C23.8969 34.2292 23.6408 34.4865 23.3301 34.4865Z" fill="white"/>
<path d="M46.233 29.1596H42.7334C42.4978 29.1596 42.3066 29.3517 42.3066 29.5884V34.2954H17.7477V22.9053C17.7477 22.6137 17.5121 22.377 17.2219 22.377H13.9203C13.6301 22.377 13.3945 22.6137 13.3945 22.9053V41.0712C13.3945 41.3628 13.6301 41.5995 13.9203 41.5995H17.2219C17.5121 41.5995 17.7477 41.3628 17.7477 41.0712V37.8085H42.31V41.1707C42.31 41.4074 42.5012 41.5995 42.7368 41.5995H46.2364C46.472 41.5995 46.6632 41.4074 46.6632 41.1707V29.5884C46.6598 29.3517 46.4686 29.1596 46.233 29.1596Z" fill="white"/>
<defs>
<linearGradient id="paint0_linear_1132_6104" x1="12.784" y1="45.1834" x2="35.8319" y2="21.1929" gradientUnits="userSpaceOnUse">
<stop offset="0.2582" stop-color="white"/>
<stop offset="0.3515" stop-color="#E6E6E6"/>
<stop offset="0.5503" stop-color="#A5A5A5"/>
<stop offset="0.8362" stop-color="#3E3E3E"/>
<stop offset="1"/>
</linearGradient>
<linearGradient id="paint1_linear_1132_6104" x1="10.8342" y1="43.8295" x2="24.8553" y2="33.5968" gradientUnits="userSpaceOnUse">
<stop offset="0.2912" stop-color="white"/>
<stop offset="0.3803" stop-color="#E6E6E6"/>
<stop offset="0.5703" stop-color="#A5A5A5"/>
<stop offset="0.8435" stop-color="#3E3E3E"/>
<stop offset="1"/>
</linearGradient>
</defs>
</svg>
