<svg width="60" height="60" viewBox="0 0 60 60" fill="none" xmlns="http://www.w3.org/2000/svg">
<rect width="60" height="60" rx="10" fill="#0070CD"/>
<path d="M21.2891 24.2617H10.1982V40.7895H21.2891V24.2617Z" fill="#0070CD"/>
<path d="M21.4868 23.7207H10V24.8867H21.4868V23.7207Z" fill="white"/>
<path d="M18.149 32.5254H13.3369V40.6684H18.149V32.5254Z" fill="#CECECE"/>
<path d="M17.9086 32.8223H13.5771V40.3668H17.9086V32.8223Z" fill="white"/>
<path d="M15.8763 32.5254H15.6104V40.6684H15.8763V32.5254Z" fill="#CECECE"/>
<path d="M13.6254 26.9648H11.3251V30.7809H13.6254V26.9648Z" fill="#CECECE"/>
<path d="M13.5101 27.1055H11.4396V30.6412H13.5101V27.1055Z" fill="white"/>
<path d="M12.5381 26.9648H12.4112V30.7809H12.5381V26.9648Z" fill="#CECECE"/>
<path d="M13.624 28.9415V28.8047H11.3245V28.9415H13.624Z" fill="#CECECE"/>
<path d="M16.8932 26.9648H14.593V30.7809H16.8932V26.9648Z" fill="#CECECE"/>
<path d="M16.7786 27.1055H14.7081V30.6412H16.7786V27.1055Z" fill="white"/>
<path d="M15.8067 26.9648H15.6797V30.7809H15.8067V26.9648Z" fill="#CECECE"/>
<path d="M16.8926 28.9415V28.8047H14.5931V28.9415H16.8926Z" fill="#CECECE"/>
<path d="M20.1617 26.9648H17.8615V30.7809H20.1617V26.9648Z" fill="#CECECE"/>
<path d="M20.0471 27.1055H17.9766V30.6412H20.0471V27.1055Z" fill="white"/>
<path d="M19.0752 26.9648H18.9482V30.7809H19.0752V26.9648Z" fill="#CECECE"/>
<path d="M20.1611 28.9415V28.8047H17.8616V28.9415H20.1611Z" fill="#CECECE"/>
<path d="M21.4868 39.8457H10V41.0117H21.4868V39.8457Z" fill="white"/>
<path d="M50.5734 24.2617H39.4825V40.7895H50.5734V24.2617Z" fill="#0070CD"/>
<path d="M50.7704 23.7207H39.2843V24.8867H50.7704V23.7207Z" fill="white"/>
<path d="M47.4333 32.5254H42.6212V40.6684H47.4333V32.5254Z" fill="#CECECE"/>
<path d="M47.1939 32.8223H42.8624V40.3668H47.1939V32.8223Z" fill="white"/>
<path d="M45.1606 32.5254H44.8947V40.6684H45.1606V32.5254Z" fill="#CECECE"/>
<path d="M42.9089 26.9648H40.6087V30.7809H42.9089V26.9648Z" fill="#CECECE"/>
<path d="M42.7944 27.1055H40.7239V30.6412H42.7944V27.1055Z" fill="white"/>
<path d="M41.8224 26.9648H41.6955V30.7809H41.8224V26.9648Z" fill="#CECECE"/>
<path d="M42.9083 28.9415V28.8047H40.6088V28.9415H42.9083Z" fill="#CECECE"/>
<path d="M46.1775 26.9648H43.8773V30.7809H46.1775V26.9648Z" fill="#CECECE"/>
<path d="M46.0629 27.1055H43.9924V30.6412H46.0629V27.1055Z" fill="white"/>
<path d="M45.091 26.9648H44.9641V30.7809H45.091V26.9648Z" fill="#CECECE"/>
<path d="M46.1769 28.9415V28.8047H43.8774V28.9415H46.1769Z" fill="#CECECE"/>
<path d="M49.446 26.9648H47.1458V30.7809H49.446V26.9648Z" fill="#CECECE"/>
<path d="M49.3322 27.1055H47.2617V30.6412H49.3322V27.1055Z" fill="white"/>
<path d="M48.3596 26.9648H48.2326V30.7809H48.3596V26.9648Z" fill="#CECECE"/>
<path d="M49.4454 28.9415V28.8047H47.146V28.9415H49.4454Z" fill="#CECECE"/>
<path d="M50.7704 39.8457H39.2843V41.0117H50.7704V39.8457Z" fill="white"/>
<path opacity="0.12" d="M39.9408 25.125H20.8301V41.0098H39.9408V25.125Z" fill="white"/>
<path d="M39.6649 18.3066H21.1043V41.0105H39.6649V18.3066Z" fill="#0070CD"/>
<path d="M34.8623 32.3535H25.9092V39.4945H34.8623V32.3535Z" fill="#CECECE"/>
<path d="M34.4876 32.6523H26.2842V39.1949H34.4876V32.6523Z" fill="white"/>
<path d="M30.5556 32.4023H30.2148V39.4459H30.5556V32.4023Z" fill="#CECECE"/>
<path d="M35.3415 38.752H25.4287V39.6897H35.3415V38.752Z" fill="white"/>
<path d="M35.1937 32.2207H25.5771V32.8691H35.1937V32.2207Z" fill="white"/>
<path d="M26.1917 27.2188H23.5869V30.8557H26.1917V27.2188Z" fill="#CECECE"/>
<path d="M26.0626 27.3516H23.7178V30.7218H26.0626V27.3516Z" fill="white"/>
<path d="M24.962 27.2188H24.8176V30.8557H24.962V27.2188Z" fill="#CECECE"/>
<path d="M26.1904 29.1026V28.9727H23.5872V29.1026H26.1904Z" fill="#CECECE"/>
<path d="M29.8548 27.2188H27.25V30.8557H29.8548V27.2188Z" fill="#CECECE"/>
<path d="M29.7257 27.3516H27.3809V30.7218H29.7257V27.3516Z" fill="white"/>
<path d="M28.625 27.2188H28.4807V30.8557H28.625V27.2188Z" fill="#CECECE"/>
<path d="M29.8535 29.1026V28.9727H27.2503V29.1026H29.8535Z" fill="#CECECE"/>
<path d="M33.5178 27.2188H30.913V30.8557H33.5178V27.2188Z" fill="#CECECE"/>
<path d="M33.3887 27.3516H31.0439V30.7218H33.3887V27.3516Z" fill="white"/>
<path d="M32.2888 27.2188H32.1445V30.8557H32.2888V27.2188Z" fill="#CECECE"/>
<path d="M33.5165 29.1026V28.9727H30.9133V29.1026H33.5165Z" fill="#CECECE"/>
<path d="M37.1822 27.2188H34.5774V30.8557H37.1822V27.2188Z" fill="#CECECE"/>
<path d="M37.0531 27.3516H34.7083V30.7218H37.0531V27.3516Z" fill="white"/>
<path d="M35.9524 27.2188H35.8081V30.8557H35.9524V27.2188Z" fill="#CECECE"/>
<path d="M37.1809 29.1026V28.9727H34.5777V29.1026H37.1809Z" fill="#CECECE"/>
<path d="M39.665 39.5273H21.1045V41.0107H39.665V39.5273Z" fill="white"/>
<path d="M39.9725 18H20.7969V19.5143H39.9725V18Z" fill="white"/>
<path d="M32.131 25.7099C33.5156 24.7469 33.8574 22.8438 32.8944 21.4592C31.9314 20.0746 30.0283 19.7329 28.6437 20.6958C27.2592 21.6588 26.9174 23.5619 27.8803 24.9465C28.8433 26.3311 30.7464 26.6729 32.131 25.7099Z" fill="white"/>
<path d="M31.0166 25.3343H29.7523C29.7017 25.3343 29.6602 25.2928 29.6602 25.2421V21.1684C29.6602 21.1177 29.7017 21.0762 29.7523 21.0762H31.0166C31.0672 21.0762 31.1088 21.1177 31.1088 21.1684V25.2421C31.1095 25.2928 31.0679 25.3343 31.0166 25.3343Z" fill="#0070CD"/>
<path d="M28.2559 23.8369V22.5727C28.2559 22.522 28.2974 22.4805 28.348 22.4805H32.4218C32.4725 22.4805 32.514 22.522 32.514 22.5727V23.8369C32.514 23.8875 32.4725 23.9291 32.4218 23.9291H28.348C28.2974 23.9291 28.2559 23.8875 28.2559 23.8369Z" fill="#0070CD"/>
</svg>
