<svg width="60" height="60" viewBox="0 0 60 60" fill="none" xmlns="http://www.w3.org/2000/svg">
<rect width="60" height="60" rx="10" fill="#4B83A6"/>
<path opacity="0.78" d="M50 40.9091C50 41.2884 49.7303 41.7553 49.4026 41.9471L30.5974 52.8562C30.2697 53.0479 29.7303 53.0479 29.4026 52.8562L10.5974 41.9471C10.2697 41.7553 10 41.2884 10 40.9091V19.0909C10 18.7116 10.2697 18.2405 10.5974 18.0529L29.4026 7.14382C29.7303 6.95206 30.2655 6.95206 30.5974 7.14382L49.4026 18.0529C49.7303 18.2447 50 18.7116 50 19.0909V40.9091Z" fill="white"/>
<path d="M49.5109 40.6431C49.5109 41.0141 49.2496 41.4727 48.9302 41.6561L30.5854 52.2984C30.266 52.486 29.7391 52.486 29.4197 52.2984L11.0749 41.6561C10.7555 41.4685 10.4941 41.0141 10.4941 40.6431V19.3585C10.4941 18.9875 10.7555 18.5289 11.0749 18.3455L29.4197 7.70319C29.7391 7.5156 30.2618 7.5156 30.5854 7.70319L48.9302 18.3455C49.2496 18.5331 49.5109 18.9875 49.5109 19.3585V40.6431Z" fill="#4B83A6"/>
<mask id="mask0_1132_5534" style="mask-type:luminance" maskUnits="userSpaceOnUse" x="10" y="7" width="40" height="46">
<path d="M49.581 40.6197C49.581 40.9907 49.3197 41.4492 49.0002 41.6326L30.6555 52.275C30.336 52.4625 29.8092 52.4625 29.4897 52.275L11.1492 41.6326C10.8297 41.445 10.5684 40.9907 10.5684 40.6197V19.335C10.5684 18.964 10.8297 18.5055 11.1492 18.3221L29.4939 7.67975C29.8133 7.49217 30.336 7.49217 30.6596 7.67975L49.0044 18.3221C49.3238 18.5097 49.5852 18.964 49.5852 19.335V40.6197H49.581Z" fill="white"/>
</mask>
<g mask="url(#mask0_1132_5534)">
<path opacity="0.5" d="M47.0258 31.9406L45.6734 33.954L45.3954 35.8757L22.8482 51.2243L9.52734 42.0535L10.0874 21.1774L21.6286 14.1992L47.0258 31.9406Z" fill="url(#paint0_linear_1132_5534)"/>
</g>
<mask id="mask1_1132_5534" style="mask-type:luminance" maskUnits="userSpaceOnUse" x="10" y="7" width="40" height="46">
<path d="M49.581 40.6197C49.581 40.9907 49.3197 41.4492 49.0002 41.6326L30.6555 52.275C30.336 52.4625 29.8092 52.4625 29.4897 52.275L11.1492 41.6326C10.8297 41.445 10.5684 40.9907 10.5684 40.6197V19.335C10.5684 18.964 10.8297 18.5055 11.1492 18.3221L29.4939 7.67975C29.8133 7.49217 30.336 7.49217 30.6596 7.67975L49.0044 18.3221C49.3238 18.5097 49.5852 18.964 49.5852 19.335V40.6197H49.581Z" fill="white"/>
</mask>
<g mask="url(#mask1_1132_5534)">
<path opacity="0.5" d="M26.2044 43.8293L19.3096 48.2313L9.98788 41.6659L9.1084 33.7665L18.2849 27.918L26.2044 43.8293Z" fill="url(#paint1_linear_1132_5534)"/>
</g>
<path d="M22.0542 25.6719H12.6572V39.7431H22.0542V25.6719Z" fill="#FF7C24"/>
<path d="M22.2217 25.2109H12.4893V26.2036H22.2217V25.2109Z" fill="white"/>
<path d="M19.3935 32.707H15.3164V39.6397H19.3935V32.707Z" fill="#CECECE"/>
<path d="M19.1894 32.9609H15.5195V39.3841H19.1894V32.9609Z" fill="white"/>
<path d="M17.4676 32.707H17.2422V39.6397H17.4676V32.707Z" fill="#CECECE"/>
<path d="M15.5622 27.9727H13.6133V31.2215H15.5622V27.9727Z" fill="#CECECE"/>
<path d="M15.4642 28.0938H13.71V31.1039H15.4642V28.0938Z" fill="white"/>
<path d="M14.6408 27.9727H14.5332V31.2215H14.6408V27.9727Z" fill="#CECECE"/>
<path d="M15.5606 29.6555V29.5391H13.6123V29.6555H15.5606Z" fill="#CECECE"/>
<path d="M18.3288 27.9727H16.3799V31.2215H18.3288V27.9727Z" fill="#CECECE"/>
<path d="M18.2318 28.0938H16.4775V31.1039H18.2318V28.0938Z" fill="white"/>
<path d="M17.4084 27.9727H17.3008V31.2215H17.4084V27.9727Z" fill="#CECECE"/>
<path d="M18.3282 29.6555V29.5391H16.3799V29.6555H18.3282Z" fill="#CECECE"/>
<path d="M21.0993 27.9727H19.1504V31.2215H21.0993V27.9727Z" fill="#CECECE"/>
<path d="M21.0023 28.0938H19.248V31.1039H21.0023V28.0938Z" fill="white"/>
<path d="M20.1789 27.9727H20.0713V31.2215H20.1789V27.9727Z" fill="#CECECE"/>
<path d="M21.0987 29.6555V29.5391H19.1504V29.6555H21.0987Z" fill="#CECECE"/>
<path d="M22.2217 38.9395H12.4893V39.9321H22.2217V38.9395Z" fill="white"/>
<path d="M46.8667 25.6719H37.4697V39.7431H46.8667V25.6719Z" fill="#FF7C24"/>
<path d="M47.0336 25.2109H37.3018V26.2036H47.0336V25.2109Z" fill="white"/>
<path d="M44.206 32.707H40.1289V39.6397H44.206V32.707Z" fill="#CECECE"/>
<path d="M44.0029 32.9609H40.333V39.3841H44.0029V32.9609Z" fill="white"/>
<path d="M42.2801 32.707H42.0547V39.6397H42.2801V32.707Z" fill="#CECECE"/>
<path d="M40.3738 27.9727H38.4248V31.2215H40.3738V27.9727Z" fill="#CECECE"/>
<path d="M40.2767 28.0938H38.5225V31.1039H40.2767V28.0938Z" fill="white"/>
<path d="M39.4533 27.9727H39.3457V31.2215H39.4533V27.9727Z" fill="#CECECE"/>
<path d="M40.3731 29.6555V29.5391H38.4248V29.6555H40.3731Z" fill="#CECECE"/>
<path d="M43.1423 27.9727H41.1934V31.2215H43.1423V27.9727Z" fill="#CECECE"/>
<path d="M43.0453 28.0938H41.291V31.1039H43.0453V28.0938Z" fill="white"/>
<path d="M42.2218 27.9727H42.1143V31.2215H42.2218V27.9727Z" fill="#CECECE"/>
<path d="M43.1416 29.6555V29.5391H41.1934V29.6555H43.1416Z" fill="#CECECE"/>
<path d="M45.9118 27.9727H43.9629V31.2215H45.9118V27.9727Z" fill="#CECECE"/>
<path d="M45.8148 28.0938H44.0605V31.1039H45.8148V28.0938Z" fill="white"/>
<path d="M44.9914 27.9727H44.8838V31.2215H44.9914V27.9727Z" fill="#CECECE"/>
<path d="M45.9112 29.6555V29.5391H43.9629V29.6555H45.9112Z" fill="#CECECE"/>
<path d="M47.0336 38.9395H37.3018V39.9321H47.0336V38.9395Z" fill="white"/>
<path opacity="0.12" d="M37.857 26.4062H21.665V39.9299H37.857V26.4062Z" fill="white"/>
<path d="M37.6233 20.6016H21.8975V39.9308H37.6233V20.6016Z" fill="#FF7C24"/>
<path d="M33.5525 32.5586H25.9668V38.6382H33.5525V32.5586Z" fill="#CECECE"/>
<path d="M33.2347 32.8125H26.2842V38.3826H33.2347V32.8125Z" fill="white"/>
<path d="M29.904 32.6016H29.6152V38.5982H29.904V32.6016Z" fill="#CECECE"/>
<path d="M33.9593 38.0078H25.5605V38.8062H33.9593V38.0078Z" fill="white"/>
<path d="M33.8334 32.4473H25.6855V32.9993H33.8334V32.4473Z" fill="white"/>
<path d="M26.2089 28.1875H24.002V31.2839H26.2089V28.1875Z" fill="#CECECE"/>
<path d="M26.099 28.3008H24.1123V31.1701H26.099V28.3008Z" fill="white"/>
<path d="M25.1672 28.1875H25.0449V31.2839H25.1672V28.1875Z" fill="#CECECE"/>
<path d="M26.208 29.7903V29.6797H24.0023V29.7903H26.208Z" fill="#CECECE"/>
<path d="M29.3124 28.1875H27.1055V31.2839H29.3124V28.1875Z" fill="#CECECE"/>
<path d="M29.2025 28.3008H27.2158V31.1701H29.2025V28.3008Z" fill="white"/>
<path d="M28.2698 28.1875H28.1475V31.2839H28.2698V28.1875Z" fill="#CECECE"/>
<path d="M29.3115 29.7923V29.6816H27.1059V29.7923H29.3115Z" fill="#CECECE"/>
<path d="M32.4169 28.1875H30.21V31.2839H32.4169V28.1875Z" fill="#CECECE"/>
<path d="M32.308 28.3008H30.3213V31.1701H32.308V28.3008Z" fill="white"/>
<path d="M31.3752 28.1875H31.2529V31.2839H31.3752V28.1875Z" fill="#CECECE"/>
<path d="M32.416 29.7903V29.6797H30.2104V29.7903H32.416Z" fill="#CECECE"/>
<path d="M35.5214 28.1875H33.3145V31.2839H35.5214V28.1875Z" fill="#CECECE"/>
<path d="M35.4105 28.3008H33.4238V31.1701H35.4105V28.3008Z" fill="white"/>
<path d="M34.4787 28.1875H34.3564V31.2839H34.4787V28.1875Z" fill="#CECECE"/>
<path d="M35.5195 29.7903V29.6797H33.3139V29.7903H35.5195Z" fill="#CECECE"/>
<path d="M37.6233 38.668H21.8975V39.9309H37.6233V38.668Z" fill="white"/>
<path d="M37.8837 20.3398H21.6367V21.6291H37.8837V20.3398Z" fill="white"/>
<path d="M31.2399 26.9054C32.413 26.0856 32.7026 24.4654 31.8867 23.2866C31.0708 22.1078 29.4584 21.8168 28.2853 22.6366C27.1121 23.4565 26.8226 25.0767 27.6385 26.2555C28.4544 27.4343 30.0668 27.7253 31.2399 26.9054Z" fill="white"/>
<path d="M30.2957 26.5842H29.2246C29.1817 26.5842 29.1465 26.5488 29.1465 26.5057V23.0375C29.1465 22.9944 29.1817 22.959 29.2246 22.959H30.2957C30.3386 22.959 30.3738 22.9944 30.3738 23.0375V26.5057C30.3745 26.5488 30.3393 26.5842 30.2957 26.5842Z" fill="#FF7C24"/>
<path d="M27.9561 25.311V24.2347C27.9561 24.1916 27.9913 24.1562 28.0342 24.1562H31.4858C31.5286 24.1562 31.5639 24.1916 31.5639 24.2347V25.311C31.5639 25.3542 31.5286 25.3895 31.4858 25.3895H28.0342C27.9913 25.3895 27.9561 25.3542 27.9561 25.311Z" fill="#FF7C24"/>
<defs>
<linearGradient id="paint0_linear_1132_5534" x1="12.784" y1="45.1795" x2="35.8319" y2="21.189" gradientUnits="userSpaceOnUse">
<stop offset="0.2582" stop-color="white"/>
<stop offset="0.3515" stop-color="#E6E6E6"/>
<stop offset="0.5503" stop-color="#A5A5A5"/>
<stop offset="0.8362" stop-color="#3E3E3E"/>
<stop offset="1"/>
</linearGradient>
<linearGradient id="paint1_linear_1132_5534" x1="10.8352" y1="43.8256" x2="24.8563" y2="33.5929" gradientUnits="userSpaceOnUse">
<stop offset="0.2912" stop-color="white"/>
<stop offset="0.3803" stop-color="#E6E6E6"/>
<stop offset="0.5703" stop-color="#A5A5A5"/>
<stop offset="0.8435" stop-color="#3E3E3E"/>
<stop offset="1"/>
</linearGradient>
</defs>
</svg>
