<svg width="60" height="60" viewBox="0 0 60 60" fill="none" xmlns="http://www.w3.org/2000/svg">
<rect width="60" height="60" rx="10" fill="#9ACDD9"/>
<path opacity="0.78" d="M50 40.9091C50 41.2884 49.7303 41.7553 49.4026 41.9471L30.5974 52.8562C30.2697 53.0479 29.7303 53.0479 29.4026 52.8562L10.5974 41.9471C10.2697 41.7553 10 41.2884 10 40.9091V19.0909C10 18.7115 10.2697 18.2405 10.5974 18.0529L29.4026 7.14382C29.7303 6.95206 30.2697 6.95206 30.5974 7.14382L49.4026 18.0529C49.7303 18.2447 50 18.7115 50 19.0909V40.9091Z" fill="white"/>
<path d="M49.5109 40.6431C49.5109 41.0141 49.2496 41.4726 48.9301 41.6561L30.5854 52.2984C30.266 52.4818 29.7391 52.4818 29.4197 52.2984L11.0749 41.6561C10.7555 41.4685 10.4941 41.0141 10.4941 40.6431V19.3585C10.4941 18.9875 10.7555 18.5289 11.0749 18.3455L29.4197 7.70319C29.7391 7.5156 30.2618 7.5156 30.5854 7.70319L48.9301 18.3455C49.2496 18.5331 49.5109 18.9875 49.5109 19.3585V40.6431Z" fill="#9ACDD9"/>
<path opacity="0.5" d="M43.7359 26.8173L20.2304 41.7949L10.415 21.2022L32.4229 8.24219L43.7359 26.8173Z" fill="url(#paint0_linear_1132_5795)"/>
<path d="M27.2412 17.5841C27.2412 11.9107 31.8212 7.30859 37.4673 7.30859C43.1134 7.30859 47.6934 11.9107 47.6934 17.5841C47.6934 23.2575 43.1134 27.8596 37.4673 27.8596C31.8212 27.8596 27.2412 23.2575 27.2412 17.5841Z" fill="#FF7C24"/>
<path d="M48.1918 18.1013C48.1918 12.0361 43.2965 7.11719 37.2604 7.11719C31.2244 7.11719 26.3291 12.0361 26.3291 18.1013C26.3291 24.1666 31.2244 29.0855 37.2604 29.0855H37.2646C37.2646 29.0855 37.2646 29.0855 37.2687 29.0855C43.3007 29.0855 48.1918 24.1666 48.1918 18.1013ZM44.8979 23.6455C44.1677 23.2787 43.3422 22.9702 42.4419 22.7201C42.7406 21.4487 42.9149 20.0439 42.9481 18.5682H47.2584C47.1671 20.5649 46.4992 22.4033 45.4164 23.929C45.2505 23.8289 45.0804 23.7372 44.8979 23.6455ZM45.3998 12.2487C46.495 13.7827 47.1713 15.6335 47.2625 17.6386H42.9522C42.919 16.1463 42.7406 14.7331 42.4336 13.4534C43.3339 13.2033 44.1594 12.8948 44.8896 12.528C45.0638 12.4404 45.2339 12.3446 45.3998 12.2487ZM42.0271 17.6386H37.7209V14.1037C39.0692 14.0745 40.3552 13.9286 41.5334 13.6702C41.8238 14.879 41.9981 16.2213 42.0271 17.6386ZM37.7251 13.1866V8.0968C38.1607 8.18851 38.5838 8.40944 39.0028 8.76377C39.9279 9.53495 40.741 10.9606 41.2928 12.7781C40.1934 13.0157 38.9904 13.1616 37.7251 13.1866ZM35.5222 8.76377C35.9412 8.40944 36.3685 8.18851 36.8 8.0968V13.1783C35.5388 13.1491 34.3316 13.0074 33.2364 12.7739C33.448 12.0819 33.6927 11.4358 33.9748 10.8731C34.427 9.96015 34.958 9.24316 35.5222 8.76377ZM36.8 14.112V17.6428H32.4979C32.5311 16.2213 32.7054 14.879 32.9916 13.6702C34.1739 13.9244 35.4558 14.0787 36.8 14.112ZM31.577 17.6386H27.2667C27.3579 15.6252 28.0383 13.7702 29.1335 12.2362C29.9798 12.7281 30.9754 13.1366 32.0914 13.4451C31.7885 14.729 31.6102 16.1463 31.577 17.6386ZM31.577 18.564C31.6102 20.048 31.7885 21.4529 32.0914 22.7284C30.9713 23.0411 29.9673 23.4538 29.1211 23.9498C28.03 22.42 27.3538 20.5691 27.2625 18.564H31.577ZM32.4979 18.564H36.8041V22.0615C35.4517 22.0948 34.1657 22.249 32.9875 22.5075C32.6971 21.3111 32.527 19.9772 32.4979 18.564ZM36.8 22.9952V28.11C36.3644 28.0183 35.9412 27.7974 35.5222 27.4431C34.5929 26.6677 33.7798 25.2337 33.2281 23.4079C34.3274 23.1661 35.5347 23.0244 36.8 22.9952ZM39.0028 27.4431C38.5838 27.7974 38.1565 28.0183 37.7251 28.11V22.9869C38.9945 23.0119 40.1976 23.1536 41.3011 23.3912C41.0895 24.0999 40.8406 24.7585 40.5544 25.3338C40.098 26.2467 39.567 26.9637 39.0028 27.4431ZM37.7251 22.0656V18.564H42.0229C41.9939 19.973 41.8197 21.2986 41.5376 22.495C40.3594 22.2407 39.0733 22.0948 37.7251 22.0656ZM44.819 11.515C44.0765 11.9277 43.1845 12.282 42.1847 12.5572C41.9566 11.7985 41.6869 11.0898 41.3758 10.4562C40.9775 9.65584 40.5129 8.97219 39.9902 8.42611C41.6579 8.90133 43.1472 9.7934 44.342 10.9898C44.5079 11.1607 44.6655 11.3358 44.819 11.515ZM34.539 8.42611C33.6015 9.39739 32.8506 10.8272 32.3362 12.5488C31.5023 12.3154 30.739 12.0319 30.0794 11.6984C29.9508 11.6359 29.8387 11.565 29.7184 11.4983C29.8678 11.3233 30.0254 11.1524 30.1872 10.9898C31.3778 9.7934 32.8713 8.90133 34.539 8.42611ZM29.706 24.6918C29.8346 24.6168 29.9591 24.5459 30.096 24.475C30.7514 24.1457 31.5064 23.8623 32.3362 23.6288C32.5643 24.3958 32.8381 25.1128 33.1534 25.7506C33.5517 26.551 34.0163 27.2346 34.539 27.7807C32.8713 27.3097 31.382 26.4134 30.1914 25.217C30.0171 25.0461 29.8595 24.8711 29.706 24.6918ZM39.9902 27.7807C40.9319 26.8011 41.6911 25.3588 42.2055 23.6205C43.2094 23.8998 44.1013 24.2541 44.8481 24.671C44.6863 24.8586 44.5203 25.042 44.3461 25.2212C43.1472 26.4134 41.6579 27.3055 39.9902 27.7807Z" fill="#9FC3D3"/>
<mask id="mask0_1132_5795" style="mask-type:luminance" maskUnits="userSpaceOnUse" x="10" y="7" width="40" height="46">
<path d="M49.51 40.5767C49.51 40.9477 49.2486 41.4021 48.9292 41.5897L30.5844 52.232C30.265 52.4154 29.7381 52.4154 29.4187 52.232L11.074 41.5897C10.7545 41.4021 10.4932 40.9477 10.4932 40.5767V19.2921C10.4932 18.9211 10.7545 18.4667 11.074 18.2791L29.4187 7.63678C29.7381 7.4492 30.2608 7.4492 30.5844 7.63678L48.9292 18.2791C49.2486 18.4667 49.51 18.9211 49.51 19.2921V40.5767Z" fill="white"/>
</mask>
<g mask="url(#mask0_1132_5795)">
<path opacity="0.5" d="M23.6811 19.7798L26.0126 18.3125L37.3795 39.3053L17.0933 52.4655L9.82509 41.7023L5.26172 30.5597L23.2912 19.488L23.6811 19.7798Z" fill="url(#paint1_linear_1132_5795)"/>
</g>
<mask id="mask1_1132_5795" style="mask-type:luminance" maskUnits="userSpaceOnUse" x="10" y="7" width="40" height="46">
<path d="M49.51 40.5767C49.51 40.9477 49.2486 41.4021 48.9292 41.5897L30.5844 52.232C30.265 52.4154 29.7381 52.4154 29.4187 52.232L11.074 41.5897C10.7545 41.4021 10.4932 40.9477 10.4932 40.5767V19.2921C10.4932 18.9211 10.7545 18.4667 11.074 18.2791L29.4187 7.63678C29.7381 7.4492 30.2608 7.4492 30.5844 7.63678L48.9292 18.2791C49.2486 18.4667 49.51 18.9211 49.51 19.2921V40.5767Z" fill="white"/>
</mask>
<g mask="url(#mask1_1132_5795)">
<path opacity="0.5" d="M18.0854 36.7711L19.2678 37.5214L21.9975 47.1925L13.3976 52.3406L7.80957 38.4885L13.2607 34.2324L18.0854 36.7711Z" fill="url(#paint2_linear_1132_5795)"/>
</g>
<path d="M41.9513 26.308L37.1681 19.4424L34.4135 21.3808V18.0293H26.075V21.3808L23.3203 19.4424L18.5371 26.308L22.976 29.4303L18.5371 32.5525L23.3203 39.4182L26.075 37.4798V40.8855H34.4135V37.4798L37.1681 39.4182L41.9513 32.5525L37.5124 29.4303L41.9513 26.308Z" fill="white"/>
<path d="M28.8714 29.0711C28.9377 29.0711 28.9875 29.0211 28.9875 28.9544C28.9875 28.8877 28.9377 28.8377 28.8714 28.8377C28.8091 28.8377 28.7552 28.8877 28.7552 28.9544C28.7552 29.0211 28.8091 29.0711 28.8714 29.0711ZM31.8624 28.8543C31.8002 28.8543 31.7463 28.9085 31.7463 28.9711C31.7463 29.0336 31.7961 29.0878 31.8624 29.0878C31.9288 29.0878 31.9786 29.0336 31.9786 28.9711C31.9786 28.9044 31.9288 28.8543 31.8624 28.8543ZM30.3814 24.9484C30.8585 24.9484 31.2443 25.3361 31.2443 25.8155C31.2443 26.174 31.0286 26.4783 30.7216 26.6117C30.7175 26.8493 30.6926 28.5334 30.6594 30.5468L30.0993 30.2883C30.0703 28.3875 30.0454 26.8368 30.0412 26.6117C29.7343 26.4783 29.5185 26.174 29.5185 25.8155C29.5185 25.3361 29.9043 24.9484 30.3814 24.9484ZM25.6646 27.4996C25.6646 27.4996 25.3244 27.4704 25.1626 27.1577C25.0008 26.8451 25.063 26.7742 25.063 26.7742C25.063 26.7742 27.0502 26.7784 28.0375 26.7826C27.9836 26.7117 27.9297 26.6367 27.8799 26.5533L24.5777 26.5783C24.5777 26.5783 24.2375 26.5491 24.0757 26.2365C23.9139 25.9239 23.9761 25.853 23.9761 25.853C23.9761 25.853 26.5772 25.8572 27.5355 25.8613C27.5148 25.7988 27.4941 25.7363 27.4733 25.6696H22.7938C22.7938 25.6696 22.4536 25.6404 22.2918 25.3278C22.13 25.0151 22.1923 24.9442 22.1923 24.9442C22.1923 24.9442 26.4196 24.9442 27.3572 24.9442C27.3572 24.8734 27.353 24.8025 27.3572 24.7316H21.877C21.877 24.7316 21.5368 24.7025 21.375 24.3898C21.2132 24.0772 21.2754 24.0063 21.2754 24.0063C21.2754 24.0063 27.241 24.0063 27.3696 24.0063C27.4982 24.0063 27.8882 23.9855 28.0168 24.3732C28.1454 24.7608 28.0458 25.3069 28.4275 26.0406C28.8257 26.8076 29.419 27.1869 29.5891 27.2953C29.7633 27.4037 29.9126 27.6746 29.6554 27.8456C29.3692 28.0373 28.8921 27.7038 28.7137 27.5079L25.6646 27.4996ZM29.0746 37.2206C29.0166 37.1581 28.9917 36.6037 29.1991 36.3953L30.0661 36.7954C29.6886 36.9664 29.3318 37.1206 29.0746 37.2206ZM30.5266 38.1294C30.5059 38.2961 30.4644 38.4962 30.3856 38.5171H30.3814C30.3773 38.5171 30.3731 38.5171 30.3731 38.5171C30.2943 38.4962 30.257 38.292 30.2362 38.1294C30.2321 38.096 30.2196 37.6125 30.2072 36.8621L30.5515 37.0205C30.5391 37.6792 30.5308 38.096 30.5266 38.1294ZM31.7463 37.279C30.8627 36.933 28.8091 35.9534 28.7096 35.8742C28.5353 35.7283 28.4316 35.399 28.7469 35.1239C28.8174 35.0613 29.0539 34.9363 29.3567 34.7862L30.0247 35.103L30.0205 35.2239C29.7799 35.3281 29.6015 35.4407 29.5932 35.4615C29.5476 35.549 31.3688 36.2827 31.572 36.4161C31.8334 36.5787 31.8127 37.2165 31.7463 37.279ZM30.1781 35.1739L30.5806 35.3615C30.5806 35.4782 30.5764 35.5949 30.5764 35.7075L30.1864 35.524C30.1823 35.4073 30.1781 35.2906 30.1781 35.1739ZM32.1114 35.8158C32.0782 35.8408 31.8376 35.9659 31.4932 36.1326L30.734 35.7825V35.6949C31.0244 35.5616 31.2402 35.4365 31.2277 35.4031C31.1862 35.3156 28.9129 34.4277 28.5353 34.2109C28.1163 33.9733 28.2532 33.5481 28.498 33.4022C28.5312 33.3814 28.7967 33.2688 29.1576 33.1188L29.9956 33.4981V33.6107C29.7716 33.7232 29.6057 33.8066 29.6139 33.8233C29.6347 33.8858 31.8334 34.8529 32.074 35.0613C32.3935 35.3406 32.2897 35.6741 32.1114 35.8158ZM30.1533 33.5857L30.6096 33.7983C30.6096 33.89 30.6054 33.9817 30.6054 34.0775L30.1616 33.8691C30.1533 33.7732 30.1533 33.6774 30.1533 33.5857ZM32.2441 34.2568C32.1445 34.3152 31.9081 34.4194 31.6177 34.5444L30.7589 34.1484V34.0775C30.9954 33.965 31.1613 33.8816 31.1655 33.865C31.1862 33.7983 28.8133 32.7478 28.3072 32.5143C27.9048 32.3268 27.8259 31.8307 28.2989 31.5931C28.2989 31.5931 28.6639 31.4305 29.1784 31.2012L29.95 31.5556V31.7765C29.5517 31.9474 29.2572 32.0808 29.2281 32.0933C29.1203 32.135 32.1528 33.3772 32.2773 33.4481C32.5221 33.5898 32.6631 34.015 32.2441 34.2568ZM30.1201 31.6348L30.6386 31.8765C30.6345 32.0725 30.6345 32.2684 30.6303 32.4685L30.1325 32.235C30.1284 32.035 30.1242 31.8349 30.1201 31.6348ZM32.4681 32.4768C32.3063 32.5519 31.9496 32.7103 31.5389 32.8978L30.7838 32.5477V32.4268C31.2443 32.2225 31.5845 32.0683 31.5472 32.0516C31.4393 32.0099 28.3943 30.6927 27.8674 30.4509C27.3862 30.23 27.2161 29.9173 27.2161 29.4088C27.2161 28.8377 27.5646 28.5584 27.8176 28.4875C28.0251 28.4292 28.6142 28.3416 29.0166 28.5542C29.4107 28.7626 29.3899 29.513 29.3899 29.513H28.2408C28.2408 29.513 28.1537 29.5422 28.2283 29.613C28.2989 29.6839 32.4764 31.5514 32.4764 31.5514C32.9494 31.7932 32.8747 32.2934 32.4681 32.4768ZM32.8664 30.4676C32.6839 30.551 32.1985 30.7635 31.6384 31.0053L30.817 30.626V30.4217C31.6965 30.0215 32.4764 29.6631 32.5096 29.6339C32.5801 29.5588 32.4972 29.5297 32.4972 29.5297H31.348C31.348 29.5297 31.3273 28.7835 31.7214 28.5709C32.1197 28.3583 32.7129 28.45 32.9203 28.5042C33.1734 28.5751 33.5219 28.8544 33.5219 29.4254C33.5219 29.9298 33.3476 30.2466 32.8664 30.4676ZM36.8075 25.8488C36.8075 25.8488 36.8697 25.9155 36.7079 26.2323C36.5461 26.545 36.2059 26.5741 36.2059 26.5741L32.9037 26.5491C32.8498 26.6325 32.7959 26.7075 32.7419 26.7784C33.7293 26.7742 35.7164 26.7701 35.7164 26.7701C35.7164 26.7701 35.7786 26.8368 35.6169 27.1536C35.4551 27.4662 35.1149 27.4954 35.1149 27.4954L32.074 27.5037C31.8956 27.6997 31.4186 28.0331 31.1323 27.8414C30.8751 27.6663 31.0244 27.3995 31.1945 27.2911C31.3646 27.1828 31.9579 26.8034 32.3561 26.0364C32.7336 25.3069 32.6382 24.7608 32.7668 24.369C32.8954 23.9813 33.2854 24.0021 33.4098 24.0021C33.5384 24.0021 39.504 24.0021 39.504 24.0021C39.504 24.0021 39.5662 24.073 39.4045 24.3857C39.2427 24.6983 38.9025 24.7275 38.9025 24.7275H33.4223C33.4264 24.7983 33.4223 24.8692 33.4181 24.9401C34.3557 24.9401 38.583 24.9401 38.583 24.9401C38.583 24.9401 38.6453 25.0068 38.4835 25.3236C38.3217 25.6362 37.9815 25.6654 37.9815 25.6654H33.302C33.2812 25.7321 33.2646 25.7946 33.2398 25.8572C34.2064 25.8572 36.8075 25.8488 36.8075 25.8488Z" fill="#9FC3D3"/>
<defs>
<linearGradient id="paint0_linear_1132_5795" x1="16.0617" y1="31.0332" x2="39.0687" y2="16.7011" gradientUnits="userSpaceOnUse">
<stop offset="0.2033" stop-color="white"/>
<stop offset="0.3034" stop-color="#E6E6E6"/>
<stop offset="0.5169" stop-color="#A5A5A5"/>
<stop offset="0.8241" stop-color="#3E3E3E"/>
<stop offset="1"/>
</linearGradient>
<linearGradient id="paint1_linear_1132_5795" x1="11.9884" y1="46.1098" x2="34.0844" y2="28.3661" gradientUnits="userSpaceOnUse">
<stop offset="0.1813" stop-color="white"/>
<stop offset="0.2558" stop-color="#F9F9F9"/>
<stop offset="0.359" stop-color="#E7E7E7"/>
<stop offset="0.4789" stop-color="#C9C9C9"/>
<stop offset="0.6115" stop-color="#A0A0A0"/>
<stop offset="0.7545" stop-color="#6C6C6C"/>
<stop offset="0.9038" stop-color="#2D2D2D"/>
<stop offset="1"/>
</linearGradient>
<linearGradient id="paint2_linear_1132_5795" x1="11.0745" y1="45.0599" x2="20.4178" y2="38.923" gradientUnits="userSpaceOnUse">
<stop offset="0.1813" stop-color="white"/>
<stop offset="0.2692" stop-color="#FAFAFA"/>
<stop offset="0.3705" stop-color="#ECECEC"/>
<stop offset="0.4784" stop-color="#D5D5D5"/>
<stop offset="0.5911" stop-color="#B5B5B5"/>
<stop offset="0.7073" stop-color="#8B8B8B"/>
<stop offset="0.8267" stop-color="#585858"/>
<stop offset="0.9463" stop-color="#1D1D1D"/>
<stop offset="1"/>
</linearGradient>
</defs>
</svg>
