<svg width="60" height="60" viewBox="0 0 60 60" fill="none" xmlns="http://www.w3.org/2000/svg">
<rect width="60" height="60" rx="10" fill="#2E2E48"/>
<path opacity="0.78" d="M50 40.9091C50 41.2884 49.7303 41.7595 49.4026 41.9471L30.5974 52.8562C30.2696 53.0479 29.7303 53.0479 29.4026 52.8562L10.5974 41.9471C10.2697 41.7553 10 41.2884 10 40.9091V19.0909C10 18.7116 10.2697 18.2405 10.5974 18.0529L29.4026 7.14382C29.7303 6.95206 30.2696 6.95206 30.5974 7.14382L49.4026 18.0529C49.7303 18.2447 50 18.7116 50 19.0909V40.9091Z" fill="white"/>
<path d="M49.51 40.6431C49.51 41.0141 49.2486 41.4685 48.9292 41.6561L30.5844 52.2984C30.265 52.486 29.7381 52.486 29.4187 52.2984L11.074 41.6561C10.7545 41.4685 10.4932 41.0141 10.4932 40.6431V19.3585C10.4932 18.9875 10.7545 18.5289 11.074 18.3455L29.4187 7.70319C29.7381 7.5156 30.2608 7.5156 30.5844 7.70319L48.9292 18.3455C49.2486 18.5331 49.51 18.9875 49.51 19.3585V40.6431Z" fill="#2E2E48"/>
<mask id="mask0_1132_5408" style="mask-type:luminance" maskUnits="userSpaceOnUse" x="10" y="7" width="40" height="46">
<path d="M49.5725 40.7037C49.5725 41.0747 49.3111 41.529 48.9917 41.7166L30.6469 52.3589C30.3275 52.5465 29.8006 52.5465 29.4812 52.3589L11.1365 41.7166C10.817 41.529 10.5557 41.0747 10.5557 40.7037V19.419C10.5557 19.048 10.817 18.5936 11.1365 18.4061L29.4812 7.76374C29.8006 7.57615 30.3233 7.57615 30.6469 7.76374L48.9917 18.4061C49.3111 18.5936 49.5725 19.048 49.5725 19.419V40.7037Z" fill="white"/>
</mask>
<g mask="url(#mask0_1132_5408)">
<path opacity="0.5" d="M21.1591 22.1379L26.5646 18.2695L32.526 21.4501L37.3715 18.6447L39.3586 24.5724L46.8716 36.4903L17.9938 51.9681L8.55176 41.2966L8.67621 24.168L16.9608 19.4701L21.1591 22.1379Z" fill="url(#paint0_linear_1132_5408)"/>
</g>
<mask id="mask1_1132_5408" style="mask-type:luminance" maskUnits="userSpaceOnUse" x="10" y="7" width="40" height="46">
<path d="M49.5725 40.7037C49.5725 41.0747 49.3111 41.529 48.9917 41.7166L30.6469 52.3589C30.3275 52.5465 29.8006 52.5465 29.4812 52.3589L11.1365 41.7166C10.817 41.529 10.5557 41.0747 10.5557 40.7037V19.419C10.5557 19.048 10.817 18.5936 11.1365 18.4061L29.4812 7.76374C29.8006 7.57615 30.3233 7.57615 30.6469 7.76374L48.9917 18.4061C49.3111 18.5936 49.5725 19.048 49.5725 19.419V40.7037Z" fill="white"/>
</mask>
<g mask="url(#mask1_1132_5408)">
<path opacity="0.5" d="M26.378 50.7216L20.6945 53.9022L8.11621 43.2307L16.5336 38.0742L26.378 50.7216Z" fill="url(#paint1_linear_1132_5408)"/>
</g>
<path d="M22.3042 21.3418L24.3494 30.0374L20.1677 29.237L20.1221 24.835L22.3042 21.3418Z" fill="#205F89"/>
<path d="M16.082 21.9805L14.3105 29.9257L18.5337 32.456L18.2599 23.0101L16.082 21.9805Z" fill="#0A3960"/>
<path d="M25.4412 31.0635V30.9968C25.1342 28.9417 23.8855 29.2168 20.8073 27.7578L17.9655 27.8037C15.1487 29.0584 13.4229 29.5169 13.3773 31.3428L13.0371 34.4233H25.7357L25.4412 31.0635Z" fill="white"/>
<path d="M17.8866 26.5371C17.8534 27.0832 17.5132 28.2129 17.0029 28.5922C17.5464 29.551 18.7743 30.5764 19.3178 30.6473C19.2846 28.5589 19.3178 26.5371 19.3178 26.5371H17.8866Z" fill="#CDE3E8"/>
<path d="M20.7164 26.5371C20.7496 27.0832 21.0898 28.2129 21.6042 28.5922C21.0566 29.551 19.8328 30.5764 19.2852 30.6473C19.3183 28.5589 19.2852 26.5371 19.2852 26.5371H20.7164Z" fill="white"/>
<path opacity="0.4" d="M20.8644 26.7145L16.9482 31.7459L14.708 29.9826L18.6201 24.9512L20.8644 26.7145Z" fill="url(#paint2_linear_1132_5408)"/>
<path d="M16.8287 21.1672C16.5217 21.7383 16.6752 22.4886 16.7167 23.2556C16.5258 23.3057 16.418 23.4432 16.418 23.8101C16.418 24.3561 16.6627 25.219 17.0444 25.3399C17.0942 25.4733 17.1481 25.6025 17.2062 25.7276C17.2103 25.7359 17.2145 25.7443 17.2186 25.7484C17.3514 26.0152 17.4966 26.257 17.6584 26.4738C17.7372 26.578 17.816 26.6738 17.899 26.7656C18.3221 27.2283 18.8158 27.5076 19.3468 27.5534V19.7207C18.4507 19.7249 17.3265 20.2459 16.8287 21.1672Z" fill="#CDE3E8"/>
<path d="M19.3135 19.7207V27.5534C19.8445 27.5076 20.3382 27.2241 20.7572 26.7656C20.8401 26.6738 20.919 26.578 20.9978 26.4738C21.1554 26.257 21.3048 26.0152 21.4375 25.7484C21.4417 25.7443 21.4458 25.7359 21.45 25.7276C21.508 25.6025 21.562 25.4733 21.6117 25.3399C21.9934 25.219 22.2382 24.3561 22.2382 23.8101C22.2382 23.4432 22.1262 23.3057 21.9395 23.2556C21.9768 22.4886 22.1345 21.7383 21.8275 21.1672C21.3297 20.2459 20.2013 19.7249 19.3135 19.7207Z" fill="white"/>
<path d="M19.3172 19.548C18.7032 19.3437 17.3259 19.5688 16.7285 20.3358C15.8449 21.4655 15.8781 23.6415 15.8781 23.6415L17.0023 23.4873C17.0023 23.4873 17.3301 22.095 18.558 21.6156C19.4831 21.2529 19.3172 19.548 19.3172 19.548Z" fill="#0A3960"/>
<path d="M18.0562 20.6127C18.2595 21.6382 20.284 21.7757 20.9643 22.1176C21.6447 22.4594 21.6364 23.4515 21.6364 23.4515L22.2172 23.2806C22.2172 23.2806 22.8975 21.2922 21.6364 20.1667C20.4084 19.0704 19.0809 19.5164 18.5375 19.654C17.9899 19.7873 18.0562 20.6127 18.0562 20.6127Z" fill="#205F89"/>
<path d="M21.6578 19.4065C20.8281 18.8646 20.0357 18.6603 19.3305 18.627H19.2558C18.5547 18.6603 17.7582 18.8646 16.9326 19.4065C17.3226 20.4444 17.5964 21.0947 17.5964 21.0947C18.1938 20.8821 18.7331 20.7863 19.2931 20.7946C19.8573 20.7863 20.3925 20.8821 20.9899 21.0947C20.9899 21.0906 21.2678 20.4444 21.6578 19.4065Z" fill="white"/>
<path d="M19.9435 19.4538H19.5992C19.5909 19.4538 19.5867 19.4497 19.5867 19.4413V19.0953C19.5867 19.0828 19.5743 19.0703 19.5619 19.0703H19.1097C19.0972 19.0703 19.0848 19.0828 19.0848 19.0953V19.4413C19.0848 19.4497 19.0806 19.4538 19.0723 19.4538H18.728C18.7156 19.4538 18.7031 19.4663 18.7031 19.4788V19.9332C18.7031 19.9457 18.7156 19.9582 18.728 19.9582H19.0723C19.0806 19.9582 19.0848 19.9624 19.0848 19.9707V20.3167C19.0848 20.3292 19.0972 20.3417 19.1097 20.3417H19.5619C19.5743 20.3417 19.5867 20.3292 19.5867 20.3167V19.9707C19.5867 19.9624 19.5909 19.9582 19.5992 19.9582H19.9435C19.956 19.9582 19.9684 19.9457 19.9684 19.9332V19.4788C19.9684 19.4622 19.956 19.4538 19.9435 19.4538Z" fill="#0A3960"/>
<path d="M46.4408 32.9096V32.8387C46.1255 30.742 45.5987 30.4335 42.4624 28.9453L38.3637 29.0329C35.2232 30.1 34.4184 30.8128 34.1405 33.1889L33.792 36.332H46.7437L46.4408 32.9096Z" fill="white"/>
<path d="M38.5878 27.9492L38.3057 28.9997L40.2472 30.5712L40.1849 28.1243L38.5878 27.9492Z" fill="#CDE3E8"/>
<path d="M41.811 27.9883L42.089 29.0346L40.1475 30.6061L40.2097 28.1634L41.811 27.9883Z" fill="white"/>
<path d="M38.4047 28.633C38.5956 28.8789 39.6742 29.6668 40.2591 29.6042C40.8441 29.5417 41.8107 29.0206 42.0015 28.5996C42.1633 28.7747 42.715 29.0498 42.715 29.0498L40.143 31.6552L37.7451 29.2791L38.4047 28.633Z" fill="#CDE3E8"/>
<path opacity="0.4" d="M41.8356 28.2458L38.857 32.0725L36.8076 30.4676L39.7862 26.6367L41.8356 28.2458Z" fill="url(#paint3_linear_1132_5408)"/>
<path d="M38.3711 27.9727C38.4499 28.0769 38.5329 28.1769 38.6159 28.2686C38.6159 28.2686 38.6159 28.2645 38.6159 28.2603C38.5329 28.1769 38.4499 28.0769 38.3711 27.9727Z" fill="white"/>
<path d="M43.3329 25.2962C43.3329 24.9419 43.2292 24.8001 43.0591 24.7418C43.1006 24.0164 43.2043 23.2494 42.9388 22.72C42.4368 21.7071 41.0512 21.0859 40.1053 21.0859C39.1968 21.0859 38.0394 21.6195 37.5333 22.5616C37.2221 23.1452 37.3798 23.9081 37.4213 24.6917C37.2263 24.7418 37.1143 24.8835 37.1143 25.2587C37.1143 25.8173 37.3632 26.6968 37.7531 26.8219C37.8029 26.9594 37.8568 27.0887 37.9191 27.2179C37.9232 27.2262 37.9274 27.2346 37.9315 27.2387C38.0643 27.5097 38.2178 27.7598 38.3796 27.9766C38.4584 28.0808 38.5414 28.1767 38.6243 28.2684C38.6243 28.2725 38.6243 28.2725 38.6243 28.2767C39.0973 28.7936 39.6532 29.0896 40.2547 29.0896C41.1715 29.0896 41.9929 28.3934 42.5488 27.2929C42.5903 27.2095 42.6401 27.1387 42.694 27.072C42.7272 26.9886 42.7604 26.9094 42.7853 26.826C43.1172 26.6093 43.3329 25.8131 43.3329 25.2962Z" fill="#CDE3E8"/>
<path d="M42.5397 27.2887C42.5812 27.2054 42.631 27.1345 42.6849 27.0678C42.7181 26.9844 42.7513 26.9052 42.7762 26.8219C43.1205 26.6093 43.3321 25.8131 43.3321 25.2962C43.3321 24.9419 43.2283 24.8001 43.0583 24.7418C43.0997 24.0164 43.2034 23.2494 42.9379 22.72C42.4401 21.7196 41.0836 21.0984 40.1377 21.0859V29.0771C40.175 29.0771 40.2082 29.0854 40.2456 29.0854C41.1624 29.0854 41.9838 28.3892 42.5397 27.2887Z" fill="white"/>
<path d="M41.9191 22.3996C41.9772 22.8664 41.106 22.8456 40.5293 22.7497C39.9485 22.6538 39.6084 22.7664 39.069 22.9248C38.5214 23.0832 37.9863 23.6501 37.9116 23.9336C37.866 24.1045 37.9033 24.9257 37.9033 24.9257L37.4179 24.6964C37.4179 24.6964 37.2603 23.5584 37.4345 22.7914C37.6005 22.0536 37.9614 21.3991 39.3304 21.1031C40.5708 20.8322 41.4461 20.9989 41.4835 21.3074C41.5789 21.3282 41.6577 21.249 41.7739 21.249C42.0643 21.249 42.4999 21.6034 42.7529 22.0119C43.0018 22.4204 43.3586 23.1499 43.1844 24.413C43.147 24.7423 43.0765 24.8298 43.0765 24.8298L42.67 25.0633C42.67 25.0633 42.8483 23.4709 42.1929 23.004C41.9855 22.8539 41.9191 22.3996 41.9191 22.3996Z" fill="#0A3960"/>
<path d="M42.1874 22.9857C42.8429 23.4526 42.6645 25.0408 42.6645 25.0408L43.0669 24.8073C43.0669 24.8073 43.1333 24.7198 43.1748 24.3905C43.349 23.1274 43.1084 22.3813 42.8553 21.9727C42.6023 21.5642 42.0547 21.2266 41.7643 21.2266C41.7062 21.2266 41.5486 21.2682 41.5029 21.2849C41.6274 21.6976 41.9136 22.2854 41.9095 22.3813C41.9095 22.3813 41.98 22.8356 42.1874 22.9857Z" fill="#205F89"/>
<path d="M41.9106 22.3809C41.9106 22.41 41.9065 22.4476 41.9023 22.4892C41.9106 22.4559 41.9148 22.4225 41.9106 22.3809Z" fill="#205F89"/>
<path d="M43.1419 18.5173C43.1419 18.3213 41.8766 18.0879 40.2919 18.0879C38.7072 18.0879 37.4004 18.3213 37.4004 18.5173V22.8984C37.4004 22.8984 37.446 22.8901 37.446 22.8859C37.446 22.7358 38.7155 22.5274 40.3002 22.5274C41.719 22.5274 42.9138 22.7108 43.1419 22.84V18.5173Z" fill="white"/>
<path d="M37.4004 18.5175V22.8987C37.4004 22.8987 37.446 22.8903 37.446 22.8862C37.446 22.7361 38.7155 22.5277 40.3002 22.5277C40.3085 22.5277 40.3168 22.5277 40.3251 22.5277V18.084C40.3127 18.084 40.3044 18.084 40.2919 18.084C38.7072 18.0882 37.4004 18.3216 37.4004 18.5175Z" fill="#CDE3E8"/>
<path d="M41.2538 19.9951H40.7103C40.6979 19.9951 40.6896 19.9867 40.6896 19.9742V19.4281C40.6896 19.4073 40.673 19.3906 40.6522 19.3906H39.9387C39.9179 19.3906 39.9013 19.4073 39.9013 19.4281V19.9742C39.9013 19.9867 39.893 19.9951 39.8806 19.9951H39.3371C39.3164 19.9951 39.2998 20.0117 39.2998 20.0368V20.7537C39.2998 20.7746 39.3164 20.7913 39.3371 20.7913H39.8806C39.893 20.7913 39.9013 20.7996 39.9013 20.8121V21.3582C39.9013 21.379 39.9179 21.3957 39.9387 21.3957H40.6522C40.673 21.3957 40.6896 21.379 40.6896 21.3582V20.8121C40.6896 20.7996 40.6979 20.7913 40.7103 20.7913H41.2538C41.2786 20.7913 41.2952 20.7746 41.2952 20.7537V20.0368C41.2952 20.0117 41.2786 19.9951 41.2538 19.9951Z" fill="#0A3960"/>
<path opacity="0.5" d="M27.8671 37.5532L17.3423 44.3855L10.9121 38.0493L24.0173 30.4375L27.8671 37.5532Z" fill="url(#paint4_linear_1132_5408)"/>
<path d="M39.3137 34.8397V34.7355C38.8449 31.5882 38.0525 31.1213 33.3315 28.8828L27.1668 29.012C22.4458 30.6211 21.2386 31.6882 20.8196 35.2565L20.2969 39.9795H39.7617L39.3137 34.8397Z" fill="white"/>
<path d="M27.5066 27.3906L27.0918 28.9622L30.0041 31.3216L29.9128 27.6491L27.5066 27.3906Z" fill="#CDE3E8"/>
<path d="M32.3517 27.4395L32.7707 29.0152L29.8584 31.3746L29.9497 27.7021L32.3517 27.4395Z" fill="white"/>
<path d="M27.2661 28.1262C27.5565 28.493 29.0749 29.6769 29.9544 29.5852C30.8297 29.4935 32.2859 28.7056 32.5763 28.0762C32.8169 28.3388 33.7254 29.0474 33.7254 29.0474L29.859 38.1015L26.2539 29.3893L27.2661 28.1262Z" fill="#FF7C24"/>
<path d="M27.1914 27.4219C27.3076 27.5803 27.432 27.7304 27.5565 27.8679C27.5565 27.8679 27.5565 27.8637 27.5606 27.8596C27.432 27.722 27.3076 27.5761 27.1914 27.4219Z" fill="white"/>
<path d="M34.6467 23.4004C34.6467 22.8668 34.4932 22.6542 34.2318 22.5667C34.294 21.4787 34.4517 20.3282 34.0534 19.5278C33.2984 18.0063 31.2158 17.0684 29.7929 17.0684C28.428 17.0684 26.6898 17.8729 25.9265 19.2902C25.4577 20.1656 25.6942 21.3161 25.7564 22.4917C25.466 22.5667 25.2959 22.7751 25.2959 23.342C25.2959 24.1799 25.6693 25.5013 26.2542 25.6889C26.3289 25.8932 26.4119 26.0891 26.5031 26.2809C26.5073 26.2934 26.5156 26.3017 26.5197 26.3142C26.723 26.7227 26.947 27.0937 27.1918 27.423C27.3121 27.5773 27.4324 27.7232 27.561 27.8607C27.561 27.8649 27.561 27.8691 27.5568 27.8691C28.2662 28.6444 29.1042 29.0946 30.0045 29.0946C31.3818 29.0946 32.6139 28.0483 33.4519 26.3976C33.5141 26.2725 33.5888 26.1641 33.6676 26.0683C33.7174 25.9432 33.763 25.8223 33.8045 25.6973C34.3231 25.368 34.6467 24.1757 34.6467 23.4004Z" fill="#CDE3E8"/>
<path d="M33.4522 26.3929C33.5144 26.2678 33.5891 26.1595 33.6679 26.0636C33.7177 25.9427 33.7634 25.8176 33.8048 25.6926C34.3193 25.3716 34.6428 24.1794 34.6428 23.404C34.6428 22.8705 34.4893 22.6579 34.228 22.5703C34.2902 21.4823 34.4479 20.3318 34.0496 19.5315C33.3029 18.0266 31.2618 17.097 29.8389 17.0762V29.0858C29.8928 29.0899 29.9467 29.0941 30.0048 29.0941C31.3821 29.0899 32.6142 28.0436 33.4522 26.3929Z" fill="white"/>
<path d="M32.5185 19.0437C32.6057 19.7441 31.2989 19.7107 30.4277 19.569C29.5565 19.4231 29.0462 19.5982 28.2331 19.8316C27.4117 20.0692 26.6069 20.9196 26.4908 21.3489C26.4202 21.6032 26.4825 22.8371 26.4825 22.8371L25.7523 22.4953C25.7523 22.4953 25.4163 20.6945 25.6777 19.544C25.9307 18.4351 26.5696 17.5431 28.6272 17.0928C30.4941 16.6885 31.805 16.9344 31.8631 17.3972C32.0083 17.4263 32.1244 17.3096 32.2987 17.3096C32.7343 17.3096 33.5598 17.8182 33.9373 18.431C34.3149 19.0437 34.6758 20.1651 34.4144 22.0618C34.3563 22.5578 34.2568 22.687 34.2568 22.687L33.6469 23.0372C33.6469 23.0372 33.9166 20.6445 32.9292 19.9441C32.6223 19.7232 32.5185 19.0437 32.5185 19.0437Z" fill="#0A3960"/>
<path d="M32.9253 19.9199C33.9127 20.6203 33.643 23.0088 33.643 23.0088L34.2487 22.6587C34.2487 22.6587 34.3483 22.5253 34.4063 22.0334C34.6677 20.1367 34.3068 19.0154 33.9293 18.4026C33.5517 17.7898 32.7262 17.2812 32.2906 17.2812C32.2035 17.2812 31.967 17.3438 31.8965 17.3688C32.0832 17.9857 32.5146 18.8736 32.5105 19.0195C32.5105 19.0154 32.61 19.699 32.9253 19.9199Z" fill="#205F89"/>
<path d="M32.5095 19.0156C32.5095 19.0573 32.5012 19.1198 32.4971 19.1782C32.5095 19.1282 32.5137 19.0782 32.5095 19.0156Z" fill="#205F89"/>
<mask id="mask2_1132_5408" style="mask-type:luminance" maskUnits="userSpaceOnUse" x="26" y="28" width="8" height="11">
<path d="M27.2166 28.177C27.507 28.5438 29.0253 29.7277 29.9007 29.636C30.7802 29.5401 32.2321 28.7564 32.5225 28.127C32.7632 28.3896 33.6717 29.0982 33.6717 29.0982L29.8053 38.1523L26.2002 29.4401L27.2166 28.177Z" fill="white"/>
</mask>
<g mask="url(#mask2_1132_5408)">
<path d="M30.4953 32.0044H29.8564V30.3203H31.1259L31.1342 31.0456L30.4953 32.0044Z" fill="#2E2E48"/>
<path d="M30.5741 31.7461L31.6901 42.3676L29.927 43.7599L29.8896 43.7223L29.8232 31.7544L30.5741 31.7461Z" fill="#2E2E48"/>
<path d="M29.3681 32.0044H29.9032V30.3203H28.6006L28.613 31.0456L29.3681 32.0044Z" fill="#006E99"/>
<path d="M29.2761 31.7461L28.1602 42.3676L29.9274 43.7599L29.9025 31.7461H29.2761Z" fill="#006E99"/>
<path d="M30.5988 31.9864H29.2588V31.8613H30.5863L30.5988 31.9864Z" fill="#006E99"/>
</g>
<path d="M25.0481 37.084C24.82 37.1715 24.7246 37.2299 24.6789 37.2799C24.6416 37.3216 24.5462 37.455 24.5462 37.7426C24.5462 37.951 24.5088 39.285 24.8407 40.1437C24.8739 40.2104 24.9361 40.1854 24.9693 40.1354C25.015 40.0728 25.0813 39.6101 25.0357 39.5726C24.9901 39.5351 24.8905 39.4976 24.8449 39.4142C24.7992 39.335 24.8573 37.926 24.8822 37.8552C24.9071 37.7843 24.9942 37.7968 25.0523 37.8051C25.0108 37.4842 25.0481 37.084 25.0481 37.084Z" fill="#006E99"/>
<path d="M26.2919 37.9219H16.5968C16.5014 37.9219 16.4268 37.9969 16.4268 38.0928V50.7235C16.4268 50.8152 16.5014 50.8944 16.5968 50.8944H26.2919C26.3873 50.8944 26.462 50.8194 26.462 50.7235V38.0928C26.462 37.9969 26.3873 37.9219 26.2919 37.9219Z" fill="#0A3960"/>
<path d="M25.1639 48.0512C25.1597 48.0554 24.077 49.2142 24.0894 49.2142H17.85C17.7795 49.2142 17.7256 49.1601 17.7256 49.0892V39.7266C17.7256 39.6558 17.7795 39.6016 17.85 39.6016H25.0394C25.1099 39.6016 25.1639 39.6558 25.1639 39.7266V48.0512Z" fill="white"/>
<path d="M23.1924 37.6172H19.6994C19.6123 37.6172 19.5459 37.6881 19.5459 37.7714C19.5459 37.859 19.6164 37.9257 19.6994 37.9257H19.969C19.9317 37.984 19.911 38.0507 19.911 38.1258C19.911 38.33 20.0728 38.4926 20.276 38.4926H22.6158C22.8191 38.4926 22.9809 38.3258 22.9809 38.1258C22.9809 38.0507 22.9601 37.984 22.9228 37.9257H23.1924C23.2796 37.9257 23.3459 37.8548 23.3459 37.7714C23.3459 37.6881 23.2796 37.6172 23.1924 37.6172Z" fill="#ADADAD"/>
<path d="M24.0811 40.9902H18.8125V41.207H24.0811V40.9902Z" fill="#CDE3E8"/>
<path d="M24.0811 41.916H18.8125V42.1328H24.0811V41.916Z" fill="#CDE3E8"/>
<path d="M24.0811 42.9023H18.8125V43.1191H24.0811V42.9023Z" fill="#CDE3E8"/>
<path d="M24.0811 43.8242H18.8125V44.041H24.0811V43.8242Z" fill="#CDE3E8"/>
<path d="M24.0811 44.8125H18.8125V45.0293H24.0811V44.8125Z" fill="#CDE3E8"/>
<path d="M24.0811 45.7383H18.8125V45.9509H24.0811V45.7383Z" fill="#CDE3E8"/>
<path d="M24.0811 46.7266H18.8125V46.9433H24.0811V46.7266Z" fill="#CDE3E8"/>
<path d="M24.2135 48.0469H25.1718L24.0891 49.2182V48.1761C24.0849 48.1052 24.143 48.0469 24.2135 48.0469Z" fill="#ADADAD"/>
<path d="M25.6056 46.3284C25.6056 46.3284 25.5268 46.516 25.4895 46.516C25.4521 46.516 25.3691 46.3242 25.3691 46.3242L25.6056 46.3284Z" fill="#CDE3E8"/>
<path d="M25.6063 46.3339C25.7017 46.1213 25.7763 45.4669 25.7888 45.3418L25.1914 45.346C25.1997 45.5461 25.32 46.2047 25.3698 46.3381C25.5067 46.3339 25.5897 46.3339 25.6063 46.3339Z" fill="white"/>
<path d="M25.7845 45.3609C25.8468 45.0566 25.9671 40.6504 25.9671 40.6504H24.9756C24.9756 40.6504 25.1374 45.0566 25.1996 45.365C25.5522 45.3692 25.7223 45.3609 25.7845 45.3609Z" fill="#CDE3E8"/>
<path d="M25.4732 37.1248L25.9752 37.0914C25.9752 37.0498 26.0125 36.4536 25.4774 36.4453C25.4774 36.4453 25.4774 36.4453 25.4732 36.4453C25.4732 36.4453 25.4732 36.4453 25.4691 36.4453C24.9339 36.4536 24.9713 37.0498 24.9713 37.0914L25.4732 37.1248C25.4691 37.1248 25.4691 37.1248 25.4732 37.1248Z" fill="#006E99"/>
<path d="M25.4697 40.5146L25.6108 40.5313V40.5021L25.9759 40.4896C25.9759 40.4604 26.0049 37.1548 25.9717 36.9964C25.7394 36.9922 25.5776 36.9922 25.4739 36.9922C25.3702 36.9922 25.2042 36.9922 24.9761 36.9964C24.9387 37.1548 24.9926 40.4312 24.9926 40.4604L25.337 40.5021V40.5313L25.4697 40.5146Z" fill="#CDE3E8"/>
<path d="M24.967 40.698C24.9546 40.698 24.9463 40.6897 24.9463 40.6772V40.4271C24.9463 40.4146 24.9546 40.4062 24.967 40.4062H26.0042C26.0166 40.4062 26.0249 40.4146 26.0249 40.4271V40.6772C26.0249 40.6897 26.0166 40.698 26.0042 40.698H24.967Z" fill="#006E99"/>
<defs>
<linearGradient id="paint0_linear_1132_5408" x1="12.3992" y1="46.7703" x2="37.997" y2="19.2253" gradientUnits="userSpaceOnUse">
<stop offset="0.1813" stop-color="white"/>
<stop offset="0.2558" stop-color="#F9F9F9"/>
<stop offset="0.359" stop-color="#E7E7E7"/>
<stop offset="0.4789" stop-color="#C9C9C9"/>
<stop offset="0.6115" stop-color="#A0A0A0"/>
<stop offset="0.7545" stop-color="#6C6C6C"/>
<stop offset="0.9038" stop-color="#2D2D2D"/>
<stop offset="1"/>
</linearGradient>
<linearGradient id="paint1_linear_1132_5408" x1="14.1261" y1="50.7138" x2="21.7607" y2="44.5833" gradientUnits="userSpaceOnUse">
<stop offset="0.3846" stop-color="white"/>
<stop offset="0.462" stop-color="#E6E6E6"/>
<stop offset="0.6269" stop-color="#A5A5A5"/>
<stop offset="0.8641" stop-color="#3E3E3E"/>
<stop offset="1"/>
</linearGradient>
<linearGradient id="paint2_linear_1132_5408" x1="19.2034" y1="31.9126" x2="19.7153" y2="25.0347" gradientUnits="userSpaceOnUse">
<stop offset="0.1044" stop-color="white"/>
<stop offset="0.206" stop-color="#FBFBFB"/>
<stop offset="0.2967" stop-color="#F1F1F1"/>
<stop offset="0.3832" stop-color="#DEDEDE"/>
<stop offset="0.4673" stop-color="#C5C5C5"/>
<stop offset="0.5494" stop-color="#A4A4A4"/>
<stop offset="0.6302" stop-color="#7B7B7B"/>
<stop offset="0.71" stop-color="#4B4B4B"/>
<stop offset="0.7869" stop-color="#141414"/>
<stop offset="0.8132"/>
</linearGradient>
<linearGradient id="paint3_linear_1132_5408" x1="40.7963" y1="32.3785" x2="41.6502" y2="26.9295" gradientUnits="userSpaceOnUse">
<stop offset="0.1044" stop-color="white"/>
<stop offset="0.206" stop-color="#FBFBFB"/>
<stop offset="0.2967" stop-color="#F1F1F1"/>
<stop offset="0.3832" stop-color="#DEDEDE"/>
<stop offset="0.4673" stop-color="#C5C5C5"/>
<stop offset="0.5494" stop-color="#A4A4A4"/>
<stop offset="0.6302" stop-color="#7B7B7B"/>
<stop offset="0.71" stop-color="#4B4B4B"/>
<stop offset="0.7869" stop-color="#141414"/>
<stop offset="0.8132"/>
</linearGradient>
<linearGradient id="paint4_linear_1132_5408" x1="10.8691" y1="44.7097" x2="28.1729" y2="30.8168" gradientUnits="userSpaceOnUse">
<stop offset="0.3846" stop-color="white"/>
<stop offset="0.462" stop-color="#E6E6E6"/>
<stop offset="0.6269" stop-color="#A5A5A5"/>
<stop offset="0.8641" stop-color="#3E3E3E"/>
<stop offset="1"/>
</linearGradient>
</defs>
</svg>
