<svg width="60" height="60" viewBox="0 0 60 60" fill="none" xmlns="http://www.w3.org/2000/svg">
<rect width="60" height="60" rx="10" fill="#0070CD"/>
<path opacity="0.78" d="M49.3265 41.4347C49.3265 41.8071 49.0614 42.2695 48.7392 42.4537L30.2506 53.163C29.9284 53.3513 29.3981 53.3513 29.0759 53.163L10.5873 42.4537C10.2651 42.2654 10 41.8071 10 41.4347V20.016C10 19.6436 10.2651 19.1812 10.5873 18.997L29.0759 8.28767C29.3981 8.09942 29.9243 8.09942 30.2506 8.28767L48.7392 18.997C49.0614 19.1853 49.3265 19.6436 49.3265 20.016V41.4347Z" fill="white"/>
<path d="M48.8452 41.1741C48.8452 41.5383 48.5882 41.9885 48.2742 42.1685L30.2383 52.616C29.9243 52.796 29.4063 52.796 29.0922 52.616L11.0564 42.1685C10.7423 41.9844 10.4854 41.5383 10.4854 41.1741V20.2792C10.4854 19.915 10.7423 19.4648 11.0564 19.2848L29.0922 8.83733C29.4063 8.65318 29.9202 8.65318 30.2383 8.83733L48.2742 19.2848C48.5882 19.4689 48.8452 19.915 48.8452 20.2792V41.1741Z" fill="#0070CD"/>
<path d="M30.8995 12.1836H28.4482V16.6646H30.8995V12.1836Z" fill="#0A3960"/>
<mask id="mask0_1132_5938" style="mask-type:luminance" maskUnits="userSpaceOnUse" x="10" y="8" width="39" height="45">
<path d="M48.8891 41.1311C48.8891 41.4953 48.6322 41.9455 48.3181 42.1255L30.2823 52.573C29.9682 52.7572 29.4502 52.7572 29.1362 52.573L11.1003 42.1255C10.7863 41.9414 10.5293 41.4953 10.5293 41.1311V20.2362C10.5293 19.872 10.7863 19.4219 11.1003 19.2418L29.1362 8.79436C29.4502 8.61021 29.9682 8.61021 30.2823 8.79436L48.3181 19.2418C48.6322 19.426 48.8891 19.872 48.8891 20.2362V41.1311Z" fill="white"/>
</mask>
<g mask="url(#mask0_1132_5938)">
<path opacity="0.5" d="M50.032 34.6246L24.2548 51.4478L9.71031 45.0885L9.35547 21.8119L15.555 17.9979L16.4238 17.5846L19.3115 17.5396L20.1802 18.2762L21.4773 17.4168L25.1277 17.6787L26.4981 18.4112L30.8337 15.5835L33.7826 13.6602L50.032 34.6246Z" fill="url(#paint0_linear_1132_5938)"/>
</g>
<path d="M47.6783 12.2695C47.3071 12.4087 47.1522 12.5028 47.0747 12.5887C47.0135 12.6542 46.8585 12.8711 46.8585 13.3499C46.8585 13.6895 46.7973 15.8789 47.3438 17.2825C47.3969 17.393 47.5029 17.3521 47.5559 17.2702C47.6253 17.1638 47.7436 16.4109 47.6661 16.3495C47.5886 16.2881 47.4295 16.2226 47.3561 16.0917C47.2827 15.9607 47.3724 13.6527 47.4173 13.5381C47.4581 13.4194 47.5967 13.4399 47.6987 13.4563C47.6212 12.9202 47.6783 12.2695 47.6783 12.2695Z" fill="#0A3960"/>
<path d="M49.7221 13.6387H33.8193C33.6643 13.6387 33.542 13.7655 33.542 13.9169V34.6032C33.542 34.7587 33.6643 34.8814 33.8193 34.8814H49.7221C49.877 34.8814 49.9994 34.7587 49.9994 34.6032V13.9169C49.9994 13.7614 49.877 13.6387 49.7221 13.6387Z" fill="#FF7C24"/>
<path d="M47.8751 30.2309C47.871 30.235 46.0927 32.1379 46.1131 32.1379H35.8797C35.7655 32.1379 35.6758 32.0479 35.6758 31.9333V16.5874C35.6758 16.4728 35.7655 16.3828 35.8797 16.3828H47.6752C47.7894 16.3828 47.8792 16.4728 47.8792 16.5874V30.2309H47.8751Z" fill="white"/>
<path d="M44.6349 13.1387H38.9003C38.7617 13.1387 38.6475 13.2533 38.6475 13.3924C38.6475 13.5315 38.7617 13.6461 38.9003 13.6461H39.3449C39.2837 13.7402 39.247 13.8507 39.247 13.9694C39.247 14.3009 39.5162 14.571 39.8466 14.571H43.6846C44.015 14.571 44.2842 14.3009 44.2842 13.9694C44.2842 13.8507 44.2475 13.7402 44.1863 13.6461H44.6309C44.7695 13.6461 44.8837 13.5315 44.8837 13.3924C44.8919 13.2533 44.7777 13.1387 44.6349 13.1387Z" fill="#BC0202"/>
<path d="M46.096 18.668H37.4492V19.0205H46.096V18.668Z" fill="#CDE3E8"/>
<path d="M46.096 20.1758H37.4492V20.5283H46.096V20.1758Z" fill="#CDE3E8"/>
<path d="M46.096 21.793H37.4492V22.1455H46.096V21.793Z" fill="#CDE3E8"/>
<path d="M46.096 23.3086H37.4492V23.6611H46.096V23.3086Z" fill="#CDE3E8"/>
<path d="M46.096 24.9238H37.4492V25.2764H46.096V24.9238Z" fill="#CDE3E8"/>
<path d="M46.096 26.4375H37.4492V26.79H46.096V26.4375Z" fill="#CDE3E8"/>
<path d="M46.096 28.0547H37.4492V28.4072H46.096V28.0547Z" fill="#CDE3E8"/>
<path d="M46.3084 30.2246H47.8787L46.1045 32.1439V30.4333C46.1045 30.3187 46.1942 30.2246 46.3084 30.2246Z" fill="#9FC3D3"/>
<path d="M48.5956 27.4125C48.5956 27.4125 48.4692 27.7199 48.404 27.7199C48.3428 27.7199 48.2041 27.4043 48.2041 27.4043L48.5956 27.4125Z" fill="#0A3960"/>
<path d="M48.596 27.4197C48.751 27.0719 48.8774 25.9997 48.8938 25.791L47.9189 25.7951C47.9312 26.1225 48.131 27.1987 48.2126 27.4238C48.4369 27.4238 48.5675 27.4238 48.596 27.4197Z" fill="white"/>
<path d="M48.8892 25.8273C48.9912 25.324 49.187 18.1135 49.187 18.1135L47.5596 18.1094C47.5596 18.1094 47.8247 25.3322 47.9267 25.8314C48.5058 25.8437 48.7913 25.8314 48.8892 25.8273Z" fill="#0A3960"/>
<path d="M48.3754 12.3356H48.3795L49.1952 12.2824C49.1952 12.2128 49.2564 11.2429 48.3795 11.2266C48.3754 11.2266 48.3754 11.2266 48.3754 11.2266H48.3713C47.4944 11.2429 47.5556 12.2128 47.5556 12.2824L48.3713 12.3356H48.3754Z" fill="#FF7C24"/>
<path d="M48.3761 17.8842L48.6045 17.9088V17.8597L49.204 17.8392C49.204 17.7901 49.253 12.3761 49.1959 12.1142C48.8166 12.106 48.5474 12.106 48.3761 12.1101C48.2048 12.106 47.9356 12.106 47.5603 12.1142C47.5032 12.3761 47.5848 17.7451 47.5848 17.7942L48.1477 17.8597V17.9088L48.3761 17.8842Z" fill="#0A3960"/>
<path d="M47.5474 18.1884C47.5271 18.1884 47.5107 18.1761 47.5107 18.1556V17.7457C47.5107 17.7293 47.5271 17.7129 47.5474 17.7129H49.2483C49.2646 17.7129 49.2809 17.7293 49.2809 17.7457V18.1556C49.2809 18.1761 49.2646 18.1884 49.2483 18.1884H47.5474Z" fill="white"/>
<path opacity="0.5" d="M37.2541 26.4139C37.2541 24.6338 35.8184 23.1934 34.0442 23.1934C33.4447 23.1934 32.8532 23.4512 32.376 23.7376L26.0215 28.3987L28.4891 34.8808L34.6397 30.0601C36.2916 28.7301 37.2541 28.0263 37.2541 26.4139Z" fill="url(#paint1_linear_1132_5938)"/>
<path d="M31.5684 26.3904C31.5684 24.9704 32.7145 23.8164 34.1338 23.8164C35.5491 23.8164 36.6993 24.9704 36.6993 26.3904C36.6993 27.8104 35.5491 28.9644 34.1338 28.9644C32.7185 28.9644 31.5684 27.8145 31.5684 26.3904Z" fill="#205F89"/>
<path d="M35.3784 28.8223C36.0473 30.6392 36.8264 33.07 36.8304 35.6522C36.8304 36.9208 36.6428 38.2303 36.1534 39.5112C35.7945 40.4442 35.2235 41.2422 34.5178 41.8887C33.9672 43.0714 32.9883 44.0822 31.8015 44.8433C30.4065 45.7313 28.718 46.2756 27.0539 46.2756C26.2178 46.2756 25.3857 46.1365 24.6067 45.8337C22.4164 44.9825 21.2744 43.5256 20.7279 42.1138C20.1732 40.7061 20.2099 39.3679 20.1813 38.6232L21.3193 38.57C21.2377 39.3229 21.0419 40.5629 21.5273 41.7987C22.0167 43.0305 22.9426 44.25 24.9207 45.0316C25.5896 45.2935 26.3116 45.4162 27.058 45.4162C28.5344 45.4162 30.0843 44.9252 31.3446 44.119C31.7851 43.8366 32.193 43.5175 32.5478 43.1737C31.6465 43.5707 30.6757 43.7794 29.7336 43.7794C28.7139 43.7794 27.7105 43.5297 26.8663 42.9814C26.0179 42.433 25.3408 41.5777 24.9697 40.4319C24.7372 39.7199 24.6312 39.0406 24.6312 38.4063C24.6271 36.8676 25.2797 35.5867 26.2871 34.7233C27.2904 33.8557 28.6405 33.3933 30.0599 33.3933C30.48 33.3933 30.9041 33.4342 31.3324 33.5201C33.5063 33.9539 35.15 36.1269 35.146 38.9055C35.146 39.2002 35.1296 39.4989 35.0889 39.8017C35.1908 39.6135 35.2806 39.413 35.358 39.2083C35.8026 38.038 35.978 36.8389 35.978 35.6563C35.978 33.1928 35.2071 30.8111 34.5382 29.0105L35.3784 28.8223ZM26.8377 35.3698C26.0097 36.0901 25.4836 37.1008 25.4795 38.3981C25.4795 38.9342 25.5733 39.5234 25.7773 40.1577C26.0954 41.1317 26.6419 41.8028 27.3231 42.253C28.0083 42.699 28.8403 42.9118 29.7254 42.9118C31.1448 42.9159 32.6621 42.3471 33.8082 41.3608C33.8612 41.2381 33.906 41.1112 33.9468 40.9844C34.1752 40.2519 34.2772 39.548 34.2772 38.8932C34.2731 36.4461 32.8497 34.6782 31.157 34.3509C30.7859 34.2772 30.4147 34.2404 30.0517 34.2404C28.8159 34.2486 27.6657 34.6578 26.8377 35.3698Z" fill="#0A3960"/>
<path d="M34.1072 23.3359C32.4227 23.3359 31.0563 24.7068 31.0563 26.3969C31.0563 28.087 32.4227 29.4579 34.1072 29.4579C35.7917 29.4579 37.158 28.087 37.158 26.3969C37.158 24.7109 35.7917 23.3359 34.1072 23.3359ZM34.148 28.7213C32.8509 28.7213 31.8027 27.6655 31.8027 26.3683C31.8027 25.0669 32.8509 24.0152 34.148 24.0152C35.4409 24.0152 36.4932 25.0669 36.4932 26.3683C36.4891 27.6655 35.4409 28.7213 34.148 28.7213Z" fill="#CDE3E8"/>
<path d="M34.1754 24.4707C33.168 24.4707 32.3522 25.2932 32.3522 26.304C32.3522 27.3148 33.168 28.1373 34.1754 28.1373C35.1828 28.1373 36.0026 27.3148 36.0026 26.304C36.0026 25.2932 35.1828 24.4707 34.1754 24.4707ZM34.1754 27.5276C33.5024 27.5276 32.9559 26.9792 32.9559 26.304C32.9559 25.6288 33.5024 25.0804 34.1754 25.0804C34.8524 25.0804 35.399 25.6288 35.399 26.304C35.3949 26.9792 34.8484 27.5276 34.1754 27.5276Z" fill="white"/>
<path d="M35.2038 26.3008C35.2038 26.8696 34.7429 27.332 34.176 27.332C33.609 27.332 33.1481 26.8696 33.1481 26.3008C33.1481 25.732 33.609 25.2695 34.176 25.2695C34.7429 25.2695 35.2038 25.732 35.2038 26.3008Z" fill="white"/>
<path d="M16.2254 29.0301C16.1193 28.7313 15.6421 28.7927 15.2424 28.9605C14.9243 29.0955 15.0915 29.4597 15.1608 29.7626C15.2139 29.9958 15.895 32.578 16.4905 33.9039C17.0125 35.0661 18.2239 36.9731 20.9199 36.838C22.7716 36.7439 23.7913 36.0196 24.7008 33.9489C25.6185 31.8537 26.267 29.5088 26.2874 29.2879C26.3037 29.0873 26.2262 28.9523 25.9489 28.8909C25.6715 28.8336 25.4146 28.7722 25.333 28.9318C25.2474 29.0914 24.1257 33.1182 23.5139 34.129C22.9103 35.1234 22.2944 35.8436 20.8832 35.8272C19.5128 35.8109 18.0363 35.3935 17.1267 32.2384C16.364 29.6193 16.2254 29.0301 16.2254 29.0301Z" fill="#0A3960"/>
<path d="M15.7293 28.4508C15.2888 26.8917 14.6199 24.2972 14.6199 22.0219C14.6199 21.8787 14.624 21.7355 14.6281 21.5963C14.7382 18.9446 15.8843 18.0402 16.647 17.8806C16.9529 17.8151 17.3118 17.7905 17.6789 17.7905C18.2989 17.7905 18.9311 17.8601 19.3879 17.901L19.4327 17.5246C18.9841 17.4836 18.3356 17.4141 17.683 17.4141C17.2955 17.4141 16.9081 17.4386 16.5532 17.5164C15.5254 17.7373 14.3099 18.8545 14.2039 21.5881C14.1957 21.7314 14.1957 21.8787 14.1957 22.026C14.1957 24.3954 14.7504 26.7484 15.2725 28.5695L15.7293 28.4508Z" fill="white"/>
<path d="M18.8899 18.1561C18.8247 18.1274 18.7961 18.0047 18.8002 17.7959C18.8083 17.5832 18.8247 17.3131 18.9307 17.2721C19.0368 17.2312 19.4895 17.0593 19.8443 17.0798C20.1788 17.1003 20.5377 17.2435 20.5744 17.7059C20.603 18.0742 20.4602 18.463 19.8525 18.4712C19.2733 18.4753 18.8899 18.1561 18.8899 18.1561Z" fill="#0A3960"/>
<path d="M27.4337 21.6492C27.3929 18.9156 26.206 17.7738 25.1823 17.5365C24.8274 17.4546 24.4399 17.4219 24.0525 17.4137C23.3999 17.4014 22.7473 17.4628 22.2986 17.4915L22.3313 17.872C22.7881 17.8393 23.4203 17.782 24.0402 17.7943C24.4032 17.8025 24.7622 17.8311 25.0681 17.9048C25.8267 18.0767 26.9524 19.0056 26.9973 21.6574C27.0013 21.7965 26.9973 21.9356 26.9932 22.0788C26.9402 24.3787 26.1734 26.9486 25.688 28.4914C25.7859 28.5077 26.1122 28.5896 26.2182 28.606C26.6873 27.0264 27.3684 24.4196 27.4255 22.0829C27.4378 21.9356 27.4378 21.7883 27.4337 21.6492Z" fill="white"/>
<path d="M23.016 18.0989C23.0813 18.0662 23.1057 17.9475 23.0894 17.7347C23.0731 17.5219 23.0445 17.2518 22.9344 17.215C22.8243 17.1741 22.3634 17.0227 22.0126 17.0636C21.6782 17.1004 21.3274 17.2559 21.307 17.7183C21.2948 18.0866 21.4539 18.4713 22.0616 18.4509C22.6448 18.4345 23.016 18.0989 23.016 18.0989Z" fill="#0A3960"/>
<path d="M19.3091 37.1174C19.3499 37.2156 20.1942 39.2903 20.1942 39.2903H21.2424C21.2424 39.2903 22.0418 37.1788 22.0663 37.1133C21.7808 37.1951 21.2913 37.3015 20.9446 37.3097C20.2472 37.322 19.8597 37.2811 19.3091 37.1174Z" fill="#0A3960"/>
<path d="M28.8879 20.3791C28.7288 20.285 28.5657 20.1417 28.4474 20.0231C28.8022 21.9914 29.3651 24.4549 29.3569 28.1871L29.8341 28.183C29.7648 24.4263 30.3684 21.9137 30.6866 19.9453C30.5683 20.0722 30.344 20.2932 30.087 20.4241C29.773 20.5837 29.2998 20.6287 28.8879 20.3791Z" fill="#0070CD"/>
<path d="M29.4099 28.6762C29.4099 28.803 29.4874 28.9012 29.5853 28.9012H29.6301C29.728 28.9012 29.8014 28.7989 29.8014 28.6721L29.8381 28.1523H29.3732L29.4099 28.6762Z" fill="white"/>
<path d="M30.1399 10.0707C30.0094 10.5004 30.1154 9.53057 29.4792 9.55922C28.847 9.58786 28.6308 10.6191 28.4962 10.2222C28.4065 9.95616 27.8885 9.99709 27.6601 9.82521C27.6356 9.95207 27.6234 10.1403 27.6152 10.2917C27.4194 13.4673 28.3045 19.5115 28.4105 19.9903C28.4105 19.9903 28.6593 20.2317 28.9489 20.4118C29.3405 20.6532 29.8014 20.6082 30.0991 20.4568C30.4662 20.2686 30.6987 19.9289 30.6987 19.9289C30.7884 19.4501 31.4981 13.41 31.2371 10.2385C31.2248 10.1117 31.2126 9.99299 31.2003 9.87432C30.7925 10.0094 30.25 9.70654 30.1399 10.0707ZM30.2826 12.968L30.3071 15.9717C30.3071 16.1723 30.1521 16.34 29.9604 16.34L29.0387 16.3482C28.847 16.3482 28.6879 16.1886 28.6838 15.984L28.6553 12.9803C28.6553 12.7798 28.8103 12.612 29.0019 12.612L29.9278 12.6038C30.1236 12.6038 30.2786 12.7675 30.2826 12.968Z" fill="white"/>
<path d="M29.4299 14.9332H29.2668V15.0969H29.4299V14.9332ZM29.4299 14.3439H29.2668V14.5076H29.4299V14.3439ZM29.2505 15.9317H29.7236C29.8786 15.9317 30.0009 15.8171 30.0009 15.678L29.9928 13.2145C29.9928 13.0753 29.8663 12.9648 29.7154 12.9648H29.2423C29.0914 12.9648 28.965 13.0794 28.965 13.2145L28.9731 15.678C28.9731 15.8212 29.0955 15.9317 29.2505 15.9317ZM29.1811 13.9061L29.2464 13.8406H29.3035V13.9224H29.2627V14.0861H29.4259V14.0043H29.5074V14.0861H29.6706V13.9224H29.6298V13.8406H29.6869L29.7521 13.9061V14.1025L29.6869 14.168H29.4911L29.4666 14.1434L29.4422 14.168H29.2464L29.1811 14.1025V13.9061ZM29.1811 14.3276L29.2464 14.2621H29.691L29.7562 14.3276V14.524L29.691 14.5895H29.6339V14.5076H29.6746V14.3439H29.5115V14.524L29.4462 14.5895H29.2505L29.1852 14.524V14.3276H29.1811ZM29.1852 14.6795H29.2668V14.7613H29.1852V14.6795ZM29.1852 14.9168L29.2505 14.8514H29.695L29.7603 14.9168V15.1133L29.695 15.1787H29.6379V15.0969H29.6787V14.9332H29.5156V15.1133L29.4503 15.1787H29.2545L29.1893 15.1133V14.9168H29.1852Z" fill="#CDE3E8"/>
<path d="M28.746 10.9959C28.7378 10.5907 29.056 10.3002 29.4598 10.2961C29.8636 10.2961 30.1817 10.6194 30.1858 11.0245C30.1858 11.09 30.2143 11.1186 30.198 11.1841C30.2755 11.0368 30.3 10.8404 30.3408 10.6971C30.455 10.3166 30.9607 9.90325 31.2136 9.88688C30.9526 7.54204 30.2714 7.32106 29.4802 7.30469L29.472 7.30878C28.6563 7.30878 27.8895 7.60751 27.6652 9.87461C27.71 9.89916 28.4156 10.3329 28.5013 10.603C28.5706 10.8117 28.6685 11.1309 28.746 11.1841C28.7378 11.18 28.746 11.1309 28.746 10.9959Z" fill="#FF7C24"/>
<path d="M29.8138 11.0401C29.8138 11.2201 29.6711 11.3675 29.4875 11.3675C29.3081 11.3675 29.1613 11.2242 29.1613 11.0442C29.1613 10.8641 29.304 10.7168 29.4835 10.7168C29.667 10.7168 29.8138 10.86 29.8138 11.0401Z" fill="#FF7C24"/>
<defs>
<linearGradient id="paint0_linear_1132_5938" x1="12.2926" y1="47.5664" x2="39.5308" y2="19.1719" gradientUnits="userSpaceOnUse">
<stop offset="0.1813" stop-color="white"/>
<stop offset="0.2842" stop-color="#E6E6E6"/>
<stop offset="0.5036" stop-color="#A5A5A5"/>
<stop offset="0.8192" stop-color="#3E3E3E"/>
<stop offset="1"/>
</linearGradient>
<linearGradient id="paint1_linear_1132_5938" x1="26.7535" y1="33.2605" x2="35.77" y2="23.6235" gradientUnits="userSpaceOnUse">
<stop offset="0.1813" stop-color="white"/>
<stop offset="0.2842" stop-color="#E6E6E6"/>
<stop offset="0.5036" stop-color="#A5A5A5"/>
<stop offset="0.8192" stop-color="#3E3E3E"/>
<stop offset="1"/>
</linearGradient>
</defs>
</svg>
