<svg width="60" height="60" viewBox="0 0 60 60" fill="none" xmlns="http://www.w3.org/2000/svg">
<rect width="60" height="60" rx="10" fill="#143653"/>
<path opacity="0.78" d="M49.9958 41.2388C49.9958 41.6077 49.7262 42.0659 49.3985 42.2483L30.5952 52.8588C30.2676 53.0453 29.7283 53.0453 29.4006 52.8588L10.5973 42.2483C10.2696 42.0618 10 41.6077 10 41.2388V20.0178C10 19.6488 10.2696 19.1906 10.5973 19.0082L29.4047 8.39769C29.7324 8.21119 30.2717 8.21119 30.5994 8.39769L49.4027 19.0082C49.7304 19.1947 50 19.6488 50 20.0178V41.2388H49.9958Z" fill="white"/>
<path d="M49.5069 40.9798C49.5069 41.3407 49.2456 41.7867 48.9262 41.9651L30.5833 52.3161C30.2639 52.4945 29.7371 52.4945 29.4177 52.3161L11.0749 41.9651C10.7555 41.7826 10.4941 41.3407 10.4941 40.9798V20.2778C10.4941 19.9169 10.7555 19.4709 11.0749 19.2925L29.4177 8.94153C29.7371 8.75907 30.2598 8.75907 30.5833 8.94153L48.9262 19.2925C49.2456 19.475 49.5069 19.9169 49.5069 20.2778V40.9798Z" fill="#143653"/>
<path opacity="0.5" d="M46.8847 29.336L38.0534 35.3609L25.1985 33.6621L24.8252 17.9713L33.0508 12.0762L46.8847 29.336Z" fill="url(#paint0_linear_1132_5637)"/>
<path d="M46.8638 29.3358C46.8638 29.4128 46.8016 29.4737 46.7269 29.4737H33.005C32.9304 29.4737 32.8682 29.4128 32.8682 29.3358V12.1652C32.8682 12.0882 32.9304 12.0273 33.005 12.0273H46.7269C46.8016 12.0273 46.8638 12.0882 46.8638 12.1652V29.3358Z" fill="white"/>
<path d="M44.9979 14.0664H39.4229V14.5246H44.9979V14.0664Z" fill="#ADADAD"/>
<path d="M44.9979 14.8418H39.4229V15.3H44.9979V14.8418Z" fill="#ADADAD"/>
<path d="M44.9979 15.623H39.4229V16.0812H44.9979V15.623Z" fill="#ADADAD"/>
<path d="M44.9979 16.4102H39.4229V16.8683H44.9979V16.4102Z" fill="#ADADAD"/>
<path d="M44.9979 18.7578H39.4229V19.22H44.9979V18.7578Z" fill="#ADADAD"/>
<path d="M44.9979 19.5332H39.4229V19.9914H44.9979V19.5332Z" fill="#ADADAD"/>
<path d="M44.9979 20.3145H39.4229V20.7726H44.9979V20.3145Z" fill="#ADADAD"/>
<path d="M44.9979 21.1016H39.4229V21.5597H44.9979V21.1016Z" fill="#ADADAD"/>
<path d="M44.9979 23.3594H39.4229V23.8175H44.9979V23.3594Z" fill="#ADADAD"/>
<path d="M44.9979 24.1348H39.4229V24.5929H44.9979V24.1348Z" fill="#ADADAD"/>
<path d="M44.9979 24.916H39.4229V25.3742H44.9979V24.916Z" fill="#ADADAD"/>
<path d="M44.9979 25.7031H39.4229V26.1613H44.9979V25.7031Z" fill="#ADADAD"/>
<path d="M37.8383 15.5098C37.8383 16.2478 37.2244 16.8478 36.4695 16.8478C35.7145 16.8478 35.1006 16.2478 35.1006 15.5098C35.1006 14.7719 35.7145 14.1719 36.4695 14.1719C37.2244 14.1719 37.8383 14.7719 37.8383 15.5098Z" fill="#BC0202"/>
<path d="M36.0698 15.6254H35.9952V15.7794H35.8915V15.6254H35.626V15.5524L35.8666 15.1875H35.9952V15.5443H36.0698V15.6254ZM35.8915 15.5443V15.4105C35.8915 15.3781 35.8956 15.3213 35.8956 15.2889H35.8915C35.8749 15.3213 35.8583 15.3497 35.8417 15.3821L35.7297 15.5483H35.8915V15.5443Z" fill="white"/>
<path d="M36.1318 15.4779C36.1318 15.2792 36.2107 15.1738 36.3351 15.1738C36.4595 15.1738 36.5383 15.2792 36.5383 15.4779C36.5383 15.6766 36.4595 15.7861 36.3351 15.7861C36.2107 15.7861 36.1318 15.6766 36.1318 15.4779ZM36.4346 15.4779C36.4346 15.3117 36.3932 15.259 36.3351 15.259C36.277 15.259 36.2355 15.3117 36.2355 15.4779C36.2355 15.6441 36.277 15.705 36.3351 15.705C36.3932 15.705 36.4346 15.6441 36.4346 15.4779Z" fill="white"/>
<path d="M36.6094 15.3488C36.6094 15.2271 36.6716 15.1582 36.7587 15.1582C36.8458 15.1582 36.908 15.2271 36.908 15.3488C36.908 15.4704 36.8458 15.5434 36.7587 15.5434C36.6674 15.5434 36.6094 15.4704 36.6094 15.3488ZM36.8251 15.3488C36.8251 15.2596 36.796 15.219 36.7546 15.219C36.7131 15.219 36.684 15.2555 36.684 15.3488C36.684 15.438 36.7131 15.4785 36.7546 15.4785C36.796 15.4785 36.8251 15.442 36.8251 15.3488ZM36.7753 15.7866L37.1154 15.1582H37.1818L36.8417 15.7866H36.7753ZM37.0532 15.5961C37.0532 15.4745 37.1154 15.4055 37.2026 15.4055C37.2897 15.4055 37.3519 15.4745 37.3519 15.5961C37.3519 15.7177 37.2897 15.7907 37.2026 15.7907C37.1154 15.7866 37.0532 15.7177 37.0532 15.5961ZM37.2689 15.5961C37.2689 15.5069 37.2399 15.4663 37.1984 15.4663C37.1569 15.4663 37.1279 15.5028 37.1279 15.5961C37.1279 15.6853 37.1569 15.7258 37.1984 15.7258C37.2399 15.7258 37.2689 15.6853 37.2689 15.5961Z" fill="white"/>
<path d="M37.8383 20.1036C37.8383 20.8415 37.2244 21.4416 36.4695 21.4416C35.7145 21.4416 35.1006 20.8415 35.1006 20.1036C35.1006 19.3657 35.7145 18.7656 36.4695 18.7656C37.2244 18.7616 37.8383 19.3616 37.8383 20.1036Z" fill="#FF7C24"/>
<path d="M35.6448 20.3049C35.8148 20.1467 35.9185 20.0413 35.9185 19.9521C35.9185 19.8913 35.8854 19.8508 35.819 19.8508C35.7734 19.8508 35.7319 19.8832 35.7028 19.9156L35.6406 19.8548C35.6946 19.7981 35.7526 19.7656 35.8314 19.7656C35.9476 19.7656 36.0222 19.8386 36.0222 19.9481C36.0222 20.0535 35.9227 20.1589 35.8024 20.2846C35.8356 20.2805 35.8729 20.2765 35.902 20.2765H36.0513V20.3657H35.6448V20.3049Z" fill="white"/>
<path d="M36.1348 20.0697C36.1348 19.871 36.2136 19.7656 36.338 19.7656C36.4625 19.7656 36.5413 19.871 36.5413 20.0697C36.5413 20.2684 36.4625 20.3778 36.338 20.3778C36.2136 20.3778 36.1348 20.2684 36.1348 20.0697ZM36.4376 20.0697C36.4376 19.9035 36.3961 19.8508 36.338 19.8508C36.28 19.8508 36.2385 19.9035 36.2385 20.0697C36.2385 20.2359 36.28 20.2968 36.338 20.2968C36.3961 20.2968 36.4376 20.2359 36.4376 20.0697Z" fill="white"/>
<path d="M36.6113 19.9406C36.6113 19.8189 36.6735 19.75 36.7607 19.75C36.8478 19.75 36.91 19.8189 36.91 19.9406C36.91 20.0622 36.8478 20.1352 36.7607 20.1352C36.6694 20.1352 36.6113 20.0662 36.6113 19.9406ZM36.827 19.9406C36.827 19.8514 36.798 19.8108 36.7565 19.8108C36.715 19.8108 36.686 19.8473 36.686 19.9406C36.686 20.0298 36.715 20.0703 36.7565 20.0703C36.798 20.0744 36.827 20.0338 36.827 19.9406ZM36.7773 20.3784L37.1174 19.75H37.1838L36.8436 20.3784H36.7773ZM37.0552 20.1879C37.0552 20.0662 37.1174 19.9973 37.2045 19.9973C37.2916 19.9973 37.3538 20.0662 37.3538 20.1879C37.3538 20.3095 37.2916 20.3825 37.2045 20.3825C37.1174 20.3784 37.0552 20.3095 37.0552 20.1879ZM37.2709 20.1879C37.2709 20.0987 37.2418 20.0581 37.2004 20.0581C37.1589 20.0581 37.1298 20.0946 37.1298 20.1879C37.1298 20.2771 37.1589 20.3176 37.2004 20.3176C37.2418 20.3176 37.2709 20.2771 37.2709 20.1879Z" fill="white"/>
<path d="M37.8383 24.6466C37.8383 25.3845 37.2244 25.9845 36.4695 25.9845C35.7145 25.9845 35.1006 25.3845 35.1006 24.6466C35.1006 23.9087 35.7145 23.3086 36.4695 23.3086C37.2244 23.3086 37.8383 23.9087 37.8383 24.6466Z" fill="#E00A0A"/>
<path d="M35.9893 24.4442C35.9686 24.4199 35.9312 24.3996 35.8939 24.3996C35.8192 24.3996 35.757 24.4564 35.7529 24.6185C35.7861 24.5739 35.84 24.5496 35.8856 24.5496C35.9893 24.5496 36.064 24.6104 36.064 24.7321C36.064 24.8496 35.9769 24.9267 35.8732 24.9267C35.7529 24.9267 35.6533 24.8375 35.6533 24.6388C35.6533 24.4077 35.7653 24.3145 35.8898 24.3145C35.9644 24.3145 36.0142 24.3428 36.0515 24.3793L35.9893 24.4442ZM35.9603 24.728C35.9603 24.6591 35.9271 24.6226 35.8649 24.6226C35.8317 24.6226 35.7902 24.6429 35.757 24.6915C35.7695 24.7969 35.8109 24.8415 35.869 24.8415C35.9188 24.8415 35.9603 24.801 35.9603 24.728Z" fill="white"/>
<path d="M36.1348 24.6127C36.1348 24.414 36.2136 24.3086 36.338 24.3086C36.4625 24.3086 36.5413 24.414 36.5413 24.6127C36.5413 24.8113 36.4625 24.9208 36.338 24.9208C36.2136 24.9208 36.1348 24.8113 36.1348 24.6127ZM36.4376 24.6127C36.4376 24.4464 36.3961 24.3937 36.338 24.3937C36.28 24.3937 36.2385 24.4464 36.2385 24.6127C36.2385 24.7789 36.28 24.8397 36.338 24.8397C36.3961 24.8397 36.4376 24.7789 36.4376 24.6127Z" fill="white"/>
<path d="M36.6113 24.4835C36.6113 24.3619 36.6735 24.293 36.7607 24.293C36.8478 24.293 36.91 24.3619 36.91 24.4835C36.91 24.6052 36.8478 24.6781 36.7607 24.6781C36.6694 24.6781 36.6113 24.6092 36.6113 24.4835ZM36.827 24.4835C36.827 24.3943 36.798 24.3538 36.7565 24.3538C36.715 24.3538 36.686 24.3903 36.686 24.4835C36.686 24.5727 36.715 24.6133 36.7565 24.6133C36.798 24.6173 36.827 24.5768 36.827 24.4835ZM36.7773 24.9214L37.1174 24.293H37.1838L36.8436 24.9214H36.7773ZM37.0552 24.7309C37.0552 24.6092 37.1174 24.5403 37.2045 24.5403C37.2916 24.5403 37.3538 24.6092 37.3538 24.7309C37.3538 24.8525 37.2916 24.9255 37.2045 24.9255C37.1174 24.9214 37.0552 24.8525 37.0552 24.7309ZM37.2709 24.7309C37.2709 24.6417 37.2418 24.6011 37.2004 24.6011C37.1589 24.6011 37.1298 24.6376 37.1298 24.7309C37.1298 24.82 37.1589 24.8606 37.2004 24.8606C37.2418 24.8606 37.2709 24.82 37.2709 24.7309Z" fill="white"/>
<mask id="mask0_1132_5637" style="mask-type:luminance" maskUnits="userSpaceOnUse" x="10" y="8" width="40" height="45">
<path d="M49.5059 40.9837C49.5059 41.3446 49.2446 41.7906 48.9252 41.969L30.5823 52.32C30.2629 52.4984 29.7361 52.4984 29.4167 52.32L11.0739 41.969C10.7545 41.7865 10.4932 41.3446 10.4932 40.9837V20.2817C10.4932 19.9208 10.7545 19.4748 11.0739 19.2965L29.4167 8.94543C29.7361 8.76298 30.2588 8.76298 30.5823 8.94543L48.9252 19.2965C49.2446 19.4789 49.5059 19.9208 49.5059 20.2817V40.9837Z" fill="white"/>
</mask>
<g mask="url(#mask0_1132_5637)">
<path opacity="0.5" d="M29.2965 13.9232L26.6417 15.9261L29.2965 23.439L27.9608 24.2255L18.6152 30.81L21.1455 32.3588L32.7933 31.6249L33.3326 32.3304L28.301 36.8835L29.4209 37.7309L32.7726 34.8198L35.3817 34.7955L35.444 35.7605L36.7174 34.7914L39.2644 34.7752L39.3266 35.7888L40.7826 34.7712L43.3004 34.759L42.5248 45.7425L27.6207 54.3623L9.92079 43.7396L8.85059 24.8499L25.4761 13.5137L29.2965 13.9232Z" fill="url(#paint1_linear_1132_5637)"/>
</g>
<path d="M25.2188 33.9591H29.5328V32.0859H25.2188V33.9591Z" fill="#0A3960"/>
<path d="M24.3848 35.1673C24.3848 35.2606 24.4471 35.3335 24.5259 35.3335H30.2212C30.3 35.3335 30.3622 35.2606 30.3622 35.1673V34.3362C30.3622 34.247 30.3 34.1699 30.2212 34.1699H24.53C24.4512 34.1699 24.389 34.2429 24.389 34.3362V35.1673H24.3848Z" fill="#0A3960"/>
<path d="M25.6789 7.223C25.6789 7.34463 25.7743 7.44599 25.8905 7.44599H28.7485C28.8647 7.44599 28.9601 7.34463 28.9601 7.223C28.9601 7.10136 28.8647 7 28.7485 7H25.8905C25.7743 7 25.6789 7.09731 25.6789 7.223Z" fill="#0A3960"/>
<path d="M28.6317 7.56641H26.0059V13.644H28.6317V7.56641Z" fill="#0A3960"/>
<path d="M25.3302 13.9465C25.3302 13.3991 25.7823 12.9531 26.3464 12.9531H28.2877C28.8477 12.9531 29.304 13.3991 29.304 13.9465H25.3302Z" fill="#CDE3E8"/>
<path d="M29.3079 14.168H25.3341V23.4648H29.3079V14.168Z" fill="#CDE3E8"/>
<path d="M25.3302 23.7441H29.304C29.304 24.2915 28.1094 24.7253 28.1384 24.7375V25.1389H26.4833V24.7294C26.3506 24.6645 25.3302 24.255 25.3302 23.7441Z" fill="#0A3960"/>
<path d="M28.4786 28.1387C28.5284 28.1469 28.6984 28.1306 28.9598 28.086C29.2253 28.0414 29.4119 27.9887 29.4327 27.9766L29.4949 28.3171C29.4907 28.3496 29.2833 28.4104 29.0261 28.455C28.769 28.4996 28.5533 28.5118 28.5408 28.4834L28.4786 28.1387Z" fill="#0A3960"/>
<path d="M27.9151 26.4601L28.2262 28.0616C28.2511 28.0818 28.5622 28.0454 28.9397 27.9805C29.3172 27.9156 29.6241 27.8426 29.6407 27.8143L29.3296 26.2168C29.3296 26.2168 28.9978 26.3019 28.6327 26.3668C28.2677 26.4276 27.9151 26.4601 27.9151 26.4601Z" fill="#0A3960"/>
<path d="M27.8028 26.3779C27.836 26.4225 27.8775 26.459 27.919 26.4874C27.919 26.4874 28.2176 26.4752 28.649 26.3982C29.0182 26.3333 29.3335 26.2563 29.3418 26.2441C29.3418 26.2441 29.3915 26.1914 29.4123 26.1387L27.8028 26.3779Z" fill="#0A3960"/>
<path d="M26.255 29.7231C26.313 29.7393 26.5121 29.7555 26.8233 29.7515C27.1385 29.7474 27.3667 29.7272 27.3915 29.7109L27.3957 30.1204C27.3832 30.1569 27.1344 30.1853 26.8274 30.1853C26.5204 30.1894 26.2716 30.161 26.2591 30.1285L26.255 29.7231Z" fill="#0A3960"/>
<path d="M25.9818 26.7567L25.9776 29.5827C26.0025 29.6111 26.3717 29.6354 26.8197 29.6313C27.2718 29.6273 27.6369 29.6029 27.6617 29.5705L27.6783 26.6797C27.6369 26.6959 27.3009 26.7405 26.8612 26.7405C26.4256 26.7486 26.0274 26.7689 25.9818 26.7567Z" fill="#0A3960"/>
<path d="M25.8116 26.6322C25.8572 26.7093 26.0024 26.839 26.0024 26.839C26.0439 26.8512 26.355 26.8471 26.7947 26.8431C27.2344 26.839 27.6326 26.8147 27.6326 26.8147C27.7488 26.7295 27.8193 26.5836 27.84 26.3809L25.8116 26.6322Z" fill="#0A3960"/>
<path d="M30.4434 28.4041C30.5057 28.4041 30.7089 28.3676 31.0242 28.2784C31.3394 28.1933 31.5593 28.1041 31.5842 28.0879L31.7045 28.4974C31.7045 28.5339 31.4597 28.6352 31.1486 28.7204C30.8417 28.8055 30.5845 28.8461 30.5596 28.8136L30.4434 28.4041Z" fill="#0A3960"/>
<path d="M29.5587 26.3999L30.127 28.346C30.1602 28.3663 30.5335 28.2852 30.9856 28.1635C31.4378 28.0379 31.7986 27.9162 31.8152 27.8797L31.2511 25.9336C31.2511 25.9336 30.857 26.0796 30.4215 26.2012C29.9818 26.3188 29.5587 26.3999 29.5587 26.3999Z" fill="#0A3960"/>
<path d="M29.389 26.1441C29.3682 26.1927 29.335 26.2454 29.335 26.2454C29.389 26.3427 29.501 26.4644 29.5964 26.4684C29.5964 26.4684 29.9116 26.4157 30.426 26.2698C30.8657 26.1481 31.2432 26.0184 31.2473 25.9981C31.2473 25.9981 31.2971 25.9049 31.3095 25.8359L29.389 26.1441Z" fill="#0A3960"/>
<path d="M25.6497 26.4904L25.0234 26.016C25.0109 25.9389 25.0648 25.87 25.1436 25.8579L31.6022 24.828C31.681 24.8159 31.7557 24.8645 31.7681 24.9416L31.3243 25.6227L25.6497 26.4904Z" fill="#CDE3E8"/>
<path d="M25.3886 25.7035L31.3162 24.7588L31.2789 24.5277C31.2664 24.4466 31.1876 24.3939 31.1046 24.406L25.4757 25.3021C25.3927 25.3142 25.3388 25.3913 25.3512 25.4724L25.3886 25.7035Z" fill="#CDE3E8"/>
<path d="M28.2008 31.0584C28.3958 30.9651 28.57 30.8678 28.6363 30.8232C28.6737 30.7989 28.6778 30.7502 28.6529 30.7178C28.628 30.6813 28.5783 30.6773 28.5409 30.7016C28.4995 30.734 28.3169 30.8354 28.1303 30.9246C27.9436 31.0138 27.7362 31.0908 27.6657 31.0868C27.6035 31.0868 27.1928 31.0259 26.7158 30.9449C26.2346 30.8678 25.6788 30.7746 25.2847 30.7097C25.0192 30.6692 24.845 30.6408 24.7869 30.6367C24.7164 30.6367 24.65 30.6692 24.5671 30.7056C24.4841 30.7462 24.3929 30.7948 24.3057 30.8475C24.1315 30.9489 23.7499 31.1597 23.7499 31.1597C23.7126 31.1841 23.7043 31.2327 23.7292 31.2652C23.754 31.3016 23.8038 31.3098 23.837 31.2854C23.837 31.2854 24.4053 30.953 24.6334 30.8435C24.7081 30.807 24.7745 30.7867 24.7828 30.7908C24.8035 30.7908 24.9985 30.8192 25.2556 30.8597C25.517 30.9003 25.853 30.957 26.189 31.0097C26.8651 31.1192 27.5329 31.2327 27.6574 31.2327C27.8026 31.2327 28.0017 31.1476 28.2008 31.0584Z" fill="#CDE3E8"/>
<path d="M23.8782 30.6758H23.3223V31.3164H23.8782V30.6758Z" fill="#0A3960"/>
<path d="M23.0987 30.7116C23.0987 30.7927 23.1651 30.8576 23.2522 30.8576H23.9574C24.0403 30.8576 24.1109 30.7927 24.1109 30.7116V30.4156C24.1109 30.3346 24.0445 30.2656 23.9574 30.2656H23.2522C23.1692 30.2656 23.0987 30.3305 23.0987 30.4156V30.7116Z" fill="#0A3960"/>
<path d="M29.5407 39.8442C29.5407 39.9253 29.4743 39.9902 29.3872 39.9902H25.04C24.9571 39.9902 24.8907 39.9253 24.8907 39.8442V38.1414C24.8907 38.1373 24.8907 38.1333 24.8949 38.1251C25.0857 38.2427 26.0522 38.3279 27.2178 38.3279C28.4 38.3279 29.3748 38.2387 29.5449 38.1211C29.5449 38.1292 29.549 38.1333 29.549 38.1414V39.8442H29.5407Z" fill="#CDE3E8"/>
<path d="M24.9034 37.8106L24.9158 37.8592C25.0237 38.0133 26.0109 38.1147 27.218 38.1147C28.4293 38.1147 29.3999 38.0052 29.5078 37.8511C29.5078 37.8511 29.5285 37.7862 29.5202 37.7781C29.5036 37.5349 29.4124 37.324 29.2299 37.2024C29.0598 37.0645 28.2717 36.9551 27.2222 36.9551C26.2059 36.9551 25.4302 37.0605 25.2435 37.1902C25.0278 37.32 24.9034 37.5308 24.9034 37.8106ZM25.7538 37.3119C26.0773 37.1821 26.6124 37.101 27.218 37.101C27.8237 37.101 28.3546 37.1862 28.6782 37.3119C28.3131 37.3646 27.7905 37.397 27.2139 37.397C26.6373 37.397 26.1188 37.3646 25.7538 37.3119Z" fill="#CDE3E8"/>
<path d="M18.8809 40.1929H23.1203V36.1992C23.1203 36.1952 23.1203 36.1911 23.1203 36.1871C23.1203 35.7208 22.7345 35.3438 22.2575 35.3438C21.9049 35.3438 21.5938 35.5546 21.4362 35.8668L18.8809 40.1929ZM21.7058 36.3087C21.7058 36.029 21.9381 35.7978 22.2284 35.7978C22.5147 35.7978 22.7511 36.0249 22.7511 36.3087C22.7511 36.5885 22.5188 36.8196 22.2284 36.8196C21.9381 36.8196 21.7058 36.5885 21.7058 36.3087Z" fill="#CDE3E8"/>
<path d="M21.8966 36.3002C21.8966 36.4664 22.0376 36.6043 22.2077 36.6043C22.3777 36.6043 22.5188 36.4664 22.5188 36.3002C22.5188 36.1339 22.3777 35.9961 22.2077 35.9961C22.0376 35.9961 21.8966 36.1299 21.8966 36.3002Z" fill="#0A3960"/>
<path d="M21.6319 18.6277C21.6319 19.2886 22.1795 19.8238 22.8556 19.8238C23.5317 19.8238 24.0793 19.2886 24.0793 18.6277C24.0793 17.9668 23.5317 17.4316 22.8556 17.4316C22.1753 17.4357 21.6319 17.9709 21.6319 18.6277ZM22.4532 18.6277C22.4532 18.4128 22.6316 18.2344 22.8556 18.2344C23.0755 18.2344 23.258 18.4088 23.258 18.6277C23.258 18.8426 23.0796 19.021 22.8556 19.021C22.6316 19.021 22.4532 18.8466 22.4532 18.6277Z" fill="#0A3960"/>
<path d="M22.5772 18.627C22.5772 18.777 22.7017 18.8946 22.851 18.8946C23.0045 18.8946 23.1289 18.7729 23.1289 18.627C23.1289 18.481 23.0045 18.3594 22.851 18.3594C22.6975 18.3594 22.5772 18.481 22.5772 18.627ZM22.6726 18.4405C22.6809 18.4324 22.6975 18.4364 22.71 18.4486L23.0335 18.7729C23.046 18.7851 23.0501 18.8013 23.0377 18.8094C23.0294 18.8175 23.0128 18.8135 23.0003 18.8013L22.6768 18.477C22.6685 18.4648 22.6643 18.4486 22.6726 18.4405Z" fill="#CDE3E8"/>
<path d="M20.5938 21.7099C20.5938 21.9897 20.8261 22.2167 21.1123 22.2167C21.3986 22.2167 21.6309 21.9897 21.6309 21.7099C21.6309 21.4302 21.3986 21.2031 21.1123 21.2031C20.8261 21.2031 20.5938 21.4302 20.5938 21.7099Z" fill="#0A3960"/>
<path d="M14.8643 28.0375C14.8643 31.9947 17.4735 35.9437 19.4231 38.3237L21.1114 35.4572C21.3934 35.0234 21.7833 34.7639 22.418 34.772C23.0858 34.7841 23.6002 35.3234 23.5795 36.2965C23.5795 36.3005 23.5919 39.2603 23.5712 40.7199H23.9611V32.1852C23.9611 32.1852 23.2601 32.3069 21.6382 32.2217C20.0121 32.1325 18.6972 29.931 18.4275 27.2875C18.1579 24.644 19.813 23.979 20.8957 23.7155C21.717 23.5128 23.9943 23.5168 25.0479 23.533V15.416C23.7164 15.4322 22.0488 15.7647 20.5514 16.8837C18.8341 18.1609 14.8643 21.9072 14.8643 28.0375ZM22.837 20.1719C21.9742 20.1719 21.2731 19.4867 21.2731 18.6434C21.2731 17.8 21.9742 17.1148 22.837 17.1148C23.6998 17.1148 24.4008 17.8 24.4008 18.6434C24.4008 19.4867 23.6998 20.1719 22.837 20.1719ZM20.2278 21.7166C20.2278 21.2342 20.626 20.849 21.1155 20.849C21.605 20.849 22.0032 21.2382 22.0032 21.7166C22.0032 22.1951 21.605 22.5843 21.1155 22.5843C20.626 22.5843 20.2278 22.1951 20.2278 21.7166Z" fill="#0A3960"/>
<path d="M15.9854 41.2279C15.9854 41.3495 16.0891 41.4509 16.2136 41.4509H33.2456C33.3701 41.4509 33.4738 41.3495 33.4738 41.2279V39.598C33.4738 39.4764 33.3742 39.375 33.2456 39.375H16.2136C16.0891 39.375 15.9854 39.4764 15.9854 39.598V41.2279Z" fill="#0A3960"/>
<path d="M21.8878 32.1755C21.8878 32.2403 21.9417 32.289 22.0039 32.289H33.2369C33.2992 32.289 33.3531 32.2363 33.3531 32.1755V31.3362C33.3531 31.2713 33.2992 31.2227 33.2369 31.2227H22.0081C21.9417 31.2227 21.8919 31.2754 21.8919 31.3362V32.1755H21.8878Z" fill="#CDE3E8"/>
<path d="M45.5402 41.7324H30.4121V43.488H45.5402V41.7324Z" fill="white"/>
<path d="M36.8212 36.0156C36.8212 36.0156 36.7797 45.5152 36.8212 45.8436C36.8627 46.172 37.2443 46.7802 38.0117 46.7721C38.5385 46.764 39.14 46.6261 39.2644 45.7828C39.393 44.9395 39.3059 36.0237 39.3059 36.0237L36.8212 36.0156Z" fill="white"/>
<path d="M37.0283 36.4399C37.0283 36.5372 37.1071 36.6183 37.2067 36.6183L38.9198 36.6264C39.0194 36.6264 39.0982 36.5453 39.0982 36.448L39.1024 35.6533C39.1024 35.556 39.0236 35.4749 38.9281 35.4749L37.2191 35.4668C37.1196 35.4668 37.0408 35.5479 37.0408 35.6452L37.0283 36.4399Z" fill="#9FC3D3"/>
<path d="M36.7296 45.6429L36.742 35.9568C36.742 35.9366 36.7503 35.9163 36.7669 35.9001C36.7835 35.8879 36.8042 35.8798 36.8291 35.8839C36.8291 35.8839 36.9536 35.9082 37.1485 35.9244C37.3767 35.9447 37.7085 35.9528 38.057 35.9528C38.4718 35.9528 38.8658 35.9406 39.0898 35.9204C39.2143 35.9122 39.2806 35.892 39.2806 35.892C39.3014 35.8879 39.3263 35.892 39.3429 35.9041C39.3595 35.9163 39.3719 35.9366 39.3719 35.9609L39.3595 45.647C39.3553 45.9389 39.2433 46.2065 39.0525 46.4133C38.8161 46.6728 38.4635 46.8349 38.0694 46.8309H37.9989C37.6587 46.8268 37.3518 46.7052 37.1236 46.5065C36.8789 46.2957 36.7254 45.9876 36.7296 45.6429ZM36.8748 45.6429C36.8706 45.943 37.0075 46.2146 37.2273 46.4052C37.4306 46.5836 37.7002 46.693 38.003 46.693H38.0736C38.422 46.693 38.7372 46.5511 38.9447 46.32C39.1106 46.1376 39.2143 45.9024 39.2143 45.647L39.2267 36.046C39.1935 36.0501 39.1521 36.0542 39.1023 36.0582C38.87 36.0785 38.4759 36.0906 38.057 36.0906C37.7044 36.0866 37.3725 36.0825 37.1319 36.0623C37.0282 36.0542 36.9453 36.042 36.8872 36.0339L36.8748 45.6429Z" fill="#9FC3D3"/>
<path d="M37.0742 38.1406V45.4995C37.0701 46.0468 37.4932 46.432 38.02 46.436H38.0739C38.6007 46.436 39.028 46.0549 39.0321 45.5076V38.1406H37.0742Z" fill="#FF7C24"/>
<path d="M36.7629 34.7413C36.6841 34.7778 36.6301 34.8548 36.6301 34.944L36.626 35.5968C36.626 35.7063 36.6965 35.7955 36.8168 35.8198C36.9993 35.8685 37.4846 35.909 38.0571 35.909C38.6171 35.9131 39.0982 35.8766 39.289 35.832C39.4135 35.8117 39.4965 35.7266 39.5006 35.609L39.5047 34.9562C39.5047 34.8508 39.4342 34.7656 39.3347 34.7373C39.3305 34.7373 36.8002 34.6886 36.7629 34.7413Z" fill="white"/>
<path d="M40.7538 36.0156C40.7538 36.0156 40.7123 45.5152 40.7538 45.8436C40.7953 46.172 41.1644 46.8005 41.9111 46.7721C42.4379 46.7518 43.0684 46.6261 43.197 45.7828C43.3215 44.9395 43.2385 36.0237 43.2385 36.0237L40.7538 36.0156Z" fill="white"/>
<path d="M40.9619 36.4399C40.9619 36.5372 41.0407 36.6183 41.1403 36.6183L42.8493 36.6264C42.9488 36.6264 43.0277 36.5453 43.0277 36.448L43.0318 35.6533C43.0318 35.556 42.953 35.4749 42.8576 35.4749L41.1444 35.4668C41.0449 35.4668 40.9661 35.5479 40.9661 35.6452L40.9619 36.4399Z" fill="#9FC3D3"/>
<path d="M40.6583 45.6429L40.6707 35.9568C40.6707 35.9366 40.679 35.9163 40.6956 35.9001C40.7122 35.8879 40.7329 35.8798 40.7578 35.8839C40.7578 35.8839 40.8823 35.9082 41.0772 35.9244C41.3054 35.9447 41.6372 35.9528 41.9857 35.9528C42.4005 35.9528 42.7945 35.9406 43.0185 35.9204C43.143 35.9122 43.2094 35.892 43.2094 35.892C43.2301 35.8879 43.255 35.892 43.2716 35.9041C43.2923 35.9163 43.3006 35.9366 43.3006 35.9609L43.2882 45.647C43.2882 45.9389 43.172 46.2065 42.9812 46.4133C42.7448 46.6728 42.3922 46.8349 41.9981 46.8309H41.9276C41.5875 46.8268 41.2805 46.7052 41.0523 46.5065C40.8118 46.2957 40.6541 45.9876 40.6583 45.6429ZM40.8076 45.6429C40.8076 45.943 40.9404 46.2146 41.1602 46.4052C41.3635 46.5836 41.6331 46.693 41.9359 46.693H42.0064C42.359 46.693 42.6701 46.5511 42.8775 46.32C43.0434 46.1376 43.1471 45.9024 43.1471 45.647L43.1596 36.046C43.1264 36.0501 43.0849 36.0542 43.0351 36.0582C42.8028 36.0785 42.4088 36.0906 41.9898 36.0906C41.6372 36.0866 41.3054 36.0825 41.0648 36.0623C40.9611 36.0542 40.8781 36.042 40.8201 36.0339L40.8076 45.6429Z" fill="#9FC3D3"/>
<path d="M41.003 37.3359V45.4935C40.9988 46.0408 41.4219 46.426 41.9487 46.4301H42.0026C42.5253 46.4301 42.9567 46.049 42.9609 45.5016V37.3359H41.003Z" fill="#BC0202"/>
<path d="M40.6916 34.7413C40.6128 34.7778 40.5588 34.8548 40.5588 34.944L40.5547 35.5968C40.5547 35.7063 40.6252 35.7955 40.7455 35.8198C40.928 35.8685 41.4133 35.909 41.9858 35.909C42.5458 35.9131 43.0269 35.8766 43.2178 35.832C43.3422 35.8117 43.4293 35.7266 43.4293 35.609L43.4335 34.9562C43.4335 34.8508 43.3629 34.7656 43.2634 34.7373C43.2634 34.7373 40.7289 34.6886 40.6916 34.7413Z" fill="white"/>
<path d="M32.8593 36.0156C32.8593 36.0156 32.8178 45.5152 32.8593 45.8436C32.9007 46.172 33.3321 46.8005 34.0373 46.7721C34.5641 46.7478 35.1739 46.6261 35.3025 45.7828C35.4269 44.9395 35.344 36.0237 35.344 36.0237L32.8593 36.0156Z" fill="white"/>
<path d="M33.0791 36.4399C33.0791 36.5372 33.1579 36.6183 33.2575 36.6183L34.9706 36.6264C35.0702 36.6264 35.149 36.5453 35.149 36.448L35.1531 35.6533C35.1531 35.556 35.0743 35.4749 34.9789 35.4749L33.2658 35.4668C33.1662 35.4668 33.0874 35.5479 33.0874 35.6452L33.0791 36.4399Z" fill="#9FC3D3"/>
<path d="M32.7764 45.6429L32.7888 35.9568C32.7888 35.9366 32.7971 35.9163 32.8137 35.9001C32.8303 35.8879 32.8552 35.8798 32.8759 35.8839C32.8759 35.8839 33.0004 35.9082 33.1953 35.9244C33.4235 35.9447 33.7553 35.9528 34.1038 35.9528C34.5186 35.9528 34.9126 35.9406 35.1366 35.9204C35.2611 35.9122 35.3274 35.892 35.3274 35.892C35.3482 35.8879 35.3731 35.892 35.3897 35.9041C35.4063 35.9163 35.4187 35.9366 35.4187 35.9609L35.4063 45.647C35.4063 45.9389 35.2901 46.2065 35.0993 46.4133C34.8629 46.6728 34.5103 46.8349 34.1162 46.8309H34.0457C33.7055 46.8268 33.3986 46.7052 33.1704 46.5065C32.9298 46.2957 32.7764 45.9876 32.7764 45.6429ZM32.9257 45.6429C32.9216 45.943 33.0584 46.2146 33.2783 46.4052C33.4815 46.5836 33.7512 46.693 34.054 46.693H34.1245C34.4771 46.693 34.7882 46.5511 34.9956 46.32C35.1615 46.1376 35.2652 45.9024 35.2652 45.647L35.2777 36.046C35.2445 36.0501 35.203 36.0542 35.1532 36.0582C34.9209 36.0785 34.5269 36.0906 34.1079 36.0906C33.7553 36.0866 33.4235 36.0825 33.1829 36.0623C33.0792 36.0542 32.9962 36.042 32.9381 36.0339L32.9257 45.6429Z" fill="#9FC3D3"/>
<path d="M33.125 41.1152V45.494C33.1209 46.0414 33.544 46.4266 34.0708 46.4306H34.1247C34.6474 46.4306 35.0788 46.0495 35.0829 45.5022V41.1152H33.125Z" fill="#BC0202"/>
<path d="M32.8136 34.7413C32.7348 34.7778 32.6809 34.8548 32.6809 34.944L32.6768 35.5968C32.6768 35.7063 32.7473 35.7955 32.8676 35.8198C33.0501 35.8685 33.5354 35.909 34.1078 35.909C34.6678 35.9131 35.149 35.8766 35.3398 35.832C35.4643 35.8117 35.5472 35.7266 35.5514 35.609L35.5555 34.9562C35.5555 34.8508 35.485 34.7656 35.3855 34.7373C35.3813 34.7373 32.851 34.6886 32.8136 34.7413Z" fill="white"/>
<path d="M30.4453 46.7313V39.4739C30.4453 38.3346 31.3911 37.4102 32.5567 37.4102H32.818V37.7021H32.5567C31.5529 37.7021 30.744 38.4967 30.744 39.4739V46.7313H30.4453Z" fill="white"/>
<path d="M45.3201 46.7313V39.4739C45.3201 38.4967 44.5071 37.7021 43.5074 37.7021H43.2461V37.4102H43.5074C44.673 37.4102 45.6188 38.3346 45.6188 39.4739V46.7313H45.3201Z" fill="white"/>
<path d="M35.3232 37.7021V37.4102H36.7585V37.7021H35.3232Z" fill="white"/>
<path d="M39.293 37.7021V37.4102H40.7282V37.7021H39.293Z" fill="white"/>
<defs>
<linearGradient id="paint0_linear_1132_5637" x1="25.9592" y1="34.374" x2="40.3876" y2="18.9344" gradientUnits="userSpaceOnUse">
<stop offset="0.2473" stop-color="white"/>
<stop offset="1"/>
</linearGradient>
<linearGradient id="paint1_linear_1132_5637" x1="14.199" y1="47.7382" x2="38.1062" y2="22.1556" gradientUnits="userSpaceOnUse">
<stop offset="0.1044" stop-color="white"/>
<stop offset="0.1908" stop-color="#EFEFEF"/>
<stop offset="0.3592" stop-color="#C6C6C6"/>
<stop offset="0.5931" stop-color="#838383"/>
<stop offset="0.8805" stop-color="#282828"/>
<stop offset="1"/>
</linearGradient>
</defs>
</svg>
