<svg width="61" height="60" viewBox="0 0 61 60" fill="none" xmlns="http://www.w3.org/2000/svg">
<rect x="0.307617" width="60" height="60" rx="10" fill="#65AFBF"/>
<path opacity="0.78" d="M50 40.9091C50 41.2884 49.7303 41.7553 49.4026 41.9471L30.5974 52.8562C30.2697 53.0479 29.7303 53.0479 29.4026 52.8562L10.5974 41.9471C10.2697 41.7553 10 41.2884 10 40.9091V19.0909C10 18.7116 10.2697 18.2405 10.5974 18.0529L29.4026 7.14382C29.7303 6.95206 30.2697 6.95206 30.5974 7.14382L49.4026 18.0529C49.7303 18.2447 50 18.7116 50 19.0909V40.9091Z" fill="white"/>
<path d="M49.5109 40.6411C49.5109 41.0122 49.2496 41.4707 48.9302 41.6541L30.5854 52.2964C30.266 52.4798 29.7391 52.4798 29.4197 52.2964L11.0749 41.6541C10.7555 41.4665 10.4941 41.0122 10.4941 40.6411V19.3565C10.4941 18.9855 10.7555 18.5311 11.0749 18.3436L29.4197 7.70124C29.7391 7.51365 30.2618 7.51365 30.5854 7.70124L48.9302 18.3436C49.2496 18.5311 49.5109 18.9855 49.5109 19.3565V40.6411Z" fill="#65AFBF"/>
<mask id="mask0_1132_5817" style="mask-type:luminance" maskUnits="userSpaceOnUse" x="10" y="7" width="40" height="46">
<path d="M49.5109 40.6411C49.5109 41.0122 49.2495 41.4707 48.9301 41.6541L30.5853 52.2964C30.2659 52.4798 29.739 52.4798 29.4196 52.2964L11.0748 41.6541C10.7554 41.4665 10.494 41.0122 10.494 40.6411V19.3565C10.494 18.9855 10.7554 18.5311 11.0748 18.3436L29.4196 7.70124C29.739 7.51365 30.2617 7.51365 30.5853 7.70124L48.9301 18.3436C49.2495 18.5311 49.5109 18.9855 49.5109 19.3565V40.6411Z" fill="white"/>
</mask>
<g mask="url(#mask0_1132_5817)">
<path opacity="0.5" d="M40.2722 30.2606L47.8805 39.1521L25.7524 51.6245L9.00479 42.3494L9.21222 30.2606L14.2776 26.9966L14.5514 28.6641L34.3896 16L40.2722 30.2606Z" fill="url(#paint0_linear_1132_5817)"/>
</g>
<path opacity="0.5" d="M31.7666 41.2603L32.6502 40.4766L34.3884 42.64L38.4332 40.4766L38.2507 43.9406L39.7027 42.9277L38.3544 47.8216L29.7628 52.8447L20.9141 47.5298L31.6006 40.71L31.7666 41.2603Z" fill="url(#paint1_linear_1132_5817)"/>
<path d="M38.7323 49.4467C38.7323 49.4467 38.5415 47.5209 38.6452 47.3208C38.7489 47.1207 39.5081 45.7117 39.562 45.5116C39.6159 45.3074 40.2174 43.2981 40.1801 43.023C40.1511 42.8104 39.7694 42.6312 39.479 43.2481C39.1886 43.8651 38.8982 44.5279 38.8153 44.3694C38.7323 44.211 38.8609 41.8308 38.8982 41.514C38.9439 41.1305 38.9231 40.4802 38.5995 40.4135C38.2759 40.3468 38.2013 41.0638 38.1515 41.4848C38.1017 41.9058 37.9524 42.7604 37.8901 42.7646C37.8238 42.7687 37.9482 40.7261 37.7159 40.1592C37.6371 39.9633 37.1849 39.8591 37.1227 40.351C37.0604 40.8429 37.0895 42.8354 37.0397 42.7854C36.9899 42.7354 36.9443 40.847 36.8572 40.6219C36.77 40.3968 36.629 40.376 36.4548 40.5135C36.2805 40.6511 36.2639 42.1726 36.2183 42.4603C36.1726 42.7437 36.2224 43.369 36.1602 43.3857C36.098 43.4065 36.1685 41.985 36.127 41.7474C36.0855 41.5098 35.9486 41.3472 35.8283 41.439C35.708 41.5265 35.5753 41.9058 35.4591 42.752C35.3844 43.3023 35.4176 44.7321 35.5089 45.2782C35.596 45.8201 36.2183 47.0873 36.1395 47.4167C36.0606 47.746 35.791 49.3801 35.8117 49.4426C35.82 49.5051 38.7323 49.4467 38.7323 49.4467Z" fill="#CDE3E8"/>
<path d="M31.1787 49.7336C31.1787 49.7336 31.436 47.8161 31.3405 47.6118C31.2451 47.4076 30.5316 45.9736 30.4859 45.7693C30.4403 45.5651 29.9093 43.535 29.9549 43.264C29.9923 43.0514 30.3781 42.8889 30.6477 43.5142C30.9174 44.1394 31.187 44.8147 31.2742 44.6605C31.3613 44.5063 31.3198 42.1219 31.2907 41.805C31.2576 41.4215 31.3032 40.7712 31.6268 40.717C31.9504 40.6629 32.0001 41.3798 32.0375 41.8009C32.0748 42.2219 32.191 43.0806 32.2574 43.089C32.3237 43.0973 32.2739 41.0505 32.5229 40.492C32.61 40.3002 33.0622 40.2085 33.1078 40.7004C33.1534 41.1923 33.0539 43.1848 33.1037 43.1348C33.1576 43.0848 33.2654 41.2006 33.3609 40.9797C33.4563 40.7587 33.5973 40.7421 33.7674 40.888C33.9375 41.0339 33.9043 42.5554 33.9375 42.8388C33.9707 43.1223 33.9043 43.7476 33.9624 43.7684C34.0246 43.7893 34.0039 42.3678 34.0537 42.1302C34.1034 41.8926 34.2445 41.7383 34.3648 41.8342C34.4851 41.9301 34.6013 42.3094 34.6884 43.1598C34.7465 43.7101 34.6593 45.144 34.5515 45.6818C34.4436 46.2195 33.7799 47.4659 33.8504 47.7953C33.9168 48.1246 34.1325 49.7712 34.1076 49.8295C34.0869 49.8962 31.1787 49.7336 31.1787 49.7336Z" fill="white"/>
<path d="M47.3746 34.2578V34.1577C46.9224 31.1439 45.7318 30.3852 41.102 28.6094L35.7463 28.6802C31.2286 30.2184 30.0711 31.2397 29.6729 34.658L29.1709 39.1808H47.806L47.3746 34.2578Z" fill="white"/>
<path d="M36.0737 27.1211L35.5137 29.047L38.3596 32.461L38.372 27.3754L36.0737 27.1211Z" fill="#CDE3E8"/>
<path d="M40.7116 27.1719L41.2218 29.2186L38.3594 32.5535L38.4133 27.422L40.7116 27.1719Z" fill="#CDE3E8"/>
<path opacity="0.4" d="M41.1636 27.7502L36.7163 33.6237L34.0986 30.7808L37.7991 25.2324L41.1636 27.7502Z" fill="url(#paint2_linear_1132_5817)"/>
<path d="M35.7676 27.1484C35.8796 27.3027 35.9957 27.4444 36.1202 27.5736C36.1202 27.5736 36.1244 27.5695 36.1244 27.5653C35.9999 27.4402 35.8837 27.2985 35.7676 27.1484Z" fill="white"/>
<path d="M42.9037 23.2957C42.9037 22.7872 42.7585 22.5787 42.5054 22.4954C42.5635 21.4532 42.717 20.3527 42.3353 19.5857C41.6135 18.1267 39.618 17.2305 38.2573 17.2305C36.9506 17.2305 35.5069 18.01 34.7767 19.3648C34.3287 20.2026 34.3328 21.2948 34.3909 22.4203C34.113 22.4954 33.9512 22.6955 33.9512 23.2332C33.9512 24.0336 34.3079 25.3008 34.8721 25.48C34.9427 25.676 35.0215 25.8636 35.1128 26.047C35.1169 26.0595 35.1252 26.0678 35.1293 26.0761C35.3243 26.468 35.5401 26.8223 35.7724 27.1391C35.8885 27.285 36.0047 27.4268 36.125 27.556C36.125 27.5602 36.125 27.5643 36.1208 27.5643C36.7971 28.3063 37.6019 28.7357 38.4648 28.7357C39.784 28.7357 40.9622 27.7352 41.7628 26.1553C41.8251 26.0386 41.8914 25.9303 41.9702 25.8385C42.0159 25.7218 42.0615 25.6051 42.103 25.48C42.5967 25.1841 42.9037 24.0419 42.9037 23.2957Z" fill="#CDE3E8"/>
<path d="M41.7626 26.1654C41.8248 26.0487 41.8912 25.9403 41.97 25.8486C42.0156 25.7318 42.0613 25.6151 42.1028 25.4901C42.5964 25.1816 42.9034 24.0394 42.9034 23.2974C42.9034 22.7888 42.7582 22.5846 42.5052 22.497C42.5633 21.4549 42.7168 20.3544 42.3351 19.5874C41.6215 18.1451 39.6676 17.2572 38.3027 17.2363V28.7374C38.3567 28.7374 38.4064 28.7457 38.4604 28.7457C39.7838 28.7499 40.9619 27.7494 41.7626 26.1654Z" fill="white"/>
<path d="M40.8692 19.1303C40.9522 19.8014 39.6993 19.7722 38.8696 19.6346C38.0358 19.4971 37.5462 19.6597 36.7663 19.8848C35.9781 20.1099 35.2106 20.9269 35.0986 21.3354C35.0322 21.5814 35.0903 22.7611 35.0903 22.7611L34.3934 22.4317C34.3934 22.4317 34.1693 20.7935 34.4183 19.693C34.6589 18.6342 35.1774 17.6921 37.148 17.2627C38.936 16.8751 40.193 17.1085 40.2469 17.5545C40.388 17.5837 40.5 17.4712 40.6618 17.4712C41.0766 17.4712 41.7072 17.9797 42.0723 18.5675C42.4332 19.1553 42.9435 20.2057 42.6904 22.0191C42.6323 22.4943 42.5369 22.6193 42.5369 22.6193L41.9561 22.9528C41.9561 22.9528 42.2133 20.6643 41.2716 19.9931C40.9646 19.7847 40.8692 19.1303 40.8692 19.1303Z" fill="#0A3960"/>
<path d="M41.2537 19.9695C42.1996 20.6406 41.9424 22.9292 41.9424 22.9292L42.5232 22.5957C42.5232 22.5957 42.6227 22.4706 42.6767 21.9954C42.9297 20.1779 42.5812 19.1066 42.2203 18.5189C41.8594 17.9311 41.067 17.4434 40.648 17.4434C40.5651 17.4434 40.3369 17.5017 40.2705 17.5267C40.4489 18.1187 40.8596 18.9649 40.8555 19.1066C40.8596 19.1066 40.955 19.7611 41.2537 19.9695Z" fill="#205F89"/>
<path d="M40.8599 19.1055C40.8599 19.1472 40.8557 19.2055 40.8516 19.2597C40.8599 19.2138 40.864 19.1597 40.8599 19.1055Z" fill="#205F89"/>
<path d="M42.6278 16.187C42.6278 15.9035 40.8066 15.0781 38.5291 15.0781C36.2474 15.0781 34.3723 15.9035 34.3681 16.187V19.8553C34.3681 19.8553 34.4304 19.8428 34.4304 19.8386C34.4304 19.6218 36.2599 19.0007 38.5374 19.0007C40.5826 19.0007 42.296 19.5843 42.6237 19.7719V16.187H42.6278Z" fill="white"/>
<path d="M34.3681 16.187V19.8553C34.3681 19.8553 34.4304 19.8428 34.4304 19.8386C34.4304 19.6218 36.3138 19.0424 38.5955 19.0424C38.6079 19.0424 38.5747 15.0781 38.5747 15.0781C38.5581 15.0781 38.5415 15.0781 38.5291 15.0781C36.2474 15.0781 34.3681 15.9035 34.3681 16.187Z" fill="#CDE3E8"/>
<path d="M34.8002 22.918C36.5882 23.6516 39.5295 24.1018 42.0062 22.9972C42.0891 25.3649 41.7406 27.8744 41.7406 27.8744C41.7406 27.8744 38.4924 30.0754 35.327 27.8744C34.767 24.9355 34.8002 22.918 34.8002 22.918Z" fill="#9FC3D3"/>
<path d="M42.0062 23.002C40.8488 23.5147 39.6042 23.7148 38.4219 23.7106V28.8463C40.3095 28.8379 41.7407 27.875 41.7407 27.875C41.7407 27.875 42.085 25.3697 42.0062 23.002Z" fill="#CDE3E8"/>
<path d="M17.2722 19.9841C17.3054 20.2592 17.5585 20.4551 17.8323 20.4218L19.0271 20.2717C19.3009 20.2384 19.4958 19.9841 19.4626 19.709C19.4295 19.4338 19.1764 19.2379 18.9026 19.2713L17.712 19.4213C17.434 19.4589 17.239 19.709 17.2722 19.9841Z" fill="#CDE3E8"/>
<path d="M19.9479 21.9772C21.2546 24.52 24.059 24.866 27.0667 23.4904C30.0744 22.1189 31.5015 18.6757 29.867 16.333C28.4938 14.3612 25.6396 13.5734 22.8145 15.3492C19.8607 17.2042 18.7282 19.6094 19.9479 21.9772Z" fill="white"/>
<path d="M20.7236 22.1064C21.5492 24.0573 24.3287 24.6409 26.934 23.4112C29.5392 22.1773 30.9871 19.5969 30.1615 17.6461C29.3359 15.6952 26.5564 15.1116 23.9512 16.3413C21.3459 17.571 19.9022 20.1555 20.7236 22.1064Z" fill="#CDE3E8"/>
<path d="M24.3495 20.6809C24.6897 21.2145 25.4448 21.3395 26.0338 20.9602C26.6229 20.5809 26.8221 19.8389 26.4819 19.3053C26.1376 18.7717 25.3867 18.6467 24.7976 19.026C24.2085 19.4095 24.0094 20.1473 24.3495 20.6809Z" fill="#FF7C24"/>
<path d="M22.1057 20.2089C22.4666 20.5965 23.1553 20.5048 23.6531 20.0088C24.1468 19.5127 24.2546 18.7957 23.8937 18.4122C23.5328 18.0245 22.84 18.1162 22.3505 18.6123C21.8527 19.1084 21.7448 19.8212 22.1057 20.2089Z" fill="#FF7C24"/>
<path d="M28.0338 17.496C28.067 18.0254 27.5318 18.4672 26.8307 18.4923C26.1338 18.5131 25.5405 18.1046 25.5073 17.5752C25.4741 17.0458 26.0093 16.5997 26.7104 16.5789C27.4032 16.558 27.9964 16.9666 28.0338 17.496Z" fill="#FF7C24"/>
<path d="M22.172 22.4155C22.1347 21.9528 22.5993 21.5485 23.2133 21.5193C23.8273 21.4901 24.3583 21.8403 24.3956 22.303C24.433 22.7657 23.9683 23.17 23.3544 23.1992C22.7362 23.2326 22.2094 22.8824 22.172 22.4155Z" fill="#FF7C24"/>
<path d="M29.5315 18.7832C29.1664 18.4038 28.4736 18.5081 27.9882 19.0125C27.507 19.5169 27.4116 20.238 27.7766 20.6132C28.1417 20.9925 28.8345 20.8883 29.3157 20.3839C29.8053 19.8795 29.8965 19.1625 29.5315 18.7832Z" fill="#FF7C24"/>
<path d="M27.2493 21.783C27.0295 21.3745 26.4196 21.2911 25.8886 21.6038C25.3576 21.9164 25.1046 22.5 25.3244 22.9085C25.5443 23.3171 26.1541 23.4004 26.6851 23.0878C27.2162 22.7793 27.4692 22.1957 27.2493 21.783Z" fill="#FF7C24"/>
<path d="M18.6668 19.6009V16.6454L24.9228 12.8229L24.8523 10.3926L23.4708 11.1221L23.5081 11.9933L17.7334 16.5412L17.8039 19.7718L18.6668 19.6009Z" fill="#CDE3E8"/>
<path d="M14.5349 30.4889C14.51 30.5305 13.8587 30.6264 13.8587 30.6264C13.8587 30.6264 13.6927 29.3758 13.7342 28.5463C13.7757 27.7168 13.8379 27.4875 14.0287 27.0831L14.1283 26.9414C14.1283 26.9414 14.3191 27.1373 14.4643 27.5125C14.7257 28.1878 14.6842 29.0215 14.6261 29.6426C14.5722 30.2637 14.5349 30.4889 14.5349 30.4889Z" fill="white"/>
<path d="M13.8535 30.6245L14.4924 30.5078C14.4924 30.5078 14.4799 30.6079 14.4385 30.637C14.3721 30.6829 14.1605 30.7329 14.0651 30.7413C13.9697 30.7538 13.9033 30.7162 13.8784 30.6996C13.8577 30.6912 13.8535 30.6245 13.8535 30.6245Z" fill="white"/>
<path d="M13.8496 31.7953C13.8911 31.7453 13.9367 31.6244 13.9118 31.366C13.8869 31.1075 13.8579 30.6573 13.8579 30.6573C13.8579 30.6573 13.9533 30.7198 14.1524 30.6948C14.3308 30.674 14.4345 30.6531 14.5673 30.3613C14.5051 30.5864 14.4553 31.5869 14.4802 31.6702C14.5051 31.7578 14.5092 31.8328 14.5092 31.8328L13.8496 31.7953Z" fill="#CDE3E8"/>
<path d="M14.1191 26.9553L14.2353 26.7969C14.2353 26.7969 14.7124 27.5097 14.7041 28.5894C14.6958 29.6648 14.6004 30.336 14.5879 30.461C14.5755 30.5861 14.5091 31.5157 14.5091 31.5949C14.5091 31.6741 14.5298 31.8033 14.5879 31.8242C14.505 31.8575 14.4635 31.8116 14.4635 31.8116C14.4635 31.8116 14.4552 31.1488 14.505 30.6778C14.5547 30.2068 14.6419 28.7102 14.6128 28.3518C14.5713 27.8599 14.4178 27.3721 14.3183 27.2096C14.2104 27.0512 14.1191 26.9553 14.1191 26.9553Z" fill="#CDE3E8"/>
<path d="M13.7293 31.8468C13.7459 31.8218 13.7708 31.826 13.8413 31.8051C13.916 31.7843 13.945 31.7217 13.9616 31.6926C13.9699 31.6759 14.1981 31.6801 14.2064 31.6759C14.2271 31.6717 14.4179 31.7926 14.6337 31.8343C14.6834 31.8426 14.7498 31.8218 14.7581 31.8718C14.7581 31.8718 14.8701 33.1349 14.8286 34.0811C14.7871 35.0274 14.6793 37.7286 14.6751 38.4248C14.671 39.1209 14.7457 40.2881 14.7706 40.6174C14.7954 40.9467 14.7747 40.9884 14.6793 41.0676C14.5839 41.1427 13.7417 41.1468 13.5965 40.9968C13.5633 40.9634 13.6007 40.6091 13.609 40.3131C13.6214 40.0213 13.8122 38.5915 13.6712 35.6402C13.6712 35.6402 13.5882 35.1858 13.609 33.9436C13.6339 32.8556 13.7293 31.8468 13.7293 31.8468Z" fill="white"/>
<path d="M14.7539 40.6934C14.729 40.931 14.6999 40.9685 14.6294 41.0143C14.534 41.0769 13.7997 41.0935 13.584 40.9726C13.584 41.0352 13.5881 41.0727 13.5964 41.0852C13.7416 41.2353 14.5755 41.2228 14.675 41.1561C14.7746 41.0894 14.7871 41.0352 14.7663 40.71L14.7539 40.6934Z" fill="#CDE3E8"/>
<path d="M14.019 27.0951C13.8281 27.4995 13.7659 27.7287 13.7244 28.5583C13.6829 29.3878 13.8489 30.6384 13.8489 30.6384C13.8489 30.6384 13.9858 30.7301 14.1559 30.6968L14.1185 26.9492L14.019 27.0951Z" fill="#CDE3E8"/>
<path d="M13.8329 31.8089C13.7624 31.8298 13.7375 31.8256 13.7209 31.8506C13.7209 31.8506 13.6214 32.8594 13.6048 33.9516C13.584 35.1938 13.667 35.6482 13.667 35.6482C13.8081 38.5995 13.6131 40.0293 13.6048 40.3211C13.5923 40.6129 13.555 40.9672 13.5923 41.0047C13.6712 41.0839 13.945 41.1173 14.198 41.1256V31.6797C14.1648 31.6797 13.9657 31.6797 13.9574 31.6922C13.9367 31.7255 13.9076 31.7881 13.8329 31.8089Z" fill="#CDE3E8"/>
<path d="M24.5026 43.1309C23.7849 43.1309 23.2041 43.8228 23.2041 44.6774C23.2041 45.5319 23.7849 46.2239 24.5026 46.2239C25.2203 46.2239 25.8011 45.5319 25.8011 44.6774C25.8052 43.8228 25.2203 43.1309 24.5026 43.1309ZM24.5026 45.8154C23.9716 45.8154 23.5443 45.3068 23.5443 44.6732C23.5443 44.0438 23.9716 43.531 24.5026 43.531C25.0336 43.531 25.4609 44.0396 25.4609 44.6732C25.4609 45.3068 25.0336 45.8154 24.5026 45.8154Z" fill="#CDE3E8"/>
<path d="M25.7509 44.4371L26.0247 39.2764C26.0247 39.2764 26.3151 37.0046 26.4229 36.5585C26.6055 35.8249 27.3771 33.1028 27.3066 32.9319C27.2402 32.761 27.0328 32.8985 26.929 33.2779C26.8253 33.6572 25.9417 36.5377 25.9417 36.5377L25.4397 38.8637L25.029 42.5071L24.415 43.4033L25.2364 43.816L25.7509 44.4371Z" fill="#CDE3E8"/>
<path d="M27.6845 43.0273C26.9668 43.0273 26.3818 43.7193 26.3818 44.5739C26.3818 45.4284 26.9626 46.1204 27.6845 46.1204C28.4022 46.1204 28.983 45.4284 28.983 44.5739C28.9871 43.7193 28.4022 43.0273 27.6845 43.0273ZM27.6845 45.7161C27.1535 45.7161 26.7262 45.2075 26.7262 44.5739C26.7262 43.9444 27.1576 43.4359 27.6845 43.4359C28.2113 43.4359 28.6428 43.9444 28.6428 44.5739C28.6428 45.2033 28.2155 45.7161 27.6845 45.7161Z" fill="white"/>
<path d="M26.386 44.5733L25.9255 40.2755L25.3779 39.9296L25.6849 36.3196C25.6849 36.3196 26.5354 32.9514 26.7221 32.8013C26.8921 32.6638 27.0622 32.7763 26.9046 33.4641C26.8175 33.8476 26.2657 36.378 26.2657 36.378L26.8797 42.8184L27.6845 43.0226C27.6845 43.0226 27.0498 43.3311 26.8133 43.7104C26.5727 44.0898 26.386 44.5733 26.386 44.5733Z" fill="white"/>
<path d="M26.2205 39.4704C26.2205 39.6205 26.096 39.7456 25.9467 39.7456C25.7973 39.7456 25.6729 39.6205 25.6729 39.4704C25.6729 39.3204 25.7973 39.1953 25.9467 39.1953C26.096 39.1953 26.2205 39.3204 26.2205 39.4704Z" fill="#CDE3E8"/>
<path d="M22.8476 28.4665C22.8476 27.5453 22.217 26.7949 21.4413 26.7949C20.6655 26.7949 20.0391 27.5411 20.0391 28.4665C20.0391 29.3919 20.6696 30.1381 21.4413 30.1381C22.2212 30.1381 22.8476 29.3878 22.8476 28.4665ZM22.4784 28.4665C22.4784 29.146 22.0138 29.6962 21.4413 29.6962C20.8688 29.6962 20.4083 29.146 20.4083 28.4665C20.4083 27.787 20.8729 27.2368 21.4413 27.2368C22.0138 27.2326 22.4784 27.787 22.4784 28.4665Z" fill="#CDE3E8"/>
<path d="M22.794 28.7246L23.0886 34.298C23.0886 34.298 23.2836 36.4198 23.2628 36.9158C23.213 38.3331 23.2338 40.8217 23.1964 41.0177C23.1467 41.2678 23.0263 41.2094 23.0098 40.7842C22.9849 40.1631 22.8397 37.1367 22.8397 37.1367L22.4621 34.744L22.0183 30.8089L21.3545 29.8418L22.2423 29.3958L22.794 28.7246Z" fill="#CDE3E8"/>
<path d="M26.2873 28.5798C26.2873 27.6585 25.6567 26.9082 24.881 26.9082C24.1052 26.9082 23.4746 27.6544 23.4746 28.5798C23.4746 29.501 24.1052 30.2514 24.881 30.2514C25.6567 30.2472 26.2873 29.501 26.2873 28.5798ZM25.9181 28.5798C25.9181 29.2593 25.4534 29.8095 24.8851 29.8095C24.3126 29.8095 23.8521 29.2593 23.8521 28.5798C23.8521 27.9003 24.3168 27.3459 24.8851 27.3459C25.4534 27.3459 25.9181 27.8961 25.9181 28.5798Z" fill="white"/>
<path d="M23.4534 28.5371L22.9555 33.1809L22.3623 33.5519L22.6942 37.4537C22.6942 37.4537 22.8477 40.5759 22.8601 40.8385C22.885 41.3179 23.0095 41.3304 23.1049 40.3341C23.1464 39.9131 23.3206 37.3911 23.3206 37.3911L23.9844 30.4338L24.8514 30.2129C24.8514 30.2129 24.1669 29.8794 23.9097 29.4709C23.6566 29.0582 23.4534 28.5371 23.4534 28.5371Z" fill="white"/>
<path d="M23.3 34.085C23.3 33.9183 23.1673 33.7891 23.0055 33.7891C22.8437 33.7891 22.7109 33.9225 22.7109 34.085C22.7109 34.2476 22.8437 34.381 23.0055 34.381C23.1673 34.381 23.3 34.2518 23.3 34.085Z" fill="#CDE3E8"/>
<path d="M19.6567 40.7123C19.6567 40.854 19.1714 40.9415 18.574 40.9457C17.9766 40.9499 17.4912 40.8665 17.4912 40.7248C17.4912 40.5872 17.9766 40.5122 18.574 40.508C19.1714 40.5038 19.6567 40.5705 19.6567 40.7123Z" fill="white"/>
<path d="M19.657 40.7034C19.5865 40.8284 19.1218 40.916 18.5742 40.9202C17.9768 40.9243 17.4873 40.8493 17.4873 40.6992L17.4915 40.8868C17.4956 41.0327 17.981 41.1202 18.5742 41.1161C19.1675 41.1119 19.6487 41.0202 19.6528 40.8743C19.6528 40.8743 19.6611 40.6909 19.657 40.7034Z" fill="#CDE3E8"/>
<path d="M18.6162 40.745L18.2221 40.7492V39.5445C18.2221 39.5445 18.0271 39.0693 18.0105 38.6983C17.9897 38.3439 17.9897 38.3439 17.9814 34.4922C17.9814 34.4922 18.3009 34.5089 18.583 34.5089C18.5871 38.248 18.6162 40.745 18.6162 40.745Z" fill="#CDE3E8"/>
<path d="M18.5498 34.5809L19.1181 34.5684C19.1181 34.5684 19.1638 38.6119 19.1513 38.8495C19.1347 39.0829 19.0435 39.3705 19.0144 39.5206C19.0144 39.6999 19.0269 40.7503 19.0269 40.7503L18.5913 40.7962L18.5498 34.5809Z" fill="white"/>
<path d="M19.2957 34.459L17.8354 34.4673C17.823 34.4673 17.8147 34.484 17.8147 34.5048C17.8147 34.5257 17.823 34.5424 17.8354 34.5424H17.8977L17.8935 34.6591H17.8313C17.8188 34.6591 17.8105 34.6674 17.8105 34.6841C17.8105 34.7008 17.8188 34.7216 17.8313 34.7216H17.8935V34.8175H17.8313C17.8188 34.8175 17.8105 34.83 17.8105 34.8467C17.8105 34.8633 17.8188 34.8758 17.8313 34.8758L19.2916 34.8675C19.304 34.8675 19.3123 34.855 19.3123 34.8383C19.3123 34.8217 19.304 34.8091 19.2916 34.8091H19.2293V34.7091H19.2916C19.304 34.7091 19.3123 34.6966 19.3123 34.6799C19.3123 34.6632 19.304 34.6507 19.2916 34.6507H19.2293V34.5299H19.2916C19.304 34.5299 19.3123 34.5132 19.3123 34.4923C19.3206 34.4757 19.3082 34.459 19.2957 34.459Z" fill="white"/>
<path d="M17.6404 38.4682L17.6279 31.3025C17.6279 31.2733 17.6487 31.2525 17.6777 31.2525L19.4159 31.2441C19.4284 31.2441 19.4408 31.2483 19.4533 31.2608C19.4616 31.2692 19.4699 31.2817 19.4699 31.2983L19.4865 38.4474C19.4865 38.4641 19.4782 38.4808 19.4657 38.4891C19.4574 38.4933 19.3662 38.5558 19.1338 38.5766C18.9928 38.5975 18.8061 38.6016 18.5696 38.6058C18.3415 38.61 18.1299 38.5975 17.9805 38.5808C17.7856 38.5558 17.686 38.5266 17.6819 38.5266C17.6736 38.5224 17.6653 38.5183 17.6611 38.5141C17.6445 38.4974 17.6404 38.4849 17.6404 38.4682ZM17.7399 38.4307C17.7814 38.4391 17.8644 38.4599 17.9847 38.4724C18.1299 38.4891 18.3373 38.5016 18.5613 38.4974C18.7937 38.4933 18.9803 38.4849 19.1172 38.4682C19.2293 38.4599 19.3039 38.4391 19.3454 38.4266C19.362 38.4224 19.3703 38.4182 19.3786 38.414L19.362 31.3442L17.7233 31.3525L17.7399 38.4307Z" fill="white"/>
<path d="M17.6321 31.304L17.6279 31.2957L17.6321 31.2832C17.6362 31.2623 17.6487 31.2498 17.657 31.2373C17.686 31.2123 17.7192 31.1915 17.769 31.179C17.8934 31.1456 18.0967 31.1206 18.2004 31.0872C18.2212 31.0831 18.2378 31.0747 18.2461 31.0706C18.2502 30.9789 18.2585 30.562 18.2585 30.562V30.512L18.8642 30.5078V30.5578C18.8642 30.5578 18.8642 30.9455 18.8683 31.0581C18.8808 31.0622 18.9015 31.0706 18.9223 31.0747C18.9679 31.0872 19.026 31.1039 19.0882 31.1164C19.2293 31.1498 19.3745 31.1581 19.445 31.2206C19.4574 31.2332 19.4699 31.2498 19.4699 31.2665V31.2832V34.4638V34.5138L17.6404 34.5263L17.6321 31.304ZM17.7441 34.4263L19.3745 34.4138V31.2915V31.2873C19.3454 31.2707 19.1961 31.2373 19.0716 31.2165C18.9347 31.1831 18.8393 31.1664 18.7895 31.1248C18.7895 31.1206 18.7895 31.1206 18.7854 31.1206C18.7812 31.1164 18.7729 31.1081 18.7729 31.0914C18.7688 31.0456 18.7688 30.7329 18.7646 30.6079H18.3581C18.3539 30.7371 18.3498 31.0622 18.3498 31.0872C18.3498 31.1081 18.3373 31.1248 18.329 31.1331C18.2751 31.1789 18.1963 31.1873 18.0884 31.2123C17.9847 31.2331 17.8685 31.254 17.7939 31.2707C17.7648 31.279 17.7399 31.2915 17.7316 31.2998L17.7441 34.4263Z" fill="white"/>
<path d="M18.624 29.2186H18.512L18.5078 26.1172L18.6198 26.3965L18.624 29.2186Z" fill="white"/>
<path d="M18.707 29.3498C18.707 29.3498 18.6863 29.2664 18.6822 29.2539L18.6573 29.2581L18.6241 29.3206V29.8667C18.6241 29.8917 18.5992 29.9125 18.566 29.9125C18.5328 29.9125 18.5079 29.8917 18.5079 29.8667V29.3289L18.4706 29.2623C18.4706 29.2623 18.4457 29.2539 18.4415 29.2581C18.4291 29.2664 18.4167 29.3623 18.4167 29.3623C18.4167 29.3623 18.3835 29.3665 18.3669 29.3748C18.3503 29.3831 18.3752 29.775 18.3835 29.8375C18.3918 29.9 18.3254 29.9709 18.2963 30.0293C18.2673 30.0918 18.2051 30.7379 18.2051 30.7504C18.2051 30.7504 18.2673 30.7504 18.5701 30.7588C18.8357 30.7588 18.9186 30.7463 18.9186 30.7463C18.9186 30.7296 18.8688 30.0876 18.8398 30.0251C18.8066 29.9626 18.7361 29.8875 18.7444 29.825C18.7527 29.7625 18.7734 29.3665 18.7568 29.3581C18.7402 29.354 18.707 29.3498 18.707 29.3498Z" fill="white"/>
<path d="M18.458 29.2645C18.458 29.227 18.5036 29.1895 18.5617 29.1895C18.6198 29.1895 18.6654 29.2228 18.6654 29.2603C18.6654 29.2603 18.6115 29.2645 18.5576 29.2645C18.4995 29.2645 18.458 29.2645 18.458 29.2645Z" fill="white"/>
<path d="M18.9764 30.7518C18.9764 30.7685 18.9598 30.781 18.9391 30.781L18.1633 30.7852C18.1426 30.7852 18.126 30.7727 18.126 30.756C18.126 30.7393 18.1426 30.7268 18.1633 30.7268L18.9391 30.7227C18.9598 30.7227 18.9764 30.7352 18.9764 30.7518Z" fill="white"/>
<path opacity="0.92" d="M17.9687 31.6854C17.9604 31.6854 17.9521 31.6813 17.9521 31.6729C17.9521 31.6646 17.9604 31.6604 17.9687 31.6604L18.8856 31.6562C18.8939 31.6562 18.9022 31.6604 18.9022 31.6688C18.9022 31.6771 18.8939 31.6813 18.8856 31.6813L17.9687 31.6854Z" fill="white"/>
<path opacity="0.92" d="M17.9727 32.9159C17.9644 32.9159 17.9561 32.9117 17.9561 32.9034C17.9561 32.895 17.9644 32.8909 17.9727 32.8909L18.8936 32.8867C18.9019 32.8867 18.9061 32.8909 18.9061 32.8992C18.9061 32.9076 18.9019 32.9117 18.8936 32.9117L17.9727 32.9159Z" fill="white"/>
<path opacity="0.92" d="M17.9727 34.1698C17.9644 34.1698 17.9561 34.1656 17.9561 34.1573C17.9561 34.149 17.9644 34.1448 17.9727 34.1448L18.8895 34.1406C18.8978 34.1406 18.9019 34.1448 18.9019 34.1531C18.9019 34.1615 18.8936 34.1656 18.8895 34.1656L17.9727 34.1698Z" fill="white"/>
<path opacity="0.92" d="M17.9687 31.9139C17.9604 31.9139 17.9521 31.9098 17.9521 31.9014C17.9521 31.8931 17.9604 31.8889 17.9687 31.8889L18.3836 31.8848C18.3919 31.8848 18.4002 31.8889 18.4002 31.8973C18.4002 31.9056 18.3919 31.9098 18.3836 31.9098L17.9687 31.9139Z" fill="white"/>
<path opacity="0.92" d="M17.9687 32.1659C17.9604 32.1659 17.9521 32.1617 17.9521 32.1534C17.9521 32.1451 17.9604 32.1409 17.9687 32.1409L18.3836 32.1367C18.3919 32.1367 18.4002 32.1409 18.4002 32.1492C18.4002 32.1534 18.3919 32.1617 18.3836 32.1617L17.9687 32.1659Z" fill="white"/>
<path opacity="0.92" d="M17.9685 32.4198C17.9602 32.4198 17.9561 32.4156 17.9561 32.4073C17.9561 32.399 17.9602 32.3948 17.9685 32.3948L18.3834 32.3906C18.3916 32.3906 18.3999 32.3948 18.3999 32.4031C18.3999 32.4073 18.3916 32.4156 18.3834 32.4156L17.9685 32.4198Z" fill="white"/>
<path opacity="0.92" d="M17.9727 32.6698C17.9644 32.6698 17.9561 32.6656 17.9561 32.6573C17.9561 32.649 17.9644 32.6448 17.9727 32.6448L18.3875 32.6406C18.3958 32.6406 18.3999 32.6448 18.3999 32.6531C18.3999 32.6573 18.3958 32.6656 18.3834 32.6656L17.9727 32.6698Z" fill="white"/>
<path opacity="0.92" d="M17.9727 33.1698C17.9644 33.1698 17.9561 33.1656 17.9561 33.1573C17.9561 33.1531 17.9644 33.1448 17.9727 33.1448L18.3875 33.1406C18.3958 33.1406 18.4041 33.1448 18.4041 33.1531C18.4041 33.1615 18.3958 33.1656 18.3875 33.1656L17.9727 33.1698Z" fill="white"/>
<path opacity="0.92" d="M17.9727 33.4198C17.9644 33.4198 17.9602 33.4156 17.9561 33.4073C17.9561 33.4031 17.9644 33.3948 17.9727 33.3948L18.3875 33.3906C18.3958 33.3906 18.4041 33.3948 18.4041 33.4031C18.4041 33.4073 18.3999 33.4156 18.3917 33.4156L17.9727 33.4198Z" fill="white"/>
<path opacity="0.92" d="M17.9734 33.6696C17.9651 33.6696 17.9609 33.6654 17.9609 33.657C17.9609 33.6487 17.9651 33.6445 17.9734 33.6445H18.3882C18.3965 33.6445 18.4007 33.6487 18.4007 33.657C18.4007 33.6654 18.3965 33.6696 18.3882 33.6696H17.9734Z" fill="white"/>
<path opacity="0.92" d="M17.9727 33.9198C17.9644 33.9198 17.9561 33.9156 17.9561 33.9073C17.9561 33.9031 17.9644 33.8948 17.9727 33.8948L18.3875 33.8906C18.3958 33.8906 18.4041 33.8948 18.3999 33.9031C18.3999 33.9073 18.3958 33.9156 18.3875 33.9156L17.9727 33.9198Z" fill="white"/>
<path d="M19.125 31.7468V31.6259L19.0959 31.6551L19.0752 31.6426L19.1333 31.5801H19.1582V31.7468H19.125Z" fill="white"/>
<path d="M19.0469 32.8667C19.051 32.8375 19.0759 32.8125 19.1174 32.8125C19.1962 32.8125 19.217 32.8792 19.163 32.9125C19.134 32.9334 19.1257 32.9376 19.0967 32.9542H19.1921V32.9751H19.0469V32.9584L19.1423 32.8917C19.1755 32.875 19.1672 32.8334 19.1174 32.8334C19.0925 32.8334 19.0801 32.8459 19.0759 32.8667H19.0469Z" fill="white"/>
<path d="M19.0959 34.1256H19.125C19.1457 34.1256 19.154 34.1131 19.154 34.1005C19.154 34.0839 19.1333 34.0755 19.1125 34.0755C19.0959 34.0755 19.0793 34.0839 19.0752 34.0964L19.0503 34.0922C19.0586 34.0672 19.0835 34.0547 19.1125 34.0547C19.1457 34.0547 19.183 34.0672 19.183 34.1005C19.183 34.1131 19.1789 34.1256 19.1623 34.1339C19.1789 34.1422 19.1872 34.1547 19.1872 34.1714C19.1872 34.1964 19.1623 34.2173 19.1125 34.2214C19.0669 34.2214 19.0461 34.2006 19.042 34.1798L19.071 34.1756C19.0752 34.1881 19.0876 34.2006 19.1125 34.2006C19.1457 34.2006 19.1623 34.1881 19.1582 34.1714C19.1582 34.1631 19.1498 34.1506 19.1208 34.1506H19.0918L19.0959 34.1256Z" fill="white"/>
<path d="M17.1182 38.4562C17.1182 38.5438 17.7653 38.6146 18.5618 38.6105C19.3584 38.6063 20.0014 38.5313 20.0014 38.4396C20.0014 38.352 19.3542 38.2812 18.5577 38.2853C17.7612 38.2895 17.1182 38.3645 17.1182 38.4562ZM17.811 38.4354C17.811 38.3937 18.147 38.3604 18.5618 38.3562C18.9767 38.352 19.3127 38.3854 19.3127 38.4271C19.3127 38.4687 18.9767 38.5021 18.5618 38.5063C18.147 38.5063 17.811 38.4771 17.811 38.4354Z" fill="white"/>
<path d="M18.5618 38.616C17.7653 38.6201 17.1182 38.5493 17.1182 38.4617V38.6118C17.1223 38.7035 17.7653 38.7702 18.5618 38.766C19.3542 38.7619 19.9972 38.6868 20.0014 38.5951V38.4492C19.9765 38.5368 19.3418 38.6076 18.5618 38.616Z" fill="#CDE3E8"/>
<path d="M18.5703 38.0547H17.9854V38.4632H18.5703V38.0547Z" fill="#CDE3E8"/>
<defs>
<linearGradient id="paint0_linear_1132_5817" x1="12.2455" y1="52.6453" x2="41.4379" y2="20.8263" gradientUnits="userSpaceOnUse">
<stop offset="0.1813" stop-color="white"/>
<stop offset="0.2616" stop-color="#FAFAFA"/>
<stop offset="0.3631" stop-color="#EAEAEA"/>
<stop offset="0.476" stop-color="#D0D0D0"/>
<stop offset="0.5973" stop-color="#ACACAC"/>
<stop offset="0.7252" stop-color="#7D7D7D"/>
<stop offset="0.8588" stop-color="#454545"/>
<stop offset="0.9945" stop-color="#030303"/>
<stop offset="1"/>
</linearGradient>
<linearGradient id="paint1_linear_1132_5817" x1="29.1883" y1="48.3535" x2="37.8743" y2="35.2431" gradientUnits="userSpaceOnUse">
<stop offset="0.1813" stop-color="white"/>
<stop offset="0.2842" stop-color="#E6E6E6"/>
<stop offset="0.5036" stop-color="#A5A5A5"/>
<stop offset="0.8192" stop-color="#3E3E3E"/>
<stop offset="1"/>
</linearGradient>
<linearGradient id="paint2_linear_1132_5817" x1="40.0096" y1="34.1408" x2="41.3195" y2="25.7829" gradientUnits="userSpaceOnUse">
<stop offset="0.1044" stop-color="white"/>
<stop offset="0.206" stop-color="#FBFBFB"/>
<stop offset="0.2967" stop-color="#F1F1F1"/>
<stop offset="0.3832" stop-color="#DEDEDE"/>
<stop offset="0.4673" stop-color="#C5C5C5"/>
<stop offset="0.5494" stop-color="#A4A4A4"/>
<stop offset="0.6302" stop-color="#7B7B7B"/>
<stop offset="0.71" stop-color="#4B4B4B"/>
<stop offset="0.7869" stop-color="#141414"/>
<stop offset="0.8132"/>
</linearGradient>
</defs>
</svg>
