<svg width="50" height="35" viewBox="0 0 50 35" fill="none" xmlns="http://www.w3.org/2000/svg">
<path d="M49.9917 5.62346C49.9917 8.72955 47.4466 11.2469 44.3062 11.2469C41.1658 11.2469 38.6206 8.72955 38.6206 5.62346C38.6206 2.51737 41.1658 0 44.3062 0C47.4466 0 49.9917 2.51737 49.9917 5.62346Z" fill="#FF7C24"/>
<path d="M47.443 4.23838H45.7087V2.52292C45.7087 2.40111 45.6112 2.30469 45.488 2.30469H43.1327C43.0096 2.30469 42.9121 2.40111 42.9121 2.52292V4.23838H41.1777C41.0545 4.23838 40.957 4.33481 40.957 4.45662V6.7862C40.957 6.90801 41.0545 7.00444 41.1777 7.00444H42.9121V8.7199C42.9121 8.8417 43.0096 8.93813 43.1327 8.93813H45.488C45.6112 8.93813 45.7087 8.8417 45.7087 8.7199V7.00444H47.443C47.5662 7.00444 47.6637 6.90801 47.6637 6.7862V4.45662C47.6637 4.33988 47.5611 4.23838 47.443 4.23838Z" fill="white"/>
<path d="M41.3483 15.0194H16.1789C16.0353 12.5122 13.9365 10.5176 11.3657 10.5176C8.69742 10.5176 6.53711 12.6543 6.53711 15.2935C6.53711 17.9326 8.69742 20.0693 11.3657 20.0693C13.2746 20.0693 14.9166 18.9731 15.7017 17.3845V24.3275H43.1237V17.2018C43.1237 16.004 42.3284 15.0194 41.3483 15.0194Z" fill="#FF7C24"/>
<path d="M14.9324 24.3242H3.58179C3.11483 24.3242 2.72998 23.9436 2.72998 23.4817V20.2487C2.72998 19.7869 3.11483 19.4062 3.58179 19.4062H14.9324C15.3993 19.4062 15.7842 19.7869 15.7842 20.2487V23.4817C15.7842 23.9436 15.3993 24.3242 14.9324 24.3242Z" fill="white"/>
<path d="M49.3534 16.446H44.0938C43.7397 16.446 43.4524 16.7302 43.4524 17.0804V24.0438H6.54249V7.1937C6.54249 6.7623 6.18842 6.41211 5.75225 6.41211H0.790219C0.354053 6.41211 0 6.7623 0 7.1937V34.0675C0 34.4989 0.354053 34.8491 0.790219 34.8491H5.75225C6.18842 34.8491 6.54249 34.4989 6.54249 34.0675V29.2409H43.4575V34.2147C43.4575 34.5649 43.7449 34.8491 44.0989 34.8491H49.3586C49.7126 34.8491 50 34.5649 50 34.2147V17.0804C49.9949 16.7302 49.7075 16.446 49.3534 16.446Z" fill="white"/>
</svg>
