<svg width="45" height="46" viewBox="0 0 45 46" fill="none" xmlns="http://www.w3.org/2000/svg">
<path d="M12.3722 5.94492L15.1027 17.554L9.51992 16.4855L9.45898 10.6086L12.3722 5.94492Z" fill="#205F89"/>
<path d="M4.06514 6.7957L1.7002 17.403L7.33838 20.7811L6.97284 8.17031L4.06514 6.7957Z" fill="#0A3960"/>
<path d="M16.5601 18.9222V18.8332C16.1502 16.0895 14.4831 16.4568 10.3736 14.509L6.57972 14.5702C2.81909 16.2453 0.515066 16.8575 0.454143 19.2951L0 23.4078H16.9533L16.5601 18.9222Z" fill="white"/>
<path d="M6.47413 12.8816C6.42983 13.6107 5.97567 15.1189 5.29443 15.6253C6.01997 16.9053 7.65936 18.2743 8.3849 18.369C8.34059 15.5808 8.3849 12.8816 8.3849 12.8816H6.47413Z" fill="#CDE3E8"/>
<path d="M10.2521 12.8816C10.2964 13.6107 10.7505 15.1189 11.4373 15.6253C10.7062 16.9053 9.07239 18.2743 8.34131 18.369C8.38562 15.5808 8.34131 12.8816 8.34131 12.8816H10.2521Z" fill="white"/>
<path opacity="0.4" d="M10.4496 13.1172L5.22125 19.8344L2.23047 17.4803L7.45326 10.7631L10.4496 13.1172Z" fill="url(#paint0_linear_1189_13617)"/>
<path d="M5.06198 5.71218C4.65213 6.47462 4.85706 7.47637 4.91244 8.50037C4.65767 8.56715 4.51367 8.75081 4.51367 9.24055C4.51367 9.96959 4.84045 11.1216 5.34999 11.283C5.41645 11.4611 5.48844 11.6336 5.56598 11.8005C5.57152 11.8117 5.57706 11.8228 5.5826 11.8284C5.75983 12.1846 5.95367 12.5073 6.16967 12.7967C6.2749 12.9359 6.38014 13.0639 6.49091 13.1863C7.05584 13.804 7.71491 14.1769 8.42384 14.2381V3.78105C7.22753 3.78662 5.72659 4.48226 5.06198 5.71218Z" fill="#CDE3E8"/>
<path d="M8.37939 3.78085V14.2379C9.08832 14.1767 9.74739 13.7983 10.3068 13.1861C10.4175 13.0637 10.5228 12.9357 10.628 12.7965C10.8385 12.5071 11.0379 12.1844 11.2151 11.8282C11.2206 11.8226 11.2262 11.8115 11.2317 11.8004C11.3092 11.6334 11.3812 11.4609 11.4477 11.2828C11.9572 11.1214 12.284 9.96939 12.284 9.24035C12.284 8.75061 12.1345 8.56695 11.8852 8.50017C11.9351 7.47617 12.1456 6.47442 11.7357 5.71198C11.0711 4.48207 9.56463 3.78642 8.37939 3.78085Z" fill="white"/>
<path d="M8.38409 3.55298C7.56439 3.28028 5.72562 3.5808 4.92808 4.60481C3.74838 6.11299 3.7927 9.01804 3.7927 9.01804L5.29362 8.81212C5.29362 8.81212 5.73116 6.95333 7.37055 6.31333C8.60563 5.82916 8.38409 3.55298 8.38409 3.55298Z" fill="#0A3960"/>
<path d="M6.70064 4.97137C6.97203 6.34042 9.6748 6.52407 10.5831 6.98042C11.4914 7.43677 11.4803 8.7613 11.4803 8.7613L12.2557 8.53312C12.2557 8.53312 13.164 5.8785 11.4803 4.37589C9.84095 2.91223 8.06863 3.50771 7.34309 3.69137C6.61201 3.86945 6.70064 4.97137 6.70064 4.97137Z" fill="#205F89"/>
<path d="M11.509 3.36102C10.4013 2.63754 9.34347 2.36483 8.40193 2.32031H8.30224C7.36623 2.36483 6.30284 2.63754 5.20068 3.36102C5.7213 4.74676 6.08684 5.61493 6.08684 5.61493C6.88439 5.3311 7.60439 5.2031 8.35208 5.21423C9.10532 5.2031 9.81978 5.3311 10.6173 5.61493C10.6173 5.60937 10.9884 4.74676 11.509 3.36102Z" fill="white"/>
<path d="M9.22045 3.4245H8.76075C8.74967 3.4245 8.74414 3.41893 8.74414 3.4078V2.9459C8.74414 2.9292 8.72752 2.9125 8.71091 2.9125H8.10721C8.0906 2.9125 8.07398 2.9292 8.07398 2.9459V3.4078C8.07398 3.41893 8.06845 3.4245 8.05737 3.4245H7.59768C7.58107 3.4245 7.56445 3.4412 7.56445 3.4579V4.06451C7.56445 4.0812 7.58107 4.0979 7.59768 4.0979H8.05737C8.06845 4.0979 8.07398 4.10346 8.07398 4.11459V4.57651C8.07398 4.5932 8.0906 4.6099 8.10721 4.6099H8.71091C8.72752 4.6099 8.74414 4.5932 8.74414 4.57651V4.11459C8.74414 4.10346 8.74967 4.0979 8.76075 4.0979H9.22045C9.23707 4.0979 9.25368 4.0812 9.25368 4.06451V3.4579C9.25368 3.43564 9.23707 3.4245 9.22045 3.4245Z" fill="#0A3960"/>
<path d="M44.5953 21.3894V21.2948C44.1744 18.4955 43.471 18.0837 39.2839 16.0969L33.8119 16.2137C29.6193 17.6384 28.5448 18.5901 28.1737 21.7623L27.7085 25.9585H44.9996L44.5953 21.3894Z" fill="white"/>
<path d="M34.1115 14.768L33.7349 16.1704L36.3269 18.2685L36.2438 15.0017L34.1115 14.768Z" fill="#CDE3E8"/>
<path d="M38.4148 14.817L38.7859 16.2139L36.1938 18.3119L36.2769 15.0507L38.4148 14.817Z" fill="white"/>
<path d="M33.8669 15.6791C34.1217 16.0074 35.5617 17.0593 36.3426 16.9758C37.1236 16.8923 38.414 16.1967 38.6688 15.6346C38.8848 15.8683 39.6214 16.2356 39.6214 16.2356L36.1876 19.7139L32.9863 16.5417L33.8669 15.6791Z" fill="#CDE3E8"/>
<path opacity="0.4" d="M38.447 15.1618L34.4704 20.2707L31.7344 18.1281L35.711 13.0137L38.447 15.1618Z" fill="url(#paint1_linear_1189_13617)"/>
<path d="M33.8232 14.7982C33.9285 14.9374 34.0393 15.0709 34.15 15.1934C34.15 15.1934 34.15 15.1878 34.15 15.1822C34.0393 15.0709 33.9285 14.9374 33.8232 14.7982Z" fill="white"/>
<path d="M40.4467 11.2252C40.4467 10.7521 40.3083 10.5629 40.0812 10.485C40.1366 9.51665 40.275 8.49265 39.9206 7.78586C39.2504 6.43351 37.4006 5.60429 36.1378 5.60429C34.9249 5.60429 33.3796 6.31664 32.7039 7.57439C32.2885 8.35352 32.499 9.37196 32.5544 10.4182C32.2941 10.485 32.1445 10.6742 32.1445 11.1751C32.1445 11.9208 32.4768 13.0951 32.9975 13.2621C33.0639 13.4457 33.1359 13.6182 33.219 13.7908C33.2245 13.8019 33.2301 13.813 33.2356 13.8186C33.4128 14.1803 33.6178 14.5142 33.8338 14.8036C33.939 14.9428 34.0498 15.0708 34.1605 15.1932C34.1605 15.1988 34.1605 15.1988 34.1605 15.2043C34.7919 15.8944 35.5341 16.2895 36.3372 16.2895C37.5612 16.2895 38.6578 15.3601 39.3999 13.8909C39.4553 13.7796 39.5218 13.685 39.5938 13.596C39.6381 13.4847 39.6824 13.3789 39.7156 13.2676C40.1587 12.9782 40.4467 11.9153 40.4467 11.2252Z" fill="#CDE3E8"/>
<path d="M39.387 13.8854C39.4423 13.7741 39.5088 13.6794 39.5808 13.5904C39.6251 13.4791 39.6694 13.3734 39.7027 13.2621C40.1624 12.9782 40.4448 11.9153 40.4448 11.2252C40.4448 10.7521 40.3064 10.5629 40.0793 10.485C40.1347 9.51665 40.2731 8.49265 39.9187 7.78586C39.254 6.4502 37.4429 5.62099 36.1802 5.60429V16.2728C36.23 16.2728 36.2743 16.284 36.3242 16.284C37.5482 16.284 38.6448 15.3546 39.387 13.8854Z" fill="white"/>
<path d="M38.559 7.35988C38.6365 7.98318 37.4734 7.95535 36.7036 7.82735C35.9282 7.69935 35.474 7.84961 34.754 8.06109C34.0229 8.27257 33.3085 9.02944 33.2088 9.40788C33.1479 9.63605 33.1977 10.7324 33.1977 10.7324L32.5497 10.4263C32.5497 10.4263 32.3392 8.907 32.5719 7.883C32.7934 6.89795 33.2753 6.02422 35.103 5.62909C36.759 5.26735 37.9276 5.48995 37.9774 5.90178C38.1048 5.9296 38.21 5.82387 38.3651 5.82387C38.7528 5.82387 39.3344 6.29691 39.6722 6.8423C40.0045 7.3877 40.4808 8.36162 40.2482 10.0479C40.1983 10.4875 40.1042 10.6044 40.1042 10.6044L39.5614 10.9161C39.5614 10.9161 39.7996 8.79014 38.9245 8.16683C38.6476 7.96648 38.559 7.35988 38.559 7.35988Z" fill="#0A3960"/>
<path d="M38.9173 8.13778C39.7923 8.76108 39.5542 10.8814 39.5542 10.8814L40.0914 10.5698C40.0914 10.5698 40.18 10.4529 40.2354 10.0133C40.468 8.32699 40.1468 7.33082 39.809 6.78543C39.4711 6.24003 38.74 5.78925 38.3523 5.78925C38.2748 5.78925 38.0643 5.8449 38.0034 5.86716C38.1696 6.41812 38.5517 7.20282 38.5462 7.33082C38.5462 7.33082 38.6403 7.93743 38.9173 8.13778Z" fill="#205F89"/>
<path d="M38.5477 7.32987C38.5477 7.36883 38.5422 7.41891 38.5366 7.47457C38.5477 7.43004 38.5532 7.38552 38.5477 7.32987Z" fill="#205F89"/>
<path d="M40.1916 2.17458C40.1916 1.91302 38.5024 1.60136 36.3867 1.60136C34.271 1.60136 32.5264 1.91302 32.5264 2.17458V8.02365C32.5264 8.02365 32.5873 8.01252 32.5873 8.00696C32.5873 7.80661 34.2821 7.52835 36.3978 7.52835C38.2919 7.52835 39.887 7.77322 40.1916 7.94574V2.17458Z" fill="white"/>
<path d="M32.5264 2.17546V8.02452C32.5264 8.02452 32.5873 8.01339 32.5873 8.00783C32.5873 7.80748 34.2821 7.52922 36.3978 7.52922C36.4089 7.52922 36.4199 7.52922 36.431 7.52922V1.59668C36.4144 1.59668 36.4033 1.59668 36.3867 1.59668C34.271 1.60224 32.5264 1.91389 32.5264 2.17546Z" fill="#CDE3E8"/>
<path d="M37.6701 4.14797H36.9446C36.928 4.14797 36.9169 4.13684 36.9169 4.12014V3.3911C36.9169 3.36327 36.8948 3.34101 36.8671 3.34101H35.9145C35.8868 3.34101 35.8646 3.36327 35.8646 3.3911V4.12014C35.8646 4.13684 35.8535 4.14797 35.8369 4.14797H35.1114C35.0837 4.14797 35.0615 4.17023 35.0615 4.20362V5.16085C35.0615 5.18867 35.0837 5.21093 35.1114 5.21093H35.8369C35.8535 5.21093 35.8646 5.22206 35.8646 5.23876V5.9678C35.8646 5.99563 35.8868 6.01789 35.9145 6.01789H36.8671C36.8948 6.01789 36.9169 5.99563 36.9169 5.9678V5.23876C36.9169 5.22206 36.928 5.21093 36.9446 5.21093H37.6701C37.7034 5.21093 37.7255 5.18867 37.7255 5.16085V4.20362C37.7255 4.17023 37.7034 4.14797 37.6701 4.14797Z" fill="#0A3960"/>
<path d="M35.0803 23.9664V23.8273C34.4545 19.6255 33.3966 19.0022 27.0938 16.0137L18.8636 16.1862C12.5608 18.3344 10.9491 19.7591 10.3897 24.5229L9.69189 30.8283H35.6785L35.0803 23.9664Z" fill="white"/>
<path d="M19.3175 14.0211L18.7637 16.1192L22.6517 19.2691L22.5298 14.3661L19.3175 14.0211Z" fill="#CDE3E8"/>
<path d="M25.7857 14.0861L26.345 16.1898L22.457 19.3397L22.5789 14.4367L25.7857 14.0861Z" fill="white"/>
<path d="M18.9964 15.0029C19.3841 15.4926 21.4112 17.0732 22.5854 16.9507C23.754 16.8283 25.698 15.7765 26.0857 14.9361C26.4069 15.2867 27.6198 16.2328 27.6198 16.2328L22.458 28.3205L17.645 16.6892L18.9964 15.0029Z" fill="#FF7C24"/>
<path d="M18.896 14.0668C19.0511 14.2783 19.2172 14.4786 19.3834 14.6623C19.3834 14.6623 19.3834 14.6567 19.3889 14.6511C19.2172 14.4675 19.0511 14.2727 18.896 14.0668Z" fill="white"/>
<path d="M28.8495 8.69559C28.8495 7.98324 28.6445 7.69941 28.2956 7.58254C28.3787 6.13001 28.5892 4.59401 28.0575 3.52549C27.0495 1.49418 24.2691 0.241993 22.3694 0.241993C20.5473 0.241993 18.2266 1.31608 17.2076 3.20826C16.5817 4.37696 16.8974 5.91297 16.9805 7.48237C16.5928 7.58254 16.3657 7.8608 16.3657 8.61767C16.3657 9.73629 16.8642 11.5005 17.6451 11.7509C17.7448 12.0236 17.8556 12.2852 17.9774 12.5412C17.983 12.5579 17.994 12.569 17.9996 12.5857C18.271 13.1311 18.57 13.6264 18.8968 14.066C19.0574 14.2719 19.218 14.4667 19.3897 14.6504C19.3897 14.656 19.3897 14.6615 19.3842 14.6615C20.3313 15.6967 21.4501 16.2977 22.6519 16.2977C24.4907 16.2977 26.1356 14.9008 27.2544 12.697C27.3375 12.53 27.4371 12.3853 27.5424 12.2573C27.6088 12.0904 27.6698 11.929 27.7252 11.762C28.4175 11.3224 28.8495 9.73072 28.8495 8.69559Z" fill="#CDE3E8"/>
<path d="M27.2547 12.6885C27.3378 12.5215 27.4374 12.3768 27.5427 12.2488C27.6091 12.0874 27.6701 11.9205 27.7255 11.7535C28.4122 11.325 28.8442 9.73335 28.8442 8.69822C28.8442 7.98587 28.6393 7.70204 28.2904 7.58517C28.3734 6.13264 28.5839 4.59664 28.0522 3.52812C27.0553 1.51907 24.3304 0.278021 22.4307 0.250195V16.2836C22.5027 16.2892 22.5747 16.2948 22.6522 16.2948C24.491 16.2892 26.1359 14.8923 27.2547 12.6885Z" fill="white"/>
<path d="M26.0085 2.87712C26.1248 3.81208 24.3802 3.76756 23.2171 3.57834C22.054 3.38356 21.3728 3.6173 20.2873 3.92895C19.1906 4.24617 18.1162 5.38148 17.9611 5.9547C17.8669 6.29418 17.95 7.94148 17.95 7.94148L16.9752 7.48514C16.9752 7.48514 16.5266 5.08095 16.8755 3.54495C17.2134 2.0646 18.0663 0.873634 20.8134 0.272588C23.3057 -0.26724 25.0559 0.0611153 25.1334 0.678856C25.3273 0.717813 25.4823 0.561983 25.715 0.561983C26.2965 0.561983 27.3987 1.24094 27.9027 2.05903C28.4067 2.87712 28.8885 4.37417 28.5396 6.90635C28.4621 7.56861 28.3291 7.74113 28.3291 7.74113L27.515 8.20862C27.515 8.20862 27.875 5.01417 26.5568 4.07922C26.147 3.78426 26.0085 2.87712 26.0085 2.87712Z" fill="#0A3960"/>
<path d="M26.5513 4.04837C27.8694 4.98333 27.5094 8.17221 27.5094 8.17221L28.3181 7.70474C28.3181 7.70474 28.451 7.52665 28.5285 6.86995C28.8774 4.33777 28.3956 2.84072 27.8916 2.02263C27.3876 1.20454 26.2854 0.525585 25.7039 0.525585C25.5876 0.525585 25.2719 0.609059 25.1777 0.64245C25.427 1.46611 26.003 2.6515 25.9974 2.84629C25.9974 2.84072 26.1304 3.75341 26.5513 4.04837Z" fill="#205F89"/>
<path d="M25.9961 2.84003C25.9961 2.89569 25.985 2.97917 25.9795 3.05708C25.9961 2.9903 26.0016 2.92351 25.9961 2.84003Z" fill="#205F89"/>
<mask id="mask0_1189_13617" style="mask-type:luminance" maskUnits="userSpaceOnUse" x="17" y="15" width="11" height="14">
<path d="M18.9307 15.075C19.3184 15.5647 21.3454 17.1452 22.5141 17.0228C23.6882 16.8948 25.6267 15.8485 26.0144 15.0082C26.3356 15.3588 27.5485 16.3049 27.5485 16.3049L22.3867 28.3926L17.5737 16.7612L18.9307 15.075Z" fill="white"/>
</mask>
<g mask="url(#mask0_1189_13617)">
<path d="M23.307 20.1792H22.4541V17.9308H24.1489L24.16 18.8992L23.307 20.1792Z" fill="#2E2E48"/>
<path d="M23.4121 19.8345L24.902 34.0148L22.5481 35.8736L22.4983 35.8235L22.4097 19.8457L23.4121 19.8345Z" fill="#2E2E48"/>
<path d="M21.8025 20.1792H22.5169V17.9308H20.7778L20.7944 18.8992L21.8025 20.1792Z" fill="#006E99"/>
<path d="M21.6798 19.8345L20.1899 34.0148L22.5493 35.8736L22.5161 19.8345H21.6798Z" fill="#006E99"/>
<path d="M23.4457 20.1562H21.6567V19.9892H23.429L23.4457 20.1562Z" fill="#006E99"/>
</g>
<path d="M16.0346 26.9623C15.73 27.0792 15.6026 27.1571 15.5417 27.2239C15.4919 27.2795 15.3645 27.4576 15.3645 27.8416C15.3645 28.1199 15.3146 29.9007 15.7577 31.0472C15.802 31.1362 15.8851 31.1028 15.9294 31.036C15.9903 30.9526 16.0789 30.3348 16.018 30.2847C15.9571 30.2346 15.8242 30.1846 15.7632 30.0733C15.7023 29.9675 15.7799 28.0865 15.8131 27.9919C15.8463 27.8973 15.9626 27.9139 16.0402 27.9251C15.9848 27.4966 16.0346 26.9623 16.0346 26.9623Z" fill="#006E99"/>
<path d="M17.6959 28.0795H4.75247C4.62509 28.0795 4.52539 28.1796 4.52539 28.3076V45.1703C4.52539 45.2927 4.62509 45.3985 4.75247 45.3985H17.6959C17.8233 45.3985 17.923 45.2983 17.923 45.1703V28.3076C17.923 28.1796 17.8233 28.0795 17.6959 28.0795Z" fill="#0A3960"/>
<path d="M16.1898 41.6032C16.1842 41.6087 14.7387 43.1559 14.7553 43.1559H6.42544C6.33129 43.1559 6.25928 43.0835 6.25928 42.9889V30.4894C6.25928 30.3948 6.33129 30.3224 6.42544 30.3224H16.0236C16.1178 30.3224 16.1898 30.3948 16.1898 30.4894V41.6032Z" fill="white"/>
<path d="M13.5578 27.6734H8.89437C8.77807 27.6734 8.68945 27.768 8.68945 27.8793C8.68945 27.9962 8.7836 28.0852 8.89437 28.0852H9.25437C9.20453 28.1632 9.17683 28.2522 9.17683 28.3524C9.17683 28.6251 9.39283 28.8421 9.66421 28.8421H12.7879C13.0593 28.8421 13.2753 28.6195 13.2753 28.3524C13.2753 28.2522 13.2476 28.1632 13.1978 28.0852H13.5578C13.6741 28.0852 13.7627 27.9906 13.7627 27.8793C13.7627 27.768 13.6741 27.6734 13.5578 27.6734Z" fill="#ADADAD"/>
<path d="M14.7443 32.1769H7.71045V32.4663H14.7443V32.1769Z" fill="#CDE3E8"/>
<path d="M14.7443 33.4127H7.71045V33.7021H14.7443V33.4127Z" fill="#CDE3E8"/>
<path d="M14.7443 34.7293H7.71045V35.0187H14.7443V34.7293Z" fill="#CDE3E8"/>
<path d="M14.7443 35.9597H7.71045V36.2491H14.7443V35.9597Z" fill="#CDE3E8"/>
<path d="M14.7443 37.2799H7.71045V37.5692H14.7443V37.2799Z" fill="#CDE3E8"/>
<path d="M14.7443 38.5156H7.71045V38.7994H14.7443V38.5156Z" fill="#CDE3E8"/>
<path d="M14.7443 39.8357H7.71045V40.1251H14.7443V39.8357Z" fill="#CDE3E8"/>
<path d="M14.9208 41.598H16.2002L14.7547 43.1618V41.7705C14.7491 41.6759 14.8267 41.598 14.9208 41.598Z" fill="#ADADAD"/>
<path d="M16.7796 39.3026C16.7796 39.3026 16.6743 39.553 16.6245 39.553C16.5746 39.553 16.4639 39.297 16.4639 39.297L16.7796 39.3026Z" fill="#CDE3E8"/>
<path d="M16.7804 39.3102C16.9078 39.0264 17.0075 38.1527 17.0241 37.9857L16.2266 37.9913C16.2376 38.2584 16.3983 39.1377 16.4647 39.3158C16.6475 39.3102 16.7583 39.3102 16.7804 39.3102Z" fill="white"/>
<path d="M17.0185 38.0113C17.1015 37.6051 17.2622 31.7226 17.2622 31.7226H15.9385C15.9385 31.7226 16.1545 37.6051 16.2375 38.0169C16.7083 38.0225 16.9354 38.0113 17.0185 38.0113Z" fill="#CDE3E8"/>
<path d="M16.603 27.0153L17.2732 26.9708C17.2732 26.9151 17.323 26.1193 16.6086 26.1082C16.6086 26.1082 16.6086 26.1082 16.603 26.1082C16.603 26.1082 16.603 26.1082 16.5975 26.1082C15.883 26.1193 15.9329 26.9151 15.9329 26.9708L16.603 27.0153C16.5975 27.0153 16.5975 27.0153 16.603 27.0153Z" fill="#006E99"/>
<path d="M16.598 31.5403L16.7864 31.5625V31.5236L17.2737 31.5069C17.2737 31.4679 17.3125 27.0547 17.2682 26.8432C16.958 26.8377 16.742 26.8377 16.6036 26.8377C16.4651 26.8377 16.2436 26.8377 15.939 26.8432C15.8891 27.0547 15.9611 31.429 15.9611 31.4679L16.4208 31.5236V31.5625L16.598 31.5403Z" fill="#CDE3E8"/>
<path d="M15.9271 31.7852C15.9105 31.7852 15.8994 31.7741 15.8994 31.7574V31.4235C15.8994 31.4068 15.9105 31.3957 15.9271 31.3957H17.3117C17.3283 31.3957 17.3394 31.4068 17.3394 31.4235V31.7574C17.3394 31.7741 17.3283 31.7852 17.3117 31.7852H15.9271Z" fill="#006E99"/>
<defs>
<linearGradient id="paint0_linear_1189_13617" x1="8.232" y1="20.057" x2="8.91543" y2="10.8746" gradientUnits="userSpaceOnUse">
<stop offset="0.1044" stop-color="white"/>
<stop offset="0.206" stop-color="#FBFBFB"/>
<stop offset="0.2967" stop-color="#F1F1F1"/>
<stop offset="0.3832" stop-color="#DEDEDE"/>
<stop offset="0.4673" stop-color="#C5C5C5"/>
<stop offset="0.5494" stop-color="#A4A4A4"/>
<stop offset="0.6302" stop-color="#7B7B7B"/>
<stop offset="0.71" stop-color="#4B4B4B"/>
<stop offset="0.7869" stop-color="#141414"/>
<stop offset="0.8132"/>
</linearGradient>
<linearGradient id="paint1_linear_1189_13617" x1="37.0594" y1="20.6792" x2="38.1995" y2="13.4045" gradientUnits="userSpaceOnUse">
<stop offset="0.1044" stop-color="white"/>
<stop offset="0.206" stop-color="#FBFBFB"/>
<stop offset="0.2967" stop-color="#F1F1F1"/>
<stop offset="0.3832" stop-color="#DEDEDE"/>
<stop offset="0.4673" stop-color="#C5C5C5"/>
<stop offset="0.5494" stop-color="#A4A4A4"/>
<stop offset="0.6302" stop-color="#7B7B7B"/>
<stop offset="0.71" stop-color="#4B4B4B"/>
<stop offset="0.7869" stop-color="#141414"/>
<stop offset="0.8132"/>
</linearGradient>
</defs>
</svg>
