<svg width="50" height="29" viewBox="0 0 50 29" fill="none" xmlns="http://www.w3.org/2000/svg">
<path d="M13.8448 7.67941H0.243164V27.9488H13.8448V7.67941Z" fill="#0070CD"/>
<path d="M14.0872 7.01577H0V8.44571H14.0872V7.01577Z" fill="white"/>
<path d="M9.99419 17.813H4.09277V27.7995H9.99419V17.813Z" fill="#CECECE"/>
<path d="M9.69971 18.1771H4.3877V27.4296H9.69971V18.1771Z" fill="white"/>
<path d="M7.20707 17.813H6.88086V27.7995H7.20707V17.813Z" fill="#CECECE"/>
<path d="M4.44694 10.9945H1.62598V15.6745H4.44694V10.9945Z" fill="#CECECE"/>
<path d="M4.30584 11.1671H1.7666V15.5033H4.30584V11.1671Z" fill="white"/>
<path d="M3.1137 10.9947H2.95801V15.6746H3.1137V10.9947Z" fill="#CECECE"/>
<path d="M4.44531 13.4187V13.251H1.62527V13.4187H4.44531Z" fill="#CECECE"/>
<path d="M8.45378 10.9947H5.63281V15.6746H8.45378V10.9947Z" fill="#CECECE"/>
<path d="M8.31365 11.1673H5.77441V15.5035H8.31365V11.1673Z" fill="white"/>
<path d="M7.12151 10.9948H6.96582V15.6748H7.12151V10.9948Z" fill="#CECECE"/>
<path d="M8.45312 13.4189V13.2512H5.63309V13.4189H8.45312Z" fill="#CECECE"/>
<path d="M12.4626 10.9948H9.6416V15.6748H12.4626V10.9948Z" fill="#CECECE"/>
<path d="M12.3224 11.1673H9.7832V15.5035H12.3224V11.1673Z" fill="white"/>
<path d="M11.1303 10.9948H10.9746V15.6748H11.1303V10.9948Z" fill="#CECECE"/>
<path d="M12.4619 13.4189V13.2512H9.64188V13.4189H12.4619Z" fill="#CECECE"/>
<path d="M14.0872 26.7913H0V28.2213H14.0872V26.7913Z" fill="white"/>
<path d="M49.7588 7.67955H36.1572V27.949H49.7588V7.67955Z" fill="#0070CD"/>
<path d="M50.0004 7.01591H35.9141V8.44586H50.0004V7.01591Z" fill="white"/>
<path d="M45.9082 17.8132H40.0068V27.7996H45.9082V17.8132Z" fill="#CECECE"/>
<path d="M45.6147 18.1773H40.3027V27.4297H45.6147V18.1773Z" fill="white"/>
<path d="M43.1211 17.8132H42.7949V27.7996H43.1211V17.8132Z" fill="#CECECE"/>
<path d="M40.3591 10.9946H37.5381V15.6746H40.3591V10.9946Z" fill="#CECECE"/>
<path d="M40.2189 11.1673H37.6797V15.5034H40.2189V11.1673Z" fill="white"/>
<path d="M39.0268 10.9948H38.8711V15.6748H39.0268V10.9948Z" fill="#CECECE"/>
<path d="M40.3584 13.4189V13.2511H37.5384V13.4189H40.3584Z" fill="#CECECE"/>
<path d="M44.3678 10.9948H41.5469V15.6748H44.3678V10.9948Z" fill="#CECECE"/>
<path d="M44.2277 11.1674H41.6885V15.5036H44.2277V11.1674Z" fill="white"/>
<path d="M43.0356 10.995H42.8799V15.675H43.0356V10.995Z" fill="#CECECE"/>
<path d="M44.3672 13.4191V13.2513H41.5471V13.4191H44.3672Z" fill="#CECECE"/>
<path d="M48.3757 10.995H45.5547V15.675H48.3757V10.995Z" fill="#CECECE"/>
<path d="M48.2365 11.1674H45.6973V15.5036H48.2365V11.1674Z" fill="white"/>
<path d="M47.0434 10.995H46.8877V15.675H47.0434V10.995Z" fill="#CECECE"/>
<path d="M48.375 13.4191V13.2513H45.555V13.4191H48.375Z" fill="#CECECE"/>
<path d="M50.0004 26.7915H35.9141V28.2214H50.0004V26.7915Z" fill="white"/>
<path opacity="0.12" d="M36.7192 8.73798H13.2822V28.2188H36.7192V8.73798Z" fill="white"/>
<path d="M36.3805 0.37606H13.6182V28.2196H36.3805V0.37606Z" fill="#0070CD"/>
<path d="M30.4906 17.6028H19.5107V26.3604H30.4906V17.6028Z" fill="#CECECE"/>
<path d="M30.0313 17.9693H19.9707V25.9929H30.0313V17.9693Z" fill="white"/>
<path d="M25.209 17.6627H24.791V26.3008H25.209V17.6627Z" fill="#CECECE"/>
<path d="M31.0787 25.4504H18.9219V26.6005H31.0787V25.4504Z" fill="white"/>
<path d="M30.8971 17.4406H19.1035V18.2357H30.8971V17.4406Z" fill="white"/>
<path d="M19.8575 11.3038H16.6631V15.7642H19.8575V11.3038Z" fill="#CECECE"/>
<path d="M19.6989 11.4667H16.8232V15.5999H19.6989V11.4667Z" fill="white"/>
<path d="M18.3489 11.3038H18.1719V15.7642H18.3489V11.3038Z" fill="#CECECE"/>
<path d="M19.8564 13.6142V13.4548H16.6639V13.6142H19.8564Z" fill="#CECECE"/>
<path d="M24.3497 11.3038H21.1553V15.7642H24.3497V11.3038Z" fill="#CECECE"/>
<path d="M24.1911 11.4667H21.3154V15.5999H24.1911V11.4667Z" fill="white"/>
<path d="M22.8411 11.3038H22.6641V15.7642H22.8411V11.3038Z" fill="#CECECE"/>
<path d="M24.3486 13.6142V13.4548H21.156V13.6142H24.3486Z" fill="#CECECE"/>
<path d="M28.8419 11.3038H25.6475V15.7642H28.8419V11.3038Z" fill="#CECECE"/>
<path d="M28.6833 11.4667H25.8076V15.5999H28.6833V11.4667Z" fill="white"/>
<path d="M27.3342 11.3038H27.1572V15.7642H27.3342V11.3038Z" fill="#CECECE"/>
<path d="M28.8408 13.6142V13.4548H25.6482V13.6142H28.8408Z" fill="#CECECE"/>
<path d="M33.3351 11.3038H30.1406V15.7642H33.3351V11.3038Z" fill="#CECECE"/>
<path d="M33.1764 11.4667H30.3008V15.5999H33.1764V11.4667Z" fill="white"/>
<path d="M31.8264 11.3038H31.6494V15.7642H31.8264V11.3038Z" fill="#CECECE"/>
<path d="M33.334 13.6142V13.4548H30.1414V13.6142H33.334Z" fill="#CECECE"/>
<path d="M36.3805 26.4007H13.6182V28.2199H36.3805V26.4007Z" fill="white"/>
<path d="M36.7579 0H13.2412V1.85717H36.7579V0Z" fill="white"/>
<path d="M27.1413 9.45619C28.8393 8.27522 29.2585 5.94131 28.0775 4.24327C26.8966 2.54523 24.5627 2.12607 22.8646 3.30704C21.1666 4.48802 20.7474 6.82192 21.9284 8.51996C23.1094 10.218 25.4433 10.6372 27.1413 9.45619Z" fill="white"/>
<path d="M25.7748 8.99474H24.2244C24.1623 8.99474 24.1113 8.94377 24.1113 8.88168V3.88567C24.1113 3.82358 24.1623 3.77261 24.2244 3.77261H25.7748C25.8369 3.77261 25.8879 3.82358 25.8879 3.88567V8.88168C25.8888 8.94377 25.8378 8.99474 25.7748 8.99474Z" fill="#0070CD"/>
<path d="M22.3887 7.1583V5.60788C22.3887 5.54579 22.4396 5.49482 22.5017 5.49482H27.4977C27.5598 5.49482 27.6108 5.54579 27.6108 5.60788V7.1583C27.6108 7.22039 27.5598 7.27136 27.4977 7.27136H22.5017C22.4396 7.27136 22.3887 7.22039 22.3887 7.1583Z" fill="#0070CD"/>
</svg>
