<svg width="40" height="40" viewBox="0 0 40 40" fill="none" xmlns="http://www.w3.org/2000/svg">
<path d="M40 14.1431L31.8285 2.41417L27.1226 5.72562V0H12.8774V5.72562L8.17151 2.41417L0 14.1431L7.58327 19.4771L0 24.811L8.17151 36.5399L12.8774 33.2285V39.0467H27.1226V33.2285L31.8285 36.5399L40 24.811L32.4167 19.4771L40 14.1431Z" fill="white"/>
<path d="M17.6549 18.8631C17.7683 18.8631 17.8534 18.7776 17.8534 18.6637C17.8534 18.5498 17.7683 18.4643 17.6549 18.4643C17.5486 18.4643 17.4565 18.5498 17.4565 18.6637C17.4565 18.7776 17.5486 18.8631 17.6549 18.8631ZM22.7648 18.4928C22.6585 18.4928 22.5663 18.5854 22.5663 18.6922C22.5663 18.799 22.6514 18.8916 22.7648 18.8916C22.8782 18.8916 22.9632 18.799 22.9632 18.6922C22.9632 18.5782 22.8782 18.4928 22.7648 18.4928ZM20.2346 11.82C21.0497 11.82 21.7088 12.4823 21.7088 13.3013C21.7088 13.9137 21.3402 14.4336 20.8158 14.6615C20.8087 15.0674 20.7662 17.9444 20.7095 21.3841L19.7527 20.9425C19.7031 17.6952 19.6606 15.046 19.6535 14.6615C19.129 14.4336 18.7605 13.9137 18.7605 13.3013C18.7605 12.4823 19.4196 11.82 20.2346 11.82ZM12.1765 16.1783C12.1765 16.1783 11.5954 16.1285 11.319 15.5944C11.0426 15.0603 11.1489 14.9392 11.1489 14.9392C11.1489 14.9392 14.5436 14.9463 16.2304 14.9534C16.1383 14.8324 16.0461 14.7042 15.9611 14.5618L10.3197 14.6045C10.3197 14.6045 9.73854 14.5546 9.46214 14.0205C9.18574 13.4864 9.29205 13.3654 9.29205 13.3654C9.29205 13.3654 13.7357 13.3725 15.3728 13.3796C15.3374 13.2728 15.302 13.166 15.2665 13.052H7.2722C7.2722 13.052 6.69106 13.0022 6.41466 12.4681C6.13826 11.934 6.24456 11.8129 6.24456 11.8129C6.24456 11.8129 13.4664 11.8129 15.0681 11.8129C15.0681 11.6918 15.061 11.5708 15.0681 11.4497H5.70594C5.70594 11.4497 5.12479 11.3999 4.84839 10.8658C4.57199 10.3317 4.6783 10.2106 4.6783 10.2106C4.6783 10.2106 14.8696 10.2106 15.0894 10.2106C15.3091 10.2106 15.9753 10.175 16.195 10.8373C16.4147 11.4996 16.2446 12.4325 16.8966 13.6858C17.577 14.9962 18.5904 15.6442 18.881 15.8294C19.1787 16.0145 19.4338 16.4774 18.9944 16.7694C18.5054 17.097 17.6903 16.5273 17.3856 16.1926L12.1765 16.1783ZM18.0022 32.7854C17.903 32.6786 17.8604 31.7315 18.2148 31.3754L19.696 32.0591C19.0511 32.351 18.4416 32.6145 18.0022 32.7854ZM20.4827 34.3379C20.4473 34.6228 20.3764 34.9646 20.2417 35.0002H20.2346C20.2276 35.0002 20.2205 35.0002 20.2205 35.0002C20.0858 34.9646 20.022 34.6156 19.9866 34.3379C19.9795 34.2809 19.9582 33.4549 19.937 32.173L20.5252 32.4436C20.504 33.5688 20.4898 34.2809 20.4827 34.3379ZM22.5663 32.8851C21.0568 32.2941 17.5486 30.6205 17.3785 30.4852C17.0809 30.236 16.9037 29.6734 17.4423 29.2034C17.5628 29.0966 17.9667 28.8829 18.4841 28.6265L19.6251 29.1678L19.6181 29.3743C19.207 29.5523 18.9022 29.7446 18.8881 29.7802C18.8101 29.9298 21.9214 31.1831 22.2687 31.411C22.7152 31.6887 22.6797 32.7783 22.5663 32.8851ZM19.8874 29.2888L20.5748 29.6093C20.5748 29.8087 20.5677 30.0081 20.5677 30.2004L19.9015 29.887C19.8945 29.6876 19.8874 29.4882 19.8874 29.2888ZM23.19 30.3855C23.1333 30.4283 22.7222 30.6419 22.134 30.9268L20.837 30.3286V30.179C21.3332 29.9511 21.7017 29.7375 21.6804 29.6805C21.6096 29.531 17.7258 28.0141 17.0809 27.6438C16.3651 27.2379 16.5989 26.5115 17.0171 26.2622C17.0738 26.2266 17.5273 26.0344 18.1439 25.778L19.5755 26.426V26.6183C19.1928 26.8106 18.9093 26.953 18.9235 26.9815C18.9589 27.0883 22.7152 28.7405 23.1262 29.0966C23.6719 29.5737 23.4947 30.1434 23.19 30.3855ZM19.8448 26.5756L20.6244 26.9388C20.6244 27.0954 20.6173 27.2521 20.6173 27.4159L19.859 27.0598C19.8449 26.896 19.8448 26.7322 19.8448 26.5756ZM23.4168 27.7221C23.2467 27.8218 22.8427 27.9999 22.3466 28.2135L20.8796 27.537V27.4159C21.2835 27.2236 21.567 27.0812 21.5741 27.0527C21.6096 26.9388 17.5557 25.1442 16.6911 24.7454C16.0036 24.4249 15.8689 23.5775 16.6769 23.1715C16.6769 23.1715 17.3005 22.8938 18.1794 22.5021L19.4976 23.1075V23.4849C18.8172 23.7769 18.314 24.0047 18.2644 24.0261C18.0801 24.0973 23.2609 26.2195 23.4735 26.3406C23.8916 26.5827 24.1326 27.3091 23.4168 27.7221ZM19.7881 23.2428L20.674 23.6558C20.667 23.9905 20.667 24.3252 20.6599 24.667L19.8094 24.2682C19.8023 23.9264 19.7952 23.5846 19.7881 23.2428ZM23.7995 24.6813C23.5231 24.8095 22.9136 25.0801 22.212 25.4005L20.9221 24.8023V24.5958C21.7088 24.2469 22.2899 23.9834 22.2261 23.9549C22.0419 23.8837 16.8399 21.6333 15.9398 21.2203C15.1177 20.8428 14.8271 20.3087 14.8271 19.4399C14.8271 18.4643 15.4224 17.9872 15.8548 17.8661C16.2091 17.7664 17.2155 17.6168 17.903 17.98C18.5762 18.3361 18.5408 19.618 18.5408 19.618H16.5777C16.5777 19.618 16.4288 19.6678 16.5564 19.7889C16.6769 19.9099 23.8137 23.1003 23.8137 23.1003C24.6216 23.5134 24.494 24.3679 23.7995 24.6813ZM24.4799 21.2488C24.168 21.3912 23.3388 21.7544 22.3821 22.1674L20.9788 21.5194V21.1704C22.4813 20.4868 23.8137 19.8743 23.8704 19.8245C23.9909 19.6963 23.8491 19.6465 23.8491 19.6465H21.886C21.886 19.6465 21.8505 18.3717 22.5238 18.0085C23.2042 17.6453 24.2176 17.802 24.572 17.8946C25.0043 18.0156 25.5996 18.4928 25.5996 19.4684C25.5996 20.3301 25.302 20.8713 24.4799 21.2488ZM31.2127 13.3582C31.2127 13.3582 31.319 13.4722 31.0426 14.0134C30.7662 14.5475 30.185 14.5974 30.185 14.5974L24.5436 14.5546C24.4515 14.6971 24.3594 14.8253 24.2672 14.9463C25.954 14.9392 29.3488 14.9321 29.3488 14.9321C29.3488 14.9321 29.4551 15.046 29.1787 15.5873C28.9023 16.1214 28.3211 16.1712 28.3211 16.1712L23.1262 16.1854C22.8215 16.5202 22.0064 17.0899 21.5174 16.7623C21.078 16.4632 21.3332 16.0074 21.6237 15.8222C21.9143 15.6371 22.9278 14.989 23.6081 13.6787C24.2531 12.4325 24.0901 11.4996 24.3098 10.8301C24.5295 10.1679 25.1957 10.2035 25.4083 10.2035C25.628 10.2035 35.8193 10.2035 35.8193 10.2035C35.8193 10.2035 35.9256 10.3245 35.6492 10.8586C35.3728 11.3927 34.7917 11.4426 34.7917 11.4426H25.4295C25.4366 11.5637 25.4295 11.6847 25.4225 11.8058C27.0242 11.8058 34.246 11.8058 34.246 11.8058C34.246 11.8058 34.3523 11.9197 34.0759 12.4609C33.7995 12.9951 33.2183 13.0449 33.2183 13.0449H25.224C25.1886 13.1588 25.1602 13.2657 25.1177 13.3725C26.769 13.3725 31.2127 13.3582 31.2127 13.3582Z" fill="#9FC3D3"/>
</svg>
